{
.appVersion = "1271";
date = "2019-11-28 10:50:22 +0000";
familyName = GowunBatang_01;
fontMaster = (
{
ascender = 800;
capHeight = 700;
descender = -200;
id = "210D674B-AD98-4874-A618-1698A23DB8A1";
xHeight = 500;
}
);
glyphs = (
{
glyphname = "kiyeokCompa-ko";
lastChange = "2019-11-29 11:50:09 +0000";
layers = (
{
layerId = "210D674B-AD98-4874-A618-1698A23DB8A1";
paths = (
{
closed = 1;
nodes = (
"663 177 OFFCURVE",
"692 393 OFFCURVE",
"700 446 CURVE SMOOTH",
"703 470 OFFCURVE",
"713 524 OFFCURVE",
"716 545 CURVE SMOOTH",
"717 550 OFFCURVE",
"715 554 OFFCURVE",
"709 556 CURVE",
"653 568 LINE SMOOTH",
"648 569 OFFCURVE",
"642 569 OFFCURVE",
"637 568 CURVE SMOOTH",
"561 552 OFFCURVE",
"282 541 OFFCURVE",
"189 549 CURVE SMOOTH",
"182 550 OFFCURVE",
"180 545 OFFCURVE",
"181 542 CURVE SMOOTH",
"186 519 OFFCURVE",
"189 514 OFFCURVE",
"194 499 CURVE SMOOTH",
"197 488 OFFCURVE",
"204 485 OFFCURVE",
"213 486 CURVE SMOOTH",
"246 489 OFFCURVE",
"303 492 OFFCURVE",
"336 495 CURVE SMOOTH",
"393 498 OFFCURVE",
"570 509 OFFCURVE",
"628 509 CURVE SMOOTH",
"639 509 OFFCURVE",
"638 507 OFFCURVE",
"638 498 CURVE SMOOTH",
"634 440 OFFCURVE",
"608 184 OFFCURVE",
"595 133 CURVE SMOOTH",
"592 124 OFFCURVE",
"597 123 OFFCURVE",
"601 123 CURVE SMOOTH",
"613 123 OFFCURVE",
"628 123 OFFCURVE",
"639 126 CURVE SMOOTH",
"647 129 OFFCURVE",
"655 132 OFFCURVE",
"659 154 CURVE SMOOTH"
);
}
);
width = 900;
}
);
note = cid00358;
unicode = 3131;
},
{
glyphname = "ssangkiyeokCompa-ko";
lastChange = "2019-11-29 11:50:09 +0000";
layers = (
{
layerId = "210D674B-AD98-4874-A618-1698A23DB8A1";
paths = (
{
closed = 1;
nodes = (
"755 245 OFFCURVE",
"766 365 OFFCURVE",
"777 455 CURVE SMOOTH",
"789 554 LINE SMOOTH",
"790 559 OFFCURVE",
"788 563 OFFCURVE",
"782 565 CURVE",
"724 574 LINE SMOOTH",
"717 575 OFFCURVE",
"719 575 OFFCURVE",
"712 574 CURVE SMOOTH",
"663 566 OFFCURVE",
"527 554 OFFCURVE",
"462 559 CURVE SMOOTH",
"455 560 OFFCURVE",
"453 555 OFFCURVE",
"454 552 CURVE SMOOTH",
"467 513 LINE SMOOTH",
"471 502 OFFCURVE",
"473 498 OFFCURVE",
"486 500 CURVE SMOOTH",
"549 508 OFFCURVE",
"648 519 OFFCURVE",
"707 516 CURVE SMOOTH",
"715 516 OFFCURVE",
"715 512 OFFCURVE",
"715 503 CURVE SMOOTH",
"712 426 OFFCURVE",
"695 234 OFFCURVE",
"679 143 CURVE",
"676 134 OFFCURVE",
"680 135 OFFCURVE",
"686 134 CURVE",
"726 135 LINE",
"734 138 OFFCURVE",
"741 140 OFFCURVE",
"744 164 CURVE SMOOTH"
);
},
{
closed = 1;
nodes = (
"372 183 OFFCURVE",
"412 379 OFFCURVE",
"424 446 CURVE SMOOTH",
"427 468 OFFCURVE",
"438 516 OFFCURVE",
"443 536 CURVE SMOOTH",
"444 541 OFFCURVE",
"442 545 OFFCURVE",
"436 547 CURVE SMOOTH",
"378 561 LINE SMOOTH",
"372 563 OFFCURVE",
"366 563 OFFCURVE",
"360 561 CURVE SMOOTH",
"301 548 OFFCURVE",
"189 547 OFFCURVE",
"114 552 CURVE SMOOTH",
"107 553 OFFCURVE",
"105 548 OFFCURVE",
"106 545 CURVE SMOOTH",
"119 503 LINE SMOOTH",
"123 492 OFFCURVE",
"124 488 OFFCURVE",
"138 490 CURVE SMOOTH",
"202 498 OFFCURVE",
"294 503 OFFCURVE",
"352 503 CURVE SMOOTH",
"363 503 OFFCURVE",
"362 501 OFFCURVE",
"362 492 CURVE SMOOTH",
"357 396 OFFCURVE",
"317 219 OFFCURVE",
"298 142 CURVE",
"295 135 OFFCURVE",
"300 135 OFFCURVE",
"306 134 CURVE SMOOTH",
"340 132 LINE SMOOTH",
"348 132 OFFCURVE",
"357 131 OFFCURVE",
"364 159 CURVE SMOOTH"
);
}
);
width = 900;
}
);
note = cid00359;
unicode = 3132;
},
{
glyphname = "kiyeokSiosCompa-ko";
lastChange = "2019-11-29 11:50:09 +0000";
layers = (
{
layerId = "210D674B-AD98-4874-A618-1698A23DB8A1";
paths = (
{
closed = 1;
nodes = (
"432 114 LINE",
"439 109 OFFCURVE",
"447 110 OFFCURVE",
"456 117 CURVE SMOOTH",
"524 177 OFFCURVE",
"585 267 OFFCURVE",
"624 350 CURVE",
"686 294 OFFCURVE",
"756 208 OFFCURVE",
"793 146 CURVE SMOOTH",
"796 142 OFFCURVE",
"799 141 OFFCURVE",
"804 144 CURVE SMOOTH",
"823 156 OFFCURVE",
"832 168 OFFCURVE",
"845 185 CURVE SMOOTH",
"853 196 OFFCURVE",
"849 201 OFFCURVE",
"844 212 CURVE",
"812 255 OFFCURVE",
"725 326 OFFCURVE",
"645 396 CURVE",
"654 417 OFFCURVE",
"660 436 OFFCURVE",
"665 455 CURVE SMOOTH",
"674 488 OFFCURVE",
"682 521 OFFCURVE",
"689 556 CURVE SMOOTH",
"690 559 OFFCURVE",
"688 566 OFFCURVE",
"683 563 CURVE",
"613 577 LINE",
"609 577 OFFCURVE",
"602 576 OFFCURVE",
"603 567 CURVE",
"610 536 OFFCURVE",
"605 488 OFFCURVE",
"593 447 CURVE SMOOTH",
"563 337 OFFCURVE",
"474 200 OFFCURVE",
"402 139 CURVE SMOOTH",
"399 136 OFFCURVE",
"397 132 OFFCURVE",
"401 129 CURVE"
);
},
{
closed = 1;
nodes = (
"356 433 OFFCURVE",
"344 250 OFFCURVE",
"333 151 CURVE",
"333 144 OFFCURVE",
"342 145 OFFCURVE",
"345 145 CURVE SMOOTH",
"352 145 OFFCURVE",
"376 146 OFFCURVE",
"383 147 CURVE SMOOTH",
"390 148 OFFCURVE",
"397 149 OFFCURVE",
"397 168 CURVE",
"418 447 LINE",
"418 468 OFFCURVE",
"425 519 OFFCURVE",
"428 540 CURVE SMOOTH",
"428 543 OFFCURVE",
"429 548 OFFCURVE",
"422 551 CURVE",
"360 560 LINE SMOOTH",
"355 561 OFFCURVE",
"352 560 OFFCURVE",
"345 559 CURVE SMOOTH",
"283 548 OFFCURVE",
"127 543 OFFCURVE",
"79 548 CURVE SMOOTH",
"72 549 OFFCURVE",
"70 544 OFFCURVE",
"71 540 CURVE SMOOTH",
"81 500 LINE SMOOTH",
"84 489 OFFCURVE",
"85 484 OFFCURVE",
"100 485 CURVE SMOOTH",
"193 496 OFFCURVE",
"249 499 OFFCURVE",
"341 499 CURVE SMOOTH",
"353 499 OFFCURVE",
"353 497 OFFCURVE",
"353 486 CURVE SMOOTH"
);
}
);
width = 900;
}
);
note = cid00360;
unicode = 3133;
},
{
glyphname = "nieunCompa-ko";
lastChange = "2019-11-29 11:50:09 +0000";
layers = (
{
layerId = "210D674B-AD98-4874-A618-1698A23DB8A1";
paths = (
{
closed = 1;
nodes = (
"217 257 LINE SMOOTH",
"216 193 OFFCURVE",
"233 158 OFFCURVE",
"280 159 CURVE SMOOTH",
"435 162 OFFCURVE",
"569 170 OFFCURVE",
"713 170 CURVE SMOOTH",
"733 170 OFFCURVE",
"735 172 OFFCURVE",
"735 180 CURVE SMOOTH",
"731 226 LINE SMOOTH",
"730 233 OFFCURVE",
"726 237 OFFCURVE",
"713 234 CURVE SMOOTH",
"680 227 OFFCURVE",
"613 219 OFFCURVE",
"541 216 CURVE SMOOTH",
"488 213 OFFCURVE",
"376 207 OFFCURVE",
"308 210 CURVE SMOOTH",
"287 211 OFFCURVE",
"282 229 OFFCURVE",
"282 269 CURVE SMOOTH",
"282 436 LINE SMOOTH",
"283 471 OFFCURVE",
"282 506 OFFCURVE",
"285 542 CURVE SMOOTH",
"285 547 OFFCURVE",
"287 551 OFFCURVE",
"282 552 CURVE SMOOTH",
"278 552 OFFCURVE",
"225 558 OFFCURVE",
"214 558 CURVE SMOOTH",
"207 558 OFFCURVE",
"204 555 OFFCURVE",
"206 548 CURVE SMOOTH",
"210 535 OFFCURVE",
"217 492 OFFCURVE",
"217 456 CURVE SMOOTH"
);
}
);
width = 900;
}
);
note = cid00361;
unicode = 3134;
},
{
glyphname = "nieunCieucCompa-ko";
lastChange = "2019-11-29 11:50:09 +0000";
layers = (
{
layerId = "210D674B-AD98-4874-A618-1698A23DB8A1";
paths = (
{
closed = 1;
nodes = (
"412 112 LINE SMOOTH",
"423 104 OFFCURVE",
"428 106 OFFCURVE",
"439 113 CURVE",
"511 168 OFFCURVE",
"574 239 OFFCURVE",
"615 319 CURVE",
"668 274 OFFCURVE",
"736 191 OFFCURVE",
"771 135 CURVE SMOOTH",
"774 131 OFFCURVE",
"777 130 OFFCURVE",
"781 132 CURVE SMOOTH",
"797 143 OFFCURVE",
"811 151 OFFCURVE",
"826 167 CURVE SMOOTH",
"833 175 OFFCURVE",
"830 186 OFFCURVE",
"823 193 CURVE SMOOTH",
"780 244 OFFCURVE",
"711 297 OFFCURVE",
"634 360 CURVE",
"651 401 OFFCURVE",
"661 443 OFFCURVE",
"664 486 CURVE",
"707 487 OFFCURVE",
"746 487 OFFCURVE",
"798 486 CURVE SMOOTH",
"807 486 OFFCURVE",
"812 490 OFFCURVE",
"811 498 CURVE SMOOTH",
"806 544 LINE SMOOTH",
"805 552 OFFCURVE",
"797 553 OFFCURVE",
"793 552 CURVE SMOOTH",
"718 536 OFFCURVE",
"478 522 OFFCURVE",
"411 534 CURVE SMOOTH",
"404 535 OFFCURVE",
"402 530 OFFCURVE",
"403 527 CURVE SMOOTH",
"415 483 LINE SMOOTH",
"418 474 OFFCURVE",
"419 465 OFFCURVE",
"435 468 CURVE SMOOTH",
"471 473 OFFCURVE",
"522 476 OFFCURVE",
"557 479 CURVE SMOOTH",
"592 481 LINE",
"592 346 OFFCURVE",
"476 199 OFFCURVE",
"385 146 CURVE",
"382 143 OFFCURVE",
"379 138 OFFCURVE",
"384 135 CURVE"
);
},
{
closed = 1;
nodes = (
"117 246 LINE SMOOTH",
"116 199 OFFCURVE",
"133 165 OFFCURVE",
"158 162 CURVE SMOOTH",
"211 157 OFFCURVE",
"360 192 OFFCURVE",
"421 221 CURVE SMOOTH",
"430 225 OFFCURVE",
"432 233 OFFCURVE",
"431 240 CURVE SMOOTH",
"426 268 LINE SMOOTH",
"425 275 OFFCURVE",
"422 277 OFFCURVE",
"415 274 CURVE SMOOTH",
"356 247 OFFCURVE",
"230 222 OFFCURVE",
"198 225 CURVE SMOOTH",
"186 226 OFFCURVE",
"181 231 OFFCURVE",
"181 274 CURVE SMOOTH",
"181 435 LINE SMOOTH",
"181 474 OFFCURVE",
"181 492 OFFCURVE",
"184 527 CURVE SMOOTH",
"184 534 OFFCURVE",
"185 537 OFFCURVE",
"178 538 CURVE SMOOTH",
"174 538 OFFCURVE",
"124 541 OFFCURVE",
"113 541 CURVE SMOOTH",
"107 541 OFFCURVE",
"105 537 OFFCURVE",
"106 530 CURVE SMOOTH",
"110 515 OFFCURVE",
"117 481 OFFCURVE",
"117 430 CURVE SMOOTH"
);
}
);
width = 900;
}
);
note = cid00362;
unicode = 3135;
},
{
glyphname = "nieunHieuhCompa-ko";
lastChange = "2019-11-29 11:50:09 +0000";
layers = (
{
layerId = "210D674B-AD98-4874-A618-1698A23DB8A1";
paths = (
{
closed = 1;
nodes = (
"707 397 OFFCURVE",
"764 342 OFFCURVE",
"764 264 CURVE SMOOTH",
"764 198 OFFCURVE",
"708 129 OFFCURVE",
"601 129 CURVE SMOOTH",
"494 126 OFFCURVE",
"438 197 OFFCURVE",
"438 258 CURVE SMOOTH",
"438 323 OFFCURVE",
"487 391 OFFCURVE",
"604 394 CURVE SMOOTH"
);
},
{
closed = 1;
nodes = (
"117 424 LINE SMOOTH",
"117 475 OFFCURVE",
"111 509 OFFCURVE",
"106 524 CURVE",
"105 531 OFFCURVE",
"107 535 OFFCURVE",
"114 535 CURVE SMOOTH",
"125 535 OFFCURVE",
"176 532 OFFCURVE",
"181 532 CURVE",
"184 531 OFFCURVE",
"186 528 OFFCURVE",
"186 521 CURVE SMOOTH",
"186 486 OFFCURVE",
"184 468 OFFCURVE",
"184 428 CURVE SMOOTH",
"184 278 LINE SMOOTH",
"184 250 OFFCURVE",
"185 230 OFFCURVE",
"200 229 CURVE SMOOTH",
"232 226 OFFCURVE",
"346 248 OFFCURVE",
"404 274 CURVE SMOOTH",
"411 277 OFFCURVE",
"414 276 OFFCURVE",
"415 269 CURVE SMOOTH",
"421 236 LINE SMOOTH",
"422 228 OFFCURVE",
"419 222 OFFCURVE",
"410 217 CURVE SMOOTH",
"350 188 OFFCURVE",
"211 158 OFFCURVE",
"158 161 CURVE SMOOTH",
"133 164 OFFCURVE",
"116 199 OFFCURVE",
"117 246 CURVE SMOOTH"
);
},
{
closed = 1;
nodes = (
"661 182 OFFCURVE",
"697 220 OFFCURVE",
"700 267 CURVE SMOOTH",
"703 303 OFFCURVE",
"672 354 OFFCURVE",
"604 351 CURVE SMOOTH",
"532 350 OFFCURVE",
"499 307 OFFCURVE",
"499 262 CURVE SMOOTH",
"499 219 OFFCURVE",
"541 181 OFFCURVE",
"601 181 CURVE SMOOTH"
);
},
{
closed = 1;
nodes = (
"792 437 OFFCURVE",
"733 438 OFFCURVE",
"709 438 CURVE SMOOTH",
"629 438 OFFCURVE",
"493 431 OFFCURVE",
"386 420 CURVE",
"373 417 OFFCURVE",
"372 419 OFFCURVE",
"369 426 CURVE",
"357 475 LINE SMOOTH",
"356 478 OFFCURVE",
"358 481 OFFCURVE",
"365 481 CURVE SMOOTH",
"518 470 OFFCURVE",
"628 479 OFFCURVE",
"705 488 CURVE SMOOTH",
"749 492 OFFCURVE",
"779 495 OFFCURVE",
"810 502 CURVE SMOOTH",
"814 503 OFFCURVE",
"820 502 OFFCURVE",
"821 495 CURVE SMOOTH",
"827 450 LINE SMOOTH",
"828 443 OFFCURVE",
"826 437 OFFCURVE",
"815 437 CURVE SMOOTH"
);
},
{
closed = 1;
nodes = (
"456 602 OFFCURVE",
"442 572 OFFCURVE",
"452 565 CURVE SMOOTH",
"486 544 OFFCURVE",
"547 539 OFFCURVE",
"576 539 CURVE SMOOTH",
"632 539 OFFCURVE",
"700 544 OFFCURVE",
"713 550 CURVE SMOOTH",
"722 553 OFFCURVE",
"721 588 OFFCURVE",
"721 598 CURVE",
"720 603 OFFCURVE",
"719 606 OFFCURVE",
"708 603 CURVE",
"657 595 OFFCURVE",
"586 589 OFFCURVE",
"466 602 CURVE"
);
}
);
width = 900;
}
);
note = cid00363;
unicode = 3136;
},
{
glyphname = "tikeutCompa-ko";
lastChange = "2019-11-29 11:50:09 +0000";
layers = (
{
layerId = "210D674B-AD98-4874-A618-1698A23DB8A1";
paths = (
{
closed = 1;
nodes = (
"429 153 OFFCURVE",
"541 157 OFFCURVE",
"685 157 CURVE SMOOTH",
"705 157 OFFCURVE",
"707 159 OFFCURVE",
"707 167 CURVE SMOOTH",
"706 184 OFFCURVE",
"705 197 OFFCURVE",
"703 213 CURVE SMOOTH",
"701 222 OFFCURVE",
"698 224 OFFCURVE",
"685 221 CURVE SMOOTH",
"652 214 OFFCURVE",
"596 209 OFFCURVE",
"524 206 CURVE SMOOTH",
"472 203 OFFCURVE",
"369 198 OFFCURVE",
"302 201 CURVE SMOOTH",
"279 202 OFFCURVE",
"275 210 OFFCURVE",
"275 250 CURVE SMOOTH",
"275 487 LINE",
"358 490 OFFCURVE",
"520 496 OFFCURVE",
"570 496 CURVE SMOOTH",
"610 497 OFFCURVE",
"643 498 OFFCURVE",
"680 498 CURVE SMOOTH",
"689 498 OFFCURVE",
"693 502 OFFCURVE",
"692 510 CURVE SMOOTH",
"688 552 LINE SMOOTH",
"687 559 OFFCURVE",
"680 559 OFFCURVE",
"676 559 CURVE SMOOTH",
"641 555 OFFCURVE",
"583 549 OFFCURVE",
"504 546 CURVE SMOOTH",
"403 542 OFFCURVE",
"330 539 OFFCURVE",
"275 540 CURVE SMOOTH",
"244 541 OFFCURVE",
"216 543 OFFCURVE",
"205 543 CURVE SMOOTH",
"198 543 OFFCURVE",
"192 536 OFFCURVE",
"196 528 CURVE SMOOTH",
"204 515 OFFCURVE",
"212 478 OFFCURVE",
"212 431 CURVE SMOOTH",
"212 238 LINE SMOOTH",
"211 174 OFFCURVE",
"228 149 OFFCURVE",
"275 150 CURVE SMOOTH"
);
}
);
width = 900;
}
);
note = cid00364;
unicode = 3137;
},
{
glyphname = "ssangtikeutCompa-ko";
lastChange = "2019-11-29 11:50:09 +0000";
layers = (
{
layerId = "210D674B-AD98-4874-A618-1698A23DB8A1";
paths = (
{
closed = 1;
nodes = (
"650 160 OFFCURVE",
"714 163 OFFCURVE",
"759 163 CURVE SMOOTH",
"778 163 OFFCURVE",
"780 165 OFFCURVE",
"780 173 CURVE SMOOTH",
"780 175 OFFCURVE",
"775 214 OFFCURVE",
"775 216 CURVE SMOOTH",
"774 223 OFFCURVE",
"771 227 OFFCURVE",
"758 224 CURVE SMOOTH",
"729 219 OFFCURVE",
"620 208 OFFCURVE",
"556 208 CURVE SMOOTH",
"535 208 OFFCURVE",
"530 213 OFFCURVE",
"530 253 CURVE SMOOTH",
"530 498 LINE",
"610 502 OFFCURVE",
"675 503 OFFCURVE",
"755 503 CURVE SMOOTH",
"764 503 OFFCURVE",
"768 507 OFFCURVE",
"767 515 CURVE SMOOTH",
"767 520 OFFCURVE",
"767 524 OFFCURVE",
"766 529 CURVE SMOOTH",
"762 555 LINE SMOOTH",
"761 562 OFFCURVE",
"754 563 OFFCURVE",
"750 562 CURVE SMOOTH",
"731 557 OFFCURVE",
"587 548 OFFCURVE",
"512 548 CURVE SMOOTH",
"488 549 OFFCURVE",
"469 551 OFFCURVE",
"461 551 CURVE SMOOTH",
"456 551 OFFCURVE",
"451 544 OFFCURVE",
"455 536 CURVE SMOOTH",
"462 523 OFFCURVE",
"467 485 OFFCURVE",
"467 438 CURVE SMOOTH",
"467 243 LINE SMOOTH",
"466 179 OFFCURVE",
"484 152 OFFCURVE",
"531 155 CURVE SMOOTH"
);
},
{
closed = 1;
nodes = (
"137 216 LINE SMOOTH",
"136 173 OFFCURVE",
"152 144 OFFCURVE",
"175 141 CURVE SMOOTH",
"222 138 OFFCURVE",
"374 174 OFFCURVE",
"428 198 CURVE SMOOTH",
"437 202 OFFCURVE",
"439 208 OFFCURVE",
"438 215 CURVE SMOOTH",
"433 245 LINE SMOOTH",
"432 251 OFFCURVE",
"428 253 OFFCURVE",
"423 250 CURVE SMOOTH",
"368 221 OFFCURVE",
"250 202 OFFCURVE",
"215 205 CURVE SMOOTH",
"200 206 OFFCURVE",
"201 224 OFFCURVE",
"201 249 CURVE SMOOTH",
"201 487 LINE",
"276 490 OFFCURVE",
"321 490 OFFCURVE",
"401 490 CURVE SMOOTH",
"410 490 OFFCURVE",
"414 494 OFFCURVE",
"413 501 CURVE SMOOTH",
"408 541 LINE SMOOTH",
"407 548 OFFCURVE",
"400 549 OFFCURVE",
"395 548 CURVE SMOOTH",
"378 542 OFFCURVE",
"263 538 OFFCURVE",
"196 538 CURVE SMOOTH",
"167 539 OFFCURVE",
"137 542 OFFCURVE",
"128 542 CURVE SMOOTH",
"123 542 OFFCURVE",
"118 535 OFFCURVE",
"122 527 CURVE SMOOTH",
"129 514 OFFCURVE",
"137 476 OFFCURVE",
"137 429 CURVE SMOOTH"
);
}
);
width = 900;
}
);
note = cid00365;
unicode = 3138;
},
{
glyphname = "rieulCompa-ko";
lastChange = "2019-11-29 11:50:09 +0000";
layers = (
{
layerId = "210D674B-AD98-4874-A618-1698A23DB8A1";
paths = (
{
closed = 1;
nodes = (
"272 172 OFFCURVE",
"272 189 OFFCURVE",
"272 220 CURVE SMOOTH",
"272 319 LINE",
"380 322 OFFCURVE",
"551 329 OFFCURVE",
"642 329 CURVE SMOOTH",
"649 329 OFFCURVE",
"657 333 OFFCURVE",
"658 348 CURVE SMOOTH",
"661 389 OFFCURVE",
"664 428 OFFCURVE",
"672 481 CURVE SMOOTH",
"675 505 OFFCURVE",
"680 528 OFFCURVE",
"683 555 CURVE SMOOTH",
"683 558 OFFCURVE",
"684 561 OFFCURVE",
"677 564 CURVE",
"620 574 LINE SMOOTH",
"615 575 OFFCURVE",
"611 574 OFFCURVE",
"604 573 CURVE SMOOTH",
"489 557 OFFCURVE",
"275 554 OFFCURVE",
"209 562 CURVE SMOOTH",
"202 563 OFFCURVE",
"199 558 OFFCURVE",
"200 555 CURVE SMOOTH",
"210 516 LINE",
"213 508 OFFCURVE",
"214 504 OFFCURVE",
"229 505 CURVE SMOOTH",
"258 508 OFFCURVE",
"303 506 OFFCURVE",
"334 509 CURVE SMOOTH",
"401 512 OFFCURVE",
"537 518 OFFCURVE",
"598 518 CURVE SMOOTH",
"611 518 OFFCURVE",
"609 516 OFFCURVE",
"609 507 CURVE SMOOTH",
"599 383 LINE",
"518 371 OFFCURVE",
"259 366 OFFCURVE",
"209 370 CURVE SMOOTH",
"198 371 OFFCURVE",
"194 362 OFFCURVE",
"197 358 CURVE",
"206 337 OFFCURVE",
"209 305 OFFCURVE",
"209 282 CURVE SMOOTH",
"209 213 LINE SMOOTH",
"208 154 OFFCURVE",
"225 120 OFFCURVE",
"266 119 CURVE SMOOTH",
"399 122 OFFCURVE",
"549 130 OFFCURVE",
"692 131 CURVE SMOOTH",
"712 131 OFFCURVE",
"711 137 OFFCURVE",
"711 144 CURVE SMOOTH",
"707 185 LINE",
"704 192 OFFCURVE",
"702 198 OFFCURVE",
"689 195 CURVE SMOOTH",
"645 186 OFFCURVE",
"589 180 OFFCURVE",
"533 177 CURVE SMOOTH",
"446 172 OFFCURVE",
"382 168 OFFCURVE",
"295 171 CURVE SMOOTH"
);
}
);
width = 900;
}
);
note = cid00366;
unicode = 3139;
},
{
glyphname = "rieulKiyeokCompa-ko";
lastChange = "2019-11-29 11:50:09 +0000";
layers = (
{
layerId = "210D674B-AD98-4874-A618-1698A23DB8A1";
paths = (
{
closed = 1;
nodes = (
"422 333 OFFCURVE",
"431 336 OFFCURVE",
"432 351 CURVE SMOOTH",
"436 415 OFFCURVE",
"437 464 OFFCURVE",
"445 528 CURVE SMOOTH",
"445 531 OFFCURVE",
"445 539 OFFCURVE",
"438 540 CURVE SMOOTH",
"390 548 LINE SMOOTH",
"385 549 OFFCURVE",
"381 548 OFFCURVE",
"374 547 CURVE SMOOTH",
"311 539 OFFCURVE",
"198 535 OFFCURVE",
"138 540 CURVE SMOOTH",
"131 541 OFFCURVE",
"128 536 OFFCURVE",
"129 533 CURVE",
"136 492 LINE",
"139 483 OFFCURVE",
"140 476 OFFCURVE",
"156 477 CURVE SMOOTH",
"238 485 LINE SMOOTH",
"297 488 OFFCURVE",
"303 489 OFFCURVE",
"367 489 CURVE SMOOTH",
"380 489 OFFCURVE",
"377 488 OFFCURVE",
"377 477 CURVE SMOOTH",
"375 384 LINE",
"290 376 OFFCURVE",
"166 376 OFFCURVE",
"142 379 CURVE SMOOTH",
"131 380 OFFCURVE",
"127 370 OFFCURVE",
"130 366 CURVE",
"139 343 OFFCURVE",
"142 326 OFFCURVE",
"142 303 CURVE SMOOTH",
"142 221 LINE SMOOTH",
"141 176 OFFCURVE",
"158 143 OFFCURVE",
"183 140 CURVE SMOOTH",
"247 132 OFFCURVE",
"458 172 OFFCURVE",
"519 196 CURVE SMOOTH",
"528 200 OFFCURVE",
"530 207 OFFCURVE",
"529 214 CURVE SMOOTH",
"524 244 LINE SMOOTH",
"523 250 OFFCURVE",
"519 252 OFFCURVE",
"513 249 CURVE SMOOTH",
"449 217 OFFCURVE",
"271 195 OFFCURVE",
"222 200 CURVE",
"207 203 OFFCURVE",
"206 221 OFFCURVE",
"206 248 CURVE SMOOTH",
"206 327 LINE",
"321 330 OFFCURVE",
"319 333 OFFCURVE",
"415 333 CURVE SMOOTH"
);
},
{
closed = 1;
nodes = (
"707 133 LINE SMOOTH",
"707 130 OFFCURVE",
"709 128 OFFCURVE",
"712 128 CURVE SMOOTH",
"720 128 OFFCURVE",
"751 131 OFFCURVE",
"759 131 CURVE SMOOTH",
"766 132 OFFCURVE",
"774 131 OFFCURVE",
"774 150 CURVE SMOOTH",
"774 435 LINE SMOOTH",
"774 457 OFFCURVE",
"778 510 OFFCURVE",
"778 530 CURVE SMOOTH",
"778 533 OFFCURVE",
"779 539 OFFCURVE",
"772 540 CURVE SMOOTH",
"717 550 LINE SMOOTH",
"714 551 OFFCURVE",
"708 550 OFFCURVE",
"701 549 CURVE SMOOTH",
"643 538 OFFCURVE",
"524 536 OFFCURVE",
"476 541 CURVE SMOOTH",
"469 542 OFFCURVE",
"464 537 OFFCURVE",
"465 534 CURVE SMOOTH",
"477 488 LINE SMOOTH",
"481 475 OFFCURVE",
"481 471 OFFCURVE",
"497 474 CURVE",
"572 482 OFFCURVE",
"640 484 OFFCURVE",
"696 485 CURVE SMOOTH",
"708 485 OFFCURVE",
"707 483 OFFCURVE",
"707 472 CURVE SMOOTH"
);
}
);
width = 900;
}
);
note = cid00367;
unicode = 313A;
},
{
glyphname = "rieulMieumCompa-ko";
lastChange = "2019-11-29 11:50:09 +0000";
layers = (
{
layerId = "210D674B-AD98-4874-A618-1698A23DB8A1";
paths = (
{
closed = 1;
nodes = (
"473 537 OFFCURVE",
"464 530 OFFCURVE",
"469 522 CURVE SMOOTH",
"475 513 OFFCURVE",
"482 447 OFFCURVE",
"482 415 CURVE SMOOTH",
"485 243 OFFCURVE",
"483 178 OFFCURVE",
"483 162 CURVE SMOOTH",
"483 154 OFFCURVE",
"490 154 OFFCURVE",
"491 154 CURVE SMOOTH",
"495 154 OFFCURVE",
"525 159 OFFCURVE",
"538 159 CURVE SMOOTH",
"592 162 OFFCURVE",
"741 161 OFFCURVE",
"756 158 CURVE SMOOTH",
"763 157 OFFCURVE",
"771 164 OFFCURVE",
"771 172 CURVE SMOOTH",
"770 253 OFFCURVE",
"770 332 OFFCURVE",
"773 420 CURVE SMOOTH",
"773 442 OFFCURVE",
"774 493 OFFCURVE",
"777 524 CURVE SMOOTH",
"777 531 OFFCURVE",
"778 534 OFFCURVE",
"771 537 CURVE",
"719 544 LINE SMOOTH",
"712 545 OFFCURVE",
"710 544 OFFCURVE",
"703 543 CURVE SMOOTH",
"662 538 OFFCURVE",
"577 535 OFFCURVE",
"534 535 CURVE SMOOTH",
"511 535 OFFCURVE",
"498 536 OFFCURVE",
"477 537 CURVE SMOOTH"
);
},
{
closed = 1;
nodes = (
"390 333 LINE SMOOTH",
"397 333 OFFCURVE",
"406 335 OFFCURVE",
"407 350 CURVE SMOOTH",
"411 414 OFFCURVE",
"414 464 OFFCURVE",
"422 528 CURVE SMOOTH",
"422 531 OFFCURVE",
"422 537 OFFCURVE",
"415 538 CURVE SMOOTH",
"367 545 LINE",
"362 548 OFFCURVE",
"358 545 OFFCURVE",
"351 544 CURVE SMOOTH",
"288 536 OFFCURVE",
"185 530 OFFCURVE",
"125 538 CURVE SMOOTH",
"118 539 OFFCURVE",
"116 534 OFFCURVE",
"117 530 CURVE SMOOTH",
"123 491 LINE",
"126 483 OFFCURVE",
"127 476 OFFCURVE",
"143 477 CURVE SMOOTH",
"226 485 LINE SMOOTH",
"285 488 OFFCURVE",
"280 489 OFFCURVE",
"344 489 CURVE SMOOTH",
"356 489 OFFCURVE",
"354 488 OFFCURVE",
"354 477 CURVE SMOOTH",
"348 384 LINE",
"261 376 OFFCURVE",
"153 375 OFFCURVE",
"130 380 CURVE",
"119 381 OFFCURVE",
"115 371 OFFCURVE",
"118 367 CURVE",
"125 347 OFFCURVE",
"129 331 OFFCURVE",
"130 312 CURVE SMOOTH",
"130 226 LINE",
"127 179 OFFCURVE",
"146 148 OFFCURVE",
"170 145 CURVE SMOOTH",
"233 140 OFFCURVE",
"392 167 OFFCURVE",
"451 195 CURVE",
"459 200 OFFCURVE",
"462 206 OFFCURVE",
"461 214 CURVE SMOOTH",
"456 243 LINE SMOOTH",
"455 250 OFFCURVE",
"451 251 OFFCURVE",
"445 248 CURVE SMOOTH",
"382 217 OFFCURVE",
"258 202 OFFCURVE",
"210 205 CURVE SMOOTH",
"195 206 OFFCURVE",
"194 226 OFFCURVE",
"194 253 CURVE SMOOTH",
"194 327 LINE"
);
},
{
closed = 1;
nodes = (
"541 482 LINE",
"701 486 LINE SMOOTH",
"709 486 OFFCURVE",
"710 485 OFFCURVE",
"710 474 CURVE SMOOTH",
"710 213 LINE",
"677 207 OFFCURVE",
"574 211 OFFCURVE",
"541 211 CURVE"
);
}
);
width = 900;
}
);
note = cid00368;
unicode = 313B;
},
{
glyphname = "rieulPieupCompa-ko";
lastChange = "2019-11-29 11:50:09 +0000";
layers = (
{
layerId = "210D674B-AD98-4874-A618-1698A23DB8A1";
paths = (
{
closed = 1;
nodes = (
"557 540 OFFCURVE",
"555 543 OFFCURVE",
"551 543 CURVE SMOOTH",
"492 543 LINE SMOOTH",
"485 543 OFFCURVE",
"482 540 OFFCURVE",
"484 533 CURVE SMOOTH",
"489 521 OFFCURVE",
"495 473 OFFCURVE",
"495 435 CURVE SMOOTH",
"495 366 OFFCURVE",
"496 190 OFFCURVE",
"496 158 CURVE SMOOTH",
"496 150 OFFCURVE",
"502 150 OFFCURVE",
"505 150 CURVE SMOOTH",
"508 150 OFFCURVE",
"546 155 OFFCURVE",
"559 155 CURVE SMOOTH",
"617 155 OFFCURVE",
"756 154 OFFCURVE",
"773 154 CURVE SMOOTH",
"781 154 OFFCURVE",
"789 160 OFFCURVE",
"789 168 CURVE SMOOTH",
"789 430 LINE SMOOTH",
"789 482 OFFCURVE",
"788 487 OFFCURVE",
"791 542 CURVE SMOOTH",
"791 549 OFFCURVE",
"789 553 OFFCURVE",
"785 553 CURVE SMOOTH",
"725 553 LINE SMOOTH",
"720 553 OFFCURVE",
"714 550 OFFCURVE",
"718 542 CURVE SMOOTH",
"725 526 OFFCURVE",
"725 486 OFFCURVE",
"725 431 CURVE SMOOTH",
"725 407 LINE",
"677 402 OFFCURVE",
"594 402 OFFCURVE",
"556 402 CURVE",
"556 434 LINE SMOOTH",
"556 473 OFFCURVE",
"556 494 OFFCURVE",
"557 533 CURVE SMOOTH"
);
},
{
closed = 1;
nodes = (
"205 243 LINE SMOOTH",
"205 216 OFFCURVE",
"206 197 OFFCURVE",
"221 196 CURVE SMOOTH",
"269 193 OFFCURVE",
"386 207 OFFCURVE",
"450 239 CURVE SMOOTH",
"457 242 OFFCURVE",
"460 240 OFFCURVE",
"461 233 CURVE SMOOTH",
"466 204 LINE SMOOTH",
"467 197 OFFCURVE",
"465 190 OFFCURVE",
"456 186 CURVE SMOOTH",
"396 157 OFFCURVE",
"245 132 OFFCURVE",
"181 135 CURVE",
"157 138 OFFCURVE",
"138 171 OFFCURVE",
"141 216 CURVE",
"141 301 LINE SMOOTH",
"141 324 OFFCURVE",
"137 341 OFFCURVE",
"129 364 CURVE",
"126 368 OFFCURVE",
"130 378 OFFCURVE",
"141 377 CURVE",
"165 372 OFFCURVE",
"265 373 OFFCURVE",
"353 381 CURVE",
"359 481 LINE SMOOTH",
"359 490 OFFCURVE",
"357 493 OFFCURVE",
"344 493 CURVE SMOOTH",
"280 493 OFFCURVE",
"297 493 OFFCURVE",
"237 488 CURVE SMOOTH",
"154 481 LINE SMOOTH",
"138 480 OFFCURVE",
"137 486 OFFCURVE",
"134 495 CURVE",
"128 534 LINE",
"127 537 OFFCURVE",
"129 542 OFFCURVE",
"136 541 CURVE SMOOTH",
"195 533 OFFCURVE",
"293 540 OFFCURVE",
"356 548 CURVE SMOOTH",
"363 549 OFFCURVE",
"367 550 OFFCURVE",
"372 549 CURVE SMOOTH",
"420 541 LINE SMOOTH",
"427 540 OFFCURVE",
"427 534 OFFCURVE",
"427 531 CURVE SMOOTH",
"419 467 OFFCURVE",
"416 411 OFFCURVE",
"412 347 CURVE SMOOTH",
"411 332 OFFCURVE",
"402 330 OFFCURVE",
"395 330 CURVE SMOOTH",
"298 327 OFFCURVE",
"320 327 OFFCURVE",
"205 324 CURVE"
);
},
{
closed = 1;
nodes = (
"556 351 LINE",
"612 354 OFFCURVE",
"664 354 OFFCURVE",
"725 354 CURVE",
"725 216 LINE",
"689 210 OFFCURVE",
"591 213 OFFCURVE",
"556 213 CURVE"
);
}
);
width = 900;
}
);
note = cid00369;
unicode = 313C;
},
{
glyphname = "rieulSiosCompa-ko";
lastChange = "2019-11-29 11:50:09 +0000";
layers = (
{
layerId = "210D674B-AD98-4874-A618-1698A23DB8A1";
paths = (
{
closed = 1;
nodes = (
"389 332 LINE SMOOTH",
"397 332 OFFCURVE",
"405 335 OFFCURVE",
"406 350 CURVE SMOOTH",
"411 414 OFFCURVE",
"416 466 OFFCURVE",
"427 530 CURVE",
"427 533 OFFCURVE",
"427 539 OFFCURVE",
"420 540 CURVE SMOOTH",
"370 548 LINE",
"367 549 OFFCURVE",
"361 548 OFFCURVE",
"354 547 CURVE SMOOTH",
"290 539 OFFCURVE",
"183 532 OFFCURVE",
"124 540 CURVE SMOOTH",
"117 541 OFFCURVE",
"114 536 OFFCURVE",
"115 533 CURVE SMOOTH",
"122 494 LINE",
"125 485 OFFCURVE",
"126 479 OFFCURVE",
"142 480 CURVE SMOOTH",
"224 487 LINE SMOOTH",
"283 492 OFFCURVE",
"283 489 OFFCURVE",
"347 492 CURVE SMOOTH",
"359 492 OFFCURVE",
"357 489 OFFCURVE",
"357 480 CURVE SMOOTH",
"350 383 LINE",
"264 375 OFFCURVE",
"152 376 OFFCURVE",
"128 379 CURVE SMOOTH",
"119 380 OFFCURVE",
"113 370 OFFCURVE",
"116 366 CURVE",
"125 343 OFFCURVE",
"128 326 OFFCURVE",
"128 303 CURVE SMOOTH",
"128 228 LINE SMOOTH",
"127 183 OFFCURVE",
"144 150 OFFCURVE",
"169 147 CURVE",
"233 144 OFFCURVE",
"386 170 OFFCURVE",
"446 199 CURVE SMOOTH",
"455 203 OFFCURVE",
"458 209 OFFCURVE",
"457 218 CURVE SMOOTH",
"451 247 LINE SMOOTH",
"450 253 OFFCURVE",
"446 255 OFFCURVE",
"441 252 CURVE SMOOTH",
"378 220 OFFCURVE",
"256 205 OFFCURVE",
"208 208 CURVE SMOOTH",
"193 209 OFFCURVE",
"192 228 OFFCURVE",
"192 255 CURVE SMOOTH",
"192 326 LINE"
);
},
{
closed = 1;
nodes = (
"443 124 LINE SMOOTH",
"451 118 OFFCURVE",
"459 119 OFFCURVE",
"468 127 CURVE SMOOTH",
"535 183 OFFCURVE",
"583 263 OFFCURVE",
"618 339 CURVE",
"677 286 OFFCURVE",
"737 204 OFFCURVE",
"777 139 CURVE SMOOTH",
"780 135 OFFCURVE",
"784 134 OFFCURVE",
"789 137 CURVE SMOOTH",
"806 149 OFFCURVE",
"813 156 OFFCURVE",
"828 173 CURVE SMOOTH",
"837 184 OFFCURVE",
"832 191 OFFCURVE",
"827 200 CURVE",
"795 240 OFFCURVE",
"715 319 OFFCURVE",
"637 386 CURVE",
"645 405 OFFCURVE",
"650 422 OFFCURVE",
"657 438 CURVE SMOOTH",
"669 471 OFFCURVE",
"677 503 OFFCURVE",
"688 536 CURVE SMOOTH",
"689 539 OFFCURVE",
"688 547 OFFCURVE",
"681 544 CURVE",
"613 561 LINE SMOOTH",
"609 562 OFFCURVE",
"601 561 OFFCURVE",
"602 552 CURVE",
"609 521 OFFCURVE",
"600 473 OFFCURVE",
"587 433 CURVE SMOOTH",
"550 332 OFFCURVE",
"492 210 OFFCURVE",
"414 154 CURVE",
"411 151 OFFCURVE",
"409 146 OFFCURVE",
"413 143 CURVE SMOOTH"
);
}
);
width = 900;
}
);
note = cid00370;
unicode = 313D;
},
{
glyphname = "rieulThieuthCompa-ko";
lastChange = "2019-11-29 11:50:09 +0000";
layers = (
{
layerId = "210D674B-AD98-4874-A618-1698A23DB8A1";
paths = (
{
closed = 1;
nodes = (
"468 247 LINE SMOOTH",
"468 206 OFFCURVE",
"478 164 OFFCURVE",
"528 164 CURVE SMOOTH",
"589 163 OFFCURVE",
"659 165 OFFCURVE",
"774 168 CURVE SMOOTH",
"794 168 OFFCURVE",
"794 173 OFFCURVE",
"794 180 CURVE",
"788 222 LINE SMOOTH",
"787 229 OFFCURVE",
"784 235 OFFCURVE",
"769 232 CURVE SMOOTH",
"734 224 OFFCURVE",
"703 223 OFFCURVE",
"671 220 CURVE SMOOTH",
"652 219 OFFCURVE",
"619 217 OFFCURVE",
"559 217 CURVE SMOOTH",
"543 217 OFFCURVE",
"534 216 OFFCURVE",
"534 256 CURVE SMOOTH",
"534 338 LINE",
"590 341 OFFCURVE",
"712 341 OFFCURVE",
"743 341 CURVE SMOOTH",
"758 340 OFFCURVE",
"757 350 OFFCURVE",
"757 354 CURVE SMOOTH",
"757 369 OFFCURVE",
"757 372 OFFCURVE",
"754 387 CURVE SMOOTH",
"753 394 OFFCURVE",
"753 399 OFFCURVE",
"738 396 CURVE SMOOTH",
"672 388 OFFCURVE",
"572 387 OFFCURVE",
"534 387 CURVE",
"535 495 LINE",
"582 498 OFFCURVE",
"634 499 OFFCURVE",
"685 500 CURVE SMOOTH",
"714 500 OFFCURVE",
"727 499 OFFCURVE",
"754 499 CURVE SMOOTH",
"765 499 OFFCURVE",
"767 505 OFFCURVE",
"767 512 CURVE SMOOTH",
"767 517 OFFCURVE",
"767 521 OFFCURVE",
"766 526 CURVE SMOOTH",
"762 552 LINE SMOOTH",
"761 560 OFFCURVE",
"753 561 OFFCURVE",
"749 560 CURVE SMOOTH",
"717 555 OFFCURVE",
"615 547 OFFCURVE",
"535 547 CURVE SMOOTH",
"510 547 OFFCURVE",
"477 549 OFFCURVE",
"466 549 CURVE SMOOTH",
"459 549 OFFCURVE",
"454 543 OFFCURVE",
"458 534 CURVE SMOOTH",
"465 519 OFFCURVE",
"469 487 OFFCURVE",
"469 436 CURVE SMOOTH"
);
},
{
closed = 1;
nodes = (
"386 337 OFFCURVE",
"394 339 OFFCURVE",
"395 354 CURVE SMOOTH",
"399 419 OFFCURVE",
"402 467 OFFCURVE",
"410 532 CURVE SMOOTH",
"410 535 OFFCURVE",
"410 540 OFFCURVE",
"403 541 CURVE SMOOTH",
"356 549 LINE SMOOTH",
"349 550 OFFCURVE",
"347 549 OFFCURVE",
"340 548 CURVE SMOOTH",
"276 540 OFFCURVE",
"183 533 OFFCURVE",
"124 541 CURVE",
"117 544 OFFCURVE",
"114 537 OFFCURVE",
"115 534 CURVE",
"121 494 LINE",
"124 485 OFFCURVE",
"126 479 OFFCURVE",
"142 480 CURVE SMOOTH",
"225 488 LINE SMOOTH",
"259 491 OFFCURVE",
"310 492 OFFCURVE",
"329 492 CURVE SMOOTH",
"342 491 OFFCURVE",
"344 491 OFFCURVE",
"344 480 CURVE SMOOTH",
"343 386 LINE",
"255 378 OFFCURVE",
"155 378 OFFCURVE",
"131 381 CURVE SMOOTH",
"120 382 OFFCURVE",
"116 373 OFFCURVE",
"119 368 CURVE",
"128 345 OFFCURVE",
"129 323 OFFCURVE",
"129 299 CURVE SMOOTH",
"129 224 LINE SMOOTH",
"128 177 OFFCURVE",
"144 145 OFFCURVE",
"169 142 CURVE",
"233 139 OFFCURVE",
"378 164 OFFCURVE",
"438 193 CURVE",
"449 197 OFFCURVE",
"450 205 OFFCURVE",
"449 212 CURVE SMOOTH",
"443 242 LINE SMOOTH",
"442 249 OFFCURVE",
"440 245 OFFCURVE",
"433 242 CURVE SMOOTH",
"369 212 OFFCURVE",
"256 200 OFFCURVE",
"209 203 CURVE SMOOTH",
"193 204 OFFCURVE",
"192 218 OFFCURVE",
"192 245 CURVE SMOOTH",
"192 330 LINE",
"309 333 OFFCURVE",
"281 334 OFFCURVE",
"378 337 CURVE SMOOTH"
);
}
);
width = 900;
}
);
note = cid00371;
unicode = 313E;
},
{
glyphname = "rieulPhieuphCompa-ko";
lastChange = "2019-11-29 11:50:09 +0000";
layers = (
{
layerId = "210D674B-AD98-4874-A618-1698A23DB8A1";
paths = (
{
closed = 1;
nodes = (
"360 332 OFFCURVE",
"367 334 OFFCURVE",
"370 349 CURVE",
"374 413 OFFCURVE",
"377 465 OFFCURVE",
"385 529 CURVE SMOOTH",
"385 532 OFFCURVE",
"385 538 OFFCURVE",
"378 539 CURVE SMOOTH",
"330 547 LINE SMOOTH",
"326 548 OFFCURVE",
"321 547 OFFCURVE",
"314 545 CURVE",
"251 537 OFFCURVE",
"161 531 OFFCURVE",
"101 539 CURVE SMOOTH",
"94 540 OFFCURVE",
"91 535 OFFCURVE",
"92 531 CURVE SMOOTH",
"99 494 LINE",
"102 485 OFFCURVE",
"103 477 OFFCURVE",
"119 480 CURVE",
"202 487 LINE SMOOTH",
"260 490 OFFCURVE",
"244 491 OFFCURVE",
"307 491 CURVE SMOOTH",
"320 491 OFFCURVE",
"318 489 OFFCURVE",
"318 480 CURVE SMOOTH",
"314 381 LINE",
"227 373 OFFCURVE",
"129 374 OFFCURVE",
"105 377 CURVE SMOOTH",
"96 378 OFFCURVE",
"90 368 OFFCURVE",
"93 364 CURVE",
"102 341 OFFCURVE",
"105 325 OFFCURVE",
"105 302 CURVE SMOOTH",
"105 229 LINE SMOOTH",
"104 184 OFFCURVE",
"121 151 OFFCURVE",
"146 148 CURVE",
"210 145 OFFCURVE",
"341 166 OFFCURVE",
"402 195 CURVE SMOOTH",
"411 199 OFFCURVE",
"413 206 OFFCURVE",
"412 213 CURVE SMOOTH",
"407 242 LINE SMOOTH",
"406 249 OFFCURVE",
"403 251 OFFCURVE",
"396 248 CURVE SMOOTH",
"333 216 OFFCURVE",
"233 205 OFFCURVE",
"185 208 CURVE SMOOTH",
"170 209 OFFCURVE",
"169 228 OFFCURVE",
"169 255 CURVE SMOOTH",
"169 325 LINE",
"284 328 OFFCURVE",
"256 329 OFFCURVE",
"352 332 CURVE SMOOTH"
);
},
{
closed = 1;
nodes = (
"811 171 OFFCURVE",
"815 175 OFFCURVE",
"814 183 CURVE SMOOTH",
"812 200 LINE",
"808 230 LINE SMOOTH",
"807 237 OFFCURVE",
"800 238 OFFCURVE",
"795 237 CURVE SMOOTH",
"772 233 OFFCURVE",
"747 229 OFFCURVE",
"712 226 CURVE",
"715 269 OFFCURVE",
"716 316 OFFCURVE",
"719 347 CURVE SMOOTH",
"723 380 OFFCURVE",
"726 428 OFFCURVE",
"729 451 CURVE SMOOTH",
"730 457 OFFCURVE",
"729 461 OFFCURVE",
"724 462 CURVE SMOOTH",
"719 462 OFFCURVE",
"674 464 OFFCURVE",
"664 464 CURVE SMOOTH",
"657 464 OFFCURVE",
"653 462 OFFCURVE",
"656 455 CURVE SMOOTH",
"661 447 OFFCURVE",
"665 389 OFFCURVE",
"662 345 CURVE SMOOTH",
"659 285 OFFCURVE",
"658 249 OFFCURVE",
"657 222 CURVE",
"641 221 OFFCURVE",
"623 220 OFFCURVE",
"604 220 CURVE SMOOTH",
"563 220 LINE",
"562 260 OFFCURVE",
"562 297 OFFCURVE",
"562 328 CURVE SMOOTH",
"562 445 LINE SMOOTH",
"562 448 OFFCURVE",
"560 451 OFFCURVE",
"557 453 CURVE",
"552 453 OFFCURVE",
"507 454 OFFCURVE",
"496 454 CURVE SMOOTH",
"489 454 OFFCURVE",
"485 450 OFFCURVE",
"488 443 CURVE SMOOTH",
"496 428 OFFCURVE",
"503 377 OFFCURVE",
"506 322 CURVE SMOOTH",
"509 265 OFFCURVE",
"509 241 OFFCURVE",
"510 220 CURVE",
"475 221 OFFCURVE",
"447 222 OFFCURVE",
"432 225 CURVE SMOOTH",
"425 226 OFFCURVE",
"422 221 OFFCURVE",
"423 217 CURVE SMOOTH",
"428 194 OFFCURVE",
"428 189 OFFCURVE",
"433 172 CURVE SMOOTH",
"436 164 OFFCURVE",
"437 159 OFFCURVE",
"453 160 CURVE SMOOTH",
"488 164 OFFCURVE",
"513 165 OFFCURVE",
"548 168 CURVE SMOOTH",
"546 168 OFFCURVE",
"678 172 OFFCURVE",
"711 172 CURVE SMOOTH",
"738 172 OFFCURVE",
"774 172 OFFCURVE",
"801 171 CURVE SMOOTH"
);
},
{
closed = 1;
nodes = (
"791 485 OFFCURVE",
"793 493 OFFCURVE",
"792 498 CURVE SMOOTH",
"792 504 OFFCURVE",
"792 510 OFFCURVE",
"791 515 CURVE SMOOTH",
"787 543 LINE SMOOTH",
"786 551 OFFCURVE",
"779 552 OFFCURVE",
"775 551 CURVE SMOOTH",
"754 547 OFFCURVE",
"723 542 OFFCURVE",
"684 539 CURVE SMOOTH",
"619 534 OFFCURVE",
"585 531 OFFCURVE",
"517 531 CURVE SMOOTH",
"478 531 OFFCURVE",
"448 532 OFFCURVE",
"424 535 CURVE SMOOTH",
"419 535 OFFCURVE",
"417 530 OFFCURVE",
"417 526 CURVE",
"420 507 OFFCURVE",
"422 495 OFFCURVE",
"426 478 CURVE",
"429 471 OFFCURVE",
"431 471 OFFCURVE",
"443 472 CURVE SMOOTH",
"482 476 OFFCURVE",
"511 480 OFFCURVE",
"539 481 CURVE SMOOTH",
"611 484 OFFCURVE",
"610 486 OFFCURVE",
"687 486 CURVE SMOOTH",
"712 486 OFFCURVE",
"757 486 OFFCURVE",
"780 485 CURVE SMOOTH"
);
}
);
width = 900;
}
);
note = cid00372;
unicode = 313F;
},
{
glyphname = "rieulHieuhCompa-ko";
lastChange = "2019-11-29 11:50:09 +0000";
layers = (
{
layerId = "210D674B-AD98-4874-A618-1698A23DB8A1";
paths = (
{
closed = 1;
nodes = (
"730 377 OFFCURVE",
"787 321 OFFCURVE",
"787 247 CURVE SMOOTH",
"787 182 OFFCURVE",
"730 117 OFFCURVE",
"626 114 CURVE SMOOTH",
"522 111 OFFCURVE",
"466 181 OFFCURVE",
"466 241 CURVE SMOOTH",
"466 305 OFFCURVE",
"514 371 OFFCURVE",
"630 374 CURVE SMOOTH"
);
},
{
closed = 1;
nodes = (
"104 338 OFFCURVE",
"107 321 OFFCURVE",
"107 298 CURVE SMOOTH",
"107 224 LINE SMOOTH",
"106 179 OFFCURVE",
"124 146 OFFCURVE",
"148 143 CURVE",
"212 140 OFFCURVE",
"366 165 OFFCURVE",
"426 194 CURVE",
"437 198 OFFCURVE",
"438 205 OFFCURVE",
"437 212 CURVE SMOOTH",
"432 241 LINE SMOOTH",
"431 248 OFFCURVE",
"427 250 OFFCURVE",
"421 247 CURVE SMOOTH",
"358 215 OFFCURVE",
"236 200 OFFCURVE",
"188 203 CURVE SMOOTH",
"173 204 OFFCURVE",
"172 224 OFFCURVE",
"172 251 CURVE SMOOTH",
"172 321 LINE",
"286 324 OFFCURVE",
"263 325 OFFCURVE",
"360 328 CURVE SMOOTH",
"367 328 OFFCURVE",
"376 330 OFFCURVE",
"377 345 CURVE SMOOTH",
"381 409 OFFCURVE",
"385 456 OFFCURVE",
"392 520 CURVE SMOOTH",
"392 523 OFFCURVE",
"393 527 OFFCURVE",
"386 530 CURVE",
"338 537 LINE SMOOTH",
"331 538 OFFCURVE",
"328 537 OFFCURVE",
"321 536 CURVE SMOOTH",
"258 528 OFFCURVE",
"163 522 OFFCURVE",
"103 530 CURVE SMOOTH",
"96 531 OFFCURVE",
"94 525 OFFCURVE",
"95 522 CURVE",
"101 483 LINE",
"104 474 OFFCURVE",
"105 468 OFFCURVE",
"121 469 CURVE SMOOTH",
"204 477 LINE SMOOTH",
"263 480 OFFCURVE",
"250 481 OFFCURVE",
"314 481 CURVE SMOOTH",
"327 481 OFFCURVE",
"325 480 OFFCURVE",
"325 469 CURVE SMOOTH",
"318 378 LINE",
"232 370 OFFCURVE",
"131 371 OFFCURVE",
"107 374 CURVE SMOOTH",
"98 375 OFFCURVE",
"93 365 OFFCURVE",
"96 361 CURVE"
);
},
{
closed = 1;
nodes = (
"686 167 OFFCURVE",
"722 204 OFFCURVE",
"725 249 CURVE SMOOTH",
"728 286 OFFCURVE",
"699 332 OFFCURVE",
"630 332 CURVE SMOOTH",
"558 329 OFFCURVE",
"526 289 OFFCURVE",
"526 245 CURVE SMOOTH",
"526 204 OFFCURVE",
"567 166 OFFCURVE",
"626 166 CURVE SMOOTH"
);
},
{
closed = 1;
nodes = (
"805 417 OFFCURVE",
"758 418 OFFCURVE",
"733 418 CURVE SMOOTH",
"654 418 OFFCURVE",
"541 410 OFFCURVE",
"433 399 CURVE SMOOTH",
"420 398 OFFCURVE",
"419 399 OFFCURVE",
"416 406 CURVE SMOOTH",
"411 422 OFFCURVE",
"409 435 OFFCURVE",
"404 455 CURVE SMOOTH",
"403 458 OFFCURVE",
"406 461 OFFCURVE",
"411 461 CURVE SMOOTH",
"552 453 OFFCURVE",
"669 461 OFFCURVE",
"729 468 CURVE SMOOTH",
"773 473 OFFCURVE",
"793 476 OFFCURVE",
"822 483 CURVE SMOOTH",
"827 484 OFFCURVE",
"833 483 OFFCURVE",
"834 475 CURVE SMOOTH",
"838 447 LINE SMOOTH",
"839 442 OFFCURVE",
"839 436 OFFCURVE",
"839 431 CURVE SMOOTH",
"840 424 OFFCURVE",
"837 417 OFFCURVE",
"828 417 CURVE SMOOTH"
);
},
{
closed = 1;
nodes = (
"492 585 OFFCURVE",
"481 551 OFFCURVE",
"488 546 CURVE SMOOTH",
"522 525 OFFCURVE",
"583 520 OFFCURVE",
"611 520 CURVE SMOOTH",
"667 520 OFFCURVE",
"735 525 OFFCURVE",
"747 531 CURVE",
"756 534 OFFCURVE",
"755 569 OFFCURVE",
"755 579 CURVE",
"754 584 OFFCURVE",
"753 587 OFFCURVE",
"742 584 CURVE",
"693 576 OFFCURVE",
"621 571 OFFCURVE",
"502 582 CURVE"
);
}
);
width = 900;
}
);
note = cid00373;
unicode = 3140;
},
{
glyphname = "mieumCompa-ko";
lastChange = "2019-11-29 11:50:09 +0000";
layers = (
{
layerId = "210D674B-AD98-4874-A618-1698A23DB8A1";
paths = (
{
closed = 1;
nodes = (
"199 539 OFFCURVE",
"192 531 OFFCURVE",
"197 523 CURVE SMOOTH",
"205 512 OFFCURVE",
"213 460 OFFCURVE",
"216 424 CURVE SMOOTH",
"227 208 OFFCURVE",
"225 163 OFFCURVE",
"225 150 CURVE SMOOTH",
"225 143 OFFCURVE",
"230 143 OFFCURVE",
"233 143 CURVE SMOOTH",
"236 143 OFFCURVE",
"271 148 OFFCURVE",
"284 148 CURVE SMOOTH",
"355 152 OFFCURVE",
"642 154 OFFCURVE",
"674 154 CURVE SMOOTH",
"681 154 OFFCURVE",
"689 160 OFFCURVE",
"689 167 CURVE SMOOTH",
"692 247 OFFCURVE",
"697 334 OFFCURVE",
"704 417 CURVE",
"707 435 OFFCURVE",
"714 502 OFFCURVE",
"719 531 CURVE SMOOTH",
"720 538 OFFCURVE",
"720 540 OFFCURVE",
"713 543 CURVE",
"662 554 LINE SMOOTH",
"651 557 OFFCURVE",
"648 555 OFFCURVE",
"641 554 CURVE SMOOTH",
"565 541 OFFCURVE",
"381 537 OFFCURVE",
"274 537 CURVE SMOOTH",
"253 537 OFFCURVE",
"227 539 OFFCURVE",
"206 539 CURVE SMOOTH"
);
},
{
closed = 1;
nodes = (
"277 485 LINE",
"634 495 LINE SMOOTH",
"641 495 OFFCURVE",
"644 492 OFFCURVE",
"643 485 CURVE",
"632 211 LINE",
"563 203 OFFCURVE",
"354 200 OFFCURVE",
"283 203 CURVE"
);
}
);
width = 900;
}
);
note = cid00374;
unicode = 3141;
},
{
glyphname = "pieupCompa-ko";
lastChange = "2019-11-29 11:50:09 +0000";
layers = (
{
layerId = "210D674B-AD98-4874-A618-1698A23DB8A1";
paths = (
{
closed = 1;
nodes = (
"288 552 OFFCURVE",
"286 555 OFFCURVE",
"283 555 CURVE SMOOTH",
"218 555 LINE SMOOTH",
"211 555 OFFCURVE",
"209 552 OFFCURVE",
"211 545 CURVE SMOOTH",
"215 532 OFFCURVE",
"224 482 OFFCURVE",
"225 422 CURVE SMOOTH",
"228 204 OFFCURVE",
"226 141 OFFCURVE",
"226 133 CURVE SMOOTH",
"226 126 OFFCURVE",
"231 126 OFFCURVE",
"234 126 CURVE SMOOTH",
"237 126 OFFCURVE",
"277 131 OFFCURVE",
"289 131 CURVE SMOOTH",
"361 131 OFFCURVE",
"510 138 OFFCURVE",
"683 138 CURVE SMOOTH",
"690 138 OFFCURVE",
"699 142 OFFCURVE",
"699 151 CURVE SMOOTH",
"700 452 LINE SMOOTH",
"700 500 OFFCURVE",
"703 516 OFFCURVE",
"703 569 CURVE SMOOTH",
"703 575 OFFCURVE",
"701 578 OFFCURVE",
"698 579 CURVE",
"693 579 OFFCURVE",
"645 580 OFFCURVE",
"635 580 CURVE SMOOTH",
"630 580 OFFCURVE",
"625 577 OFFCURVE",
"628 570 CURVE SMOOTH",
"635 555 OFFCURVE",
"638 523 OFFCURVE",
"638 474 CURVE SMOOTH",
"637 413 LINE",
"541 405 OFFCURVE",
"358 398 OFFCURVE",
"288 401 CURVE",
"288 438 LINE SMOOTH",
"288 473 OFFCURVE",
"287 509 OFFCURVE",
"288 545 CURVE SMOOTH"
);
},
{
closed = 1;
nodes = (
"637 194 LINE",
"536 186 OFFCURVE",
"377 182 OFFCURVE",
"289 185 CURVE",
"288 348 LINE",
"358 351 OFFCURVE",
"519 355 OFFCURVE",
"637 358 CURVE"
);
}
);
width = 900;
}
);
note = cid00375;
unicode = 3142;
},
{
glyphname = "ssangpieupCompa-ko";
lastChange = "2019-11-29 11:50:09 +0000";
layers = (
{
layerId = "210D674B-AD98-4874-A618-1698A23DB8A1";
paths = (
{
closed = 1;
nodes = (
"568 438 LINE SMOOTH",
"568 474 OFFCURVE",
"569 512 OFFCURVE",
"569 548 CURVE SMOOTH",
"569 555 OFFCURVE",
"567 558 OFFCURVE",
"564 558 CURVE SMOOTH",
"503 558 LINE SMOOTH",
"498 558 OFFCURVE",
"493 555 OFFCURVE",
"496 548 CURVE SMOOTH",
"503 533 OFFCURVE",
"507 487 OFFCURVE",
"508 427 CURVE SMOOTH",
"511 203 OFFCURVE",
"506 156 OFFCURVE",
"506 147 CURVE SMOOTH",
"506 140 OFFCURVE",
"512 140 OFFCURVE",
"515 140 CURVE SMOOTH",
"519 140 OFFCURVE",
"554 144 OFFCURVE",
"567 144 CURVE SMOOTH",
"637 144 OFFCURVE",
"738 145 OFFCURVE",
"778 145 CURVE SMOOTH",
"785 145 OFFCURVE",
"794 149 OFFCURVE",
"794 158 CURVE SMOOTH",
"794 438 LINE SMOOTH",
"794 487 OFFCURVE",
"794 502 OFFCURVE",
"797 558 CURVE SMOOTH",
"797 565 OFFCURVE",
"795 568 OFFCURVE",
"792 569 CURVE",
"787 569 OFFCURVE",
"742 570 OFFCURVE",
"732 570 CURVE SMOOTH",
"727 570 OFFCURVE",
"722 567 OFFCURVE",
"725 559 CURVE SMOOTH",
"732 544 OFFCURVE",
"735 512 OFFCURVE",
"735 462 CURVE SMOOTH",
"735 408 LINE",
"680 403 OFFCURVE",
"604 405 OFFCURVE",
"568 405 CURVE"
);
},
{
closed = 1;
nodes = (
"195 540 OFFCURVE",
"193 543 OFFCURVE",
"190 543 CURVE SMOOTH",
"128 543 LINE SMOOTH",
"121 543 OFFCURVE",
"119 540 OFFCURVE",
"121 533 CURVE SMOOTH",
"125 518 OFFCURVE",
"135 467 OFFCURVE",
"136 406 CURVE SMOOTH",
"141 194 OFFCURVE",
"140 152 OFFCURVE",
"140 143 CURVE SMOOTH",
"140 136 OFFCURVE",
"145 136 OFFCURVE",
"148 136 CURVE SMOOTH",
"152 136 OFFCURVE",
"188 140 OFFCURVE",
"200 140 CURVE SMOOTH",
"313 144 OFFCURVE",
"237 142 OFFCURVE",
"406 142 CURVE SMOOTH",
"413 142 OFFCURVE",
"422 146 OFFCURVE",
"422 155 CURVE SMOOTH",
"422 422 LINE SMOOTH",
"422 472 OFFCURVE",
"422 487 OFFCURVE",
"425 543 CURVE SMOOTH",
"425 549 OFFCURVE",
"423 552 OFFCURVE",
"420 553 CURVE",
"415 553 OFFCURVE",
"370 554 OFFCURVE",
"360 554 CURVE SMOOTH",
"355 554 OFFCURVE",
"350 551 OFFCURVE",
"353 544 CURVE SMOOTH",
"360 529 OFFCURVE",
"363 497 OFFCURVE",
"363 446 CURVE SMOOTH",
"363 397 LINE",
"308 392 OFFCURVE",
"227 394 OFFCURVE",
"195 394 CURVE",
"195 422 LINE SMOOTH",
"195 458 OFFCURVE",
"194 497 OFFCURVE",
"195 533 CURVE SMOOTH"
);
},
{
closed = 1;
nodes = (
"735 201 LINE",
"711 198 OFFCURVE",
"581 198 OFFCURVE",
"566 198 CURVE",
"567 351 LINE",
"615 354 OFFCURVE",
"679 354 OFFCURVE",
"735 354 CURVE"
);
},
{
closed = 1;
nodes = (
"363 197 LINE",
"337 192 OFFCURVE",
"214 193 OFFCURVE",
"198 193 CURVE",
"196 340 LINE",
"245 343 OFFCURVE",
"307 343 OFFCURVE",
"363 343 CURVE"
);
}
);
width = 900;
}
);
note = cid00376;
unicode = 3143;
},
{
glyphname = "pieupSiosCompa-ko";
lastChange = "2019-11-29 11:50:09 +0000";
layers = (
{
layerId = "210D674B-AD98-4874-A618-1698A23DB8A1";
paths = (
{
closed = 1;
nodes = (
"160 538 OFFCURVE",
"160 544 OFFCURVE",
"153 544 CURVE SMOOTH",
"93 544 LINE SMOOTH",
"87 544 OFFCURVE",
"85 540 OFFCURVE",
"86 533 CURVE SMOOTH",
"90 518 OFFCURVE",
"95 475 OFFCURVE",
"96 436 CURVE SMOOTH",
"99 366 OFFCURVE",
"98 192 OFFCURVE",
"98 160 CURVE SMOOTH",
"98 152 OFFCURVE",
"103 152 OFFCURVE",
"106 152 CURVE SMOOTH",
"109 152 OFFCURVE",
"147 155 OFFCURVE",
"161 155 CURVE SMOOTH",
"217 158 OFFCURVE",
"385 158 OFFCURVE",
"401 158 CURVE SMOOTH",
"408 158 OFFCURVE",
"417 164 OFFCURVE",
"417 172 CURVE SMOOTH",
"417 432 LINE SMOOTH",
"417 482 OFFCURVE",
"416 489 OFFCURVE",
"419 544 CURVE SMOOTH",
"419 549 OFFCURVE",
"418 555 OFFCURVE",
"413 555 CURVE SMOOTH",
"352 555 LINE SMOOTH",
"345 555 OFFCURVE",
"341 551 OFFCURVE",
"344 544 CURVE SMOOTH",
"351 528 OFFCURVE",
"352 488 OFFCURVE",
"352 433 CURVE SMOOTH",
"352 408 LINE",
"301 403 OFFCURVE",
"200 402 OFFCURVE",
"159 402 CURVE",
"159 435 LINE SMOOTH",
"159 474 OFFCURVE",
"159 494 OFFCURVE",
"160 533 CURVE SMOOTH"
);
},
{
closed = 1;
nodes = (
"448 113 LINE",
"458 108 OFFCURVE",
"468 109 OFFCURVE",
"477 116 CURVE SMOOTH",
"550 180 OFFCURVE",
"602 263 OFFCURVE",
"637 338 CURVE",
"694 281 OFFCURVE",
"759 195 OFFCURVE",
"794 136 CURVE SMOOTH",
"797 132 OFFCURVE",
"801 131 OFFCURVE",
"806 134 CURVE SMOOTH",
"823 146 OFFCURVE",
"835 158 OFFCURVE",
"850 173 CURVE SMOOTH",
"859 182 OFFCURVE",
"854 191 OFFCURVE",
"849 200 CURVE",
"815 242 OFFCURVE",
"738 317 OFFCURVE",
"658 386 CURVE",
"667 409 OFFCURVE",
"673 429 OFFCURVE",
"680 446 CURVE",
"709 544 LINE SMOOTH",
"710 548 OFFCURVE",
"710 554 OFFCURVE",
"702 555 CURVE SMOOTH",
"635 569 LINE SMOOTH",
"630 570 OFFCURVE",
"623 569 OFFCURVE",
"624 561 CURVE SMOOTH",
"629 530 OFFCURVE",
"624 482 OFFCURVE",
"611 442 CURVE SMOOTH",
"582 350 OFFCURVE",
"499 198 OFFCURVE",
"423 144 CURVE",
"420 141 OFFCURVE",
"417 137 OFFCURVE",
"422 134 CURVE"
);
},
{
closed = 1;
nodes = (
"159 350 LINE",
"219 353 OFFCURVE",
"288 355 OFFCURVE",
"352 355 CURVE",
"352 218 LINE",
"314 213 OFFCURVE",
"194 215 OFFCURVE",
"159 215 CURVE"
);
}
);
width = 900;
}
);
note = cid00377;
unicode = 3144;
},
{
glyphname = "siosCompa-ko";
lastChange = "2019-11-29 11:50:09 +0000";
layers = (
{
layerId = "210D674B-AD98-4874-A618-1698A23DB8A1";
paths = (
{
closed = 1;
nodes = (
"171 135 LINE SMOOTH",
"182 124 OFFCURVE",
"194 124 OFFCURVE",
"202 128 CURVE SMOOTH",
"325 195 OFFCURVE",
"403 282 OFFCURVE",
"451 352 CURVE",
"538 304 OFFCURVE",
"658 210 OFFCURVE",
"711 152 CURVE SMOOTH",
"715 147 OFFCURVE",
"719 147 OFFCURVE",
"723 151 CURVE SMOOTH",
"738 166 OFFCURVE",
"753 184 OFFCURVE",
"761 197 CURVE SMOOTH",
"768 208 OFFCURVE",
"758 216 OFFCURVE",
"751 221 CURVE SMOOTH",
"691 267 OFFCURVE",
"584 336 OFFCURVE",
"477 392 CURVE",
"495 421 LINE SMOOTH",
"514 457 OFFCURVE",
"538 511 OFFCURVE",
"551 537 CURVE",
"554 541 OFFCURVE",
"554 546 OFFCURVE",
"547 549 CURVE SMOOTH",
"480 573 LINE",
"471 575 OFFCURVE",
"467 572 OFFCURVE",
"467 565 CURVE SMOOTH",
"464 533 OFFCURVE",
"445 472 OFFCURVE",
"431 445 CURVE SMOOTH",
"392 364 OFFCURVE",
"288 225 OFFCURVE",
"153 167 CURVE",
"149 164 OFFCURVE",
"144 162 OFFCURVE",
"148 157 CURVE"
);
}
);
width = 900;
}
);
note = cid00378;
unicode = 3145;
},
{
glyphname = "ssangSiosCompa-ko";
lastChange = "2019-11-29 11:50:09 +0000";
layers = (
{
layerId = "210D674B-AD98-4874-A618-1698A23DB8A1";
paths = (
{
closed = 1;
nodes = (
"393 117 LINE",
"409 108 OFFCURVE",
"416 115 OFFCURVE",
"423 120 CURVE SMOOTH",
"508 191 OFFCURVE",
"567 271 OFFCURVE",
"604 342 CURVE",
"666 286 OFFCURVE",
"746 203 OFFCURVE",
"778 150 CURVE SMOOTH",
"781 145 OFFCURVE",
"784 144 OFFCURVE",
"788 147 CURVE SMOOTH",
"799 155 OFFCURVE",
"817 173 OFFCURVE",
"828 185 CURVE",
"841 196 OFFCURVE",
"831 205 OFFCURVE",
"823 214 CURVE SMOOTH",
"791 254 OFFCURVE",
"698 333 OFFCURVE",
"626 389 CURVE",
"633 405 OFFCURVE",
"639 420 OFFCURVE",
"643 433 CURVE SMOOTH",
"655 476 OFFCURVE",
"674 522 OFFCURVE",
"681 551 CURVE SMOOTH",
"682 556 OFFCURVE",
"680 559 OFFCURVE",
"676 561 CURVE",
"609 577 LINE SMOOTH",
"604 578 OFFCURVE",
"595 575 OFFCURVE",
"598 567 CURVE",
"598 536 OFFCURVE",
"589 484 OFFCURVE",
"577 444 CURVE SMOOTH",
"548 354 OFFCURVE",
"496 257 OFFCURVE",
"371 150 CURVE",
"366 147 OFFCURVE",
"362 142 OFFCURVE",
"366 138 CURVE"
);
},
{
closed = 1;
nodes = (
"94 160 LINE SMOOTH",
"105 149 OFFCURVE",
"114 153 OFFCURVE",
"123 160 CURVE SMOOTH",
"199 220 OFFCURVE",
"253 289 OFFCURVE",
"286 348 CURVE",
"329 313 OFFCURVE",
"374 274 OFFCURVE",
"405 227 CURVE",
"407 222 OFFCURVE",
"410 222 OFFCURVE",
"414 226 CURVE",
"429 237 OFFCURVE",
"435 241 OFFCURVE",
"450 256 CURVE SMOOTH",
"457 263 OFFCURVE",
"455 271 OFFCURVE",
"448 278 CURVE SMOOTH",
"413 314 OFFCURVE",
"360 351 OFFCURVE",
"309 390 CURVE",
"327 434 LINE SMOOTH",
"340 473 OFFCURVE",
"348 503 OFFCURVE",
"355 536 CURVE SMOOTH",
"357 543 OFFCURVE",
"356 547 OFFCURVE",
"351 549 CURVE",
"295 559 LINE SMOOTH",
"288 560 OFFCURVE",
"284 560 OFFCURVE",
"283 552 CURVE SMOOTH",
"282 529 OFFCURVE",
"278 492 OFFCURVE",
"267 449 CURVE SMOOTH",
"242 359 OFFCURVE",
"160 247 OFFCURVE",
"74 191 CURVE SMOOTH",
"69 188 OFFCURVE",
"66 184 OFFCURVE",
"71 180 CURVE SMOOTH"
);
}
);
width = 900;
}
);
note = cid00379;
unicode = 3146;
},
{
glyphname = "ieungCompa-ko";
lastChange = "2019-11-29 11:50:09 +0000";
layers = (
{
layerId = "210D674B-AD98-4874-A618-1698A23DB8A1";
paths = (
{
closed = 1;
nodes = (
"200 210 OFFCURVE",
"303 128 OFFCURVE",
"441 128 CURVE SMOOTH",
"582 128 OFFCURVE",
"686 212 OFFCURVE",
"694 350 CURVE SMOOTH",
"697 480 OFFCURVE",
"595 567 OFFCURVE",
"454 567 CURVE SMOOTH",
"315 564 OFFCURVE",
"206 471 OFFCURVE",
"203 347 CURVE SMOOTH"
);
},
{
closed = 1;
nodes = (
"273 435 OFFCURVE",
"335 516 OFFCURVE",
"451 516 CURVE SMOOTH",
"561 516 OFFCURVE",
"629 449 OFFCURVE",
"626 350 CURVE SMOOTH",
"621 243 OFFCURVE",
"547 182 OFFCURVE",
"443 179 CURVE SMOOTH",
"343 176 OFFCURVE",
"267 246 OFFCURVE",
"270 347 CURVE SMOOTH"
);
}
);
width = 900;
}
);
note = cid00380;
unicode = 3147;
},
{
glyphname = "cieucCompa-ko";
lastChange = "2019-11-29 11:50:09 +0000";
layers = (
{
layerId = "210D674B-AD98-4874-A618-1698A23DB8A1";
paths = (
{
closed = 1;
nodes = (
"713 502 OFFCURVE",
"717 506 OFFCURVE",
"716 513 CURVE SMOOTH",
"714 533 LINE SMOOTH",
"713 544 OFFCURVE",
"710 556 OFFCURVE",
"709 564 CURVE SMOOTH",
"708 571 OFFCURVE",
"701 572 OFFCURVE",
"698 571 CURVE",
"559 547 OFFCURVE",
"286 540 OFFCURVE",
"204 548 CURVE SMOOTH",
"199 549 OFFCURVE",
"196 544 OFFCURVE",
"197 541 CURVE SMOOTH",
"208 494 LINE",
"211 486 OFFCURVE",
"213 479 OFFCURVE",
"228 480 CURVE SMOOTH",
"378 493 LINE SMOOTH",
"387 493 OFFCURVE",
"410 494 OFFCURVE",
"438 497 CURVE",
"419 385 OFFCURVE",
"331 250 OFFCURVE",
"175 176 CURVE",
"171 173 OFFCURVE",
"163 171 OFFCURVE",
"168 164 CURVE",
"189 143 LINE SMOOTH",
"201 130 OFFCURVE",
"213 132 OFFCURVE",
"221 136 CURVE SMOOTH",
"308 185 OFFCURVE",
"386 253 OFFCURVE",
"442 334 CURVE",
"521 289 OFFCURVE",
"615 214 OFFCURVE",
"672 157 CURVE",
"676 152 OFFCURVE",
"680 152 OFFCURVE",
"683 157 CURVE",
"700 174 OFFCURVE",
"713 190 OFFCURVE",
"720 204 CURVE SMOOTH",
"727 215 OFFCURVE",
"717 222 OFFCURVE",
"710 227 CURVE SMOOTH",
"646 272 OFFCURVE",
"565 320 OFFCURVE",
"466 371 CURVE",
"489 411 OFFCURVE",
"504 453 OFFCURVE",
"511 500 CURVE",
"538 501 OFFCURVE",
"563 501 OFFCURVE",
"582 501 CURVE SMOOTH",
"608 501 OFFCURVE",
"679 502 OFFCURVE",
"704 502 CURVE SMOOTH"
);
}
);
width = 900;
}
);
note = cid00381;
unicode = 3148;
},
{
glyphname = "ssangcieucCompa-ko";
lastChange = "2019-11-29 11:50:09 +0000";
layers = (
{
layerId = "210D674B-AD98-4874-A618-1698A23DB8A1";
paths = (
{
closed = 1;
nodes = (
"785 494 OFFCURVE",
"789 498 OFFCURVE",
"788 505 CURVE SMOOTH",
"780 553 LINE SMOOTH",
"779 560 OFFCURVE",
"772 561 OFFCURVE",
"768 560 CURVE SMOOTH",
"682 544 OFFCURVE",
"516 540 OFFCURVE",
"455 545 CURVE SMOOTH",
"448 546 OFFCURVE",
"446 540 OFFCURVE",
"447 537 CURVE SMOOTH",
"455 514 OFFCURVE",
"455 510 OFFCURVE",
"462 495 CURVE SMOOTH",
"466 487 OFFCURVE",
"469 479 OFFCURVE",
"482 482 CURVE SMOOTH",
"510 487 OFFCURVE",
"548 489 OFFCURVE",
"587 492 CURVE",
"573 387 OFFCURVE",
"525 259 OFFCURVE",
"372 146 CURVE SMOOTH",
"368 143 OFFCURVE",
"364 139 OFFCURVE",
"368 135 CURVE",
"395 115 LINE SMOOTH",
"410 104 OFFCURVE",
"418 112 OFFCURVE",
"425 117 CURVE SMOOTH",
"510 185 OFFCURVE",
"564 253 OFFCURVE",
"599 318 CURVE",
"661 269 OFFCURVE",
"735 203 OFFCURVE",
"773 152 CURVE SMOOTH",
"776 147 OFFCURVE",
"780 147 OFFCURVE",
"785 151 CURVE SMOOTH",
"796 160 OFFCURVE",
"807 173 OFFCURVE",
"818 185 CURVE SMOOTH",
"826 194 OFFCURVE",
"824 204 OFFCURVE",
"813 215 CURVE SMOOTH",
"778 247 OFFCURVE",
"690 310 OFFCURVE",
"618 358 CURVE",
"639 407 OFFCURVE",
"648 453 OFFCURVE",
"655 494 CURVE",
"714 495 OFFCURVE",
"763 494 OFFCURVE",
"775 494 CURVE SMOOTH"
);
},
{
closed = 1;
nodes = (
"418 484 OFFCURVE",
"422 488 OFFCURVE",
"421 495 CURVE SMOOTH",
"419 511 LINE SMOOTH",
"418 520 OFFCURVE",
"415 531 OFFCURVE",
"414 539 CURVE SMOOTH",
"413 546 OFFCURVE",
"406 547 OFFCURVE",
"402 546 CURVE SMOOTH",
"347 533 OFFCURVE",
"185 528 OFFCURVE",
"132 536 CURVE SMOOTH",
"125 537 OFFCURVE",
"122 531 OFFCURVE",
"123 528 CURVE SMOOTH",
"131 505 OFFCURVE",
"130 504 OFFCURVE",
"137 489 CURVE SMOOTH",
"141 478 OFFCURVE",
"144 473 OFFCURVE",
"160 476 CURVE SMOOTH",
"183 479 OFFCURVE",
"228 480 OFFCURVE",
"275 483 CURVE",
"270 402 OFFCURVE",
"211 279 OFFCURVE",
"101 212 CURVE SMOOTH",
"94 207 OFFCURVE",
"93 203 OFFCURVE",
"96 199 CURVE",
"119 179 LINE SMOOTH",
"130 168 OFFCURVE",
"140 173 OFFCURVE",
"149 178 CURVE",
"222 233 OFFCURVE",
"268 290 OFFCURVE",
"296 342 CURVE",
"336 311 OFFCURVE",
"375 275 OFFCURVE",
"406 234 CURVE SMOOTH",
"408 231 OFFCURVE",
"411 230 OFFCURVE",
"415 233 CURVE SMOOTH",
"428 244 OFFCURVE",
"435 247 OFFCURVE",
"450 262 CURVE SMOOTH",
"456 268 OFFCURVE",
"455 275 OFFCURVE",
"447 283 CURVE SMOOTH",
"414 315 OFFCURVE",
"366 347 OFFCURVE",
"315 382 CURVE",
"334 426 OFFCURVE",
"340 463 OFFCURVE",
"341 484 CURVE",
"372 485 OFFCURVE",
"398 484 OFFCURVE",
"409 484 CURVE SMOOTH"
);
}
);
width = 900;
}
);
note = cid00382;
unicode = 3149;
},
{
glyphname = "chieuchCompa-ko";
lastChange = "2019-11-29 11:50:09 +0000";
layers = (
{
layerId = "210D674B-AD98-4874-A618-1698A23DB8A1";
paths = (
{
closed = 1;
nodes = (
"678 419 OFFCURVE",
"603 418 OFFCURVE",
"575 418 CURVE SMOOTH",
"556 418 OFFCURVE",
"535 418 OFFCURVE",
"512 417 CURVE",
"501 380 OFFCURVE",
"487 347 OFFCURVE",
"468 316 CURVE",
"572 269 OFFCURVE",
"649 234 OFFCURVE",
"717 195 CURVE",
"728 190 OFFCURVE",
"732 182 OFFCURVE",
"729 172 CURVE SMOOTH",
"722 155 OFFCURVE",
"711 137 OFFCURVE",
"698 122 CURVE SMOOTH",
"694 117 OFFCURVE",
"690 117 OFFCURVE",
"686 121 CURVE SMOOTH",
"630 169 OFFCURVE",
"526 239 OFFCURVE",
"444 279 CURVE",
"388 203 OFFCURVE",
"311 149 OFFCURVE",
"223 106 CURVE SMOOTH",
"215 102 OFFCURVE",
"201 99 OFFCURVE",
"189 114 CURVE SMOOTH",
"172 137 LINE",
"167 142 OFFCURVE",
"175 145 OFFCURVE",
"179 148 CURVE",
"319 204 OFFCURVE",
"412 311 OFFCURVE",
"436 413 CURVE",
"409 412 OFFCURVE",
"387 410 OFFCURVE",
"376 409 CURVE SMOOTH",
"344 406 OFFCURVE",
"257 402 OFFCURVE",
"225 399 CURVE",
"210 396 OFFCURVE",
"208 404 OFFCURVE",
"205 412 CURVE SMOOTH",
"192 457 LINE SMOOTH",
"191 460 OFFCURVE",
"194 465 OFFCURVE",
"201 464 CURVE SMOOTH",
"294 456 OFFCURVE",
"547 460 OFFCURVE",
"696 487 CURVE SMOOTH",
"700 488 OFFCURVE",
"708 487 OFFCURVE",
"709 480 CURVE SMOOTH",
"710 472 OFFCURVE",
"713 460 OFFCURVE",
"714 449 CURVE SMOOTH",
"716 430 LINE SMOOTH",
"717 423 OFFCURVE",
"713 419 OFFCURVE",
"704 419 CURVE SMOOTH"
);
},
{
closed = 1;
nodes = (
"301 626 OFFCURVE",
"288 583 OFFCURVE",
"296 578 CURVE SMOOTH",
"329 559 OFFCURVE",
"404 554 OFFCURVE",
"435 551 CURVE SMOOTH",
"502 546 OFFCURVE",
"598 558 OFFCURVE",
"612 563 CURVE SMOOTH",
"621 566 OFFCURVE",
"619 599 OFFCURVE",
"619 609 CURVE SMOOTH",
"618 616 OFFCURVE",
"617 617 OFFCURVE",
"606 616 CURVE SMOOTH",
"540 608 OFFCURVE",
"407 602 OFFCURVE",
"312 623 CURVE SMOOTH"
);
}
);
width = 900;
}
);
note = cid00383;
unicode = 314A;
},
{
glyphname = "khieukhCompa-ko";
lastChange = "2019-11-29 11:50:09 +0000";
layers = (
{
layerId = "210D674B-AD98-4874-A618-1698A23DB8A1";
paths = (
{
closed = 1;
nodes = (
"654 207 OFFCURVE",
"680 360 OFFCURVE",
"696 451 CURVE SMOOTH",
"699 474 OFFCURVE",
"711 531 OFFCURVE",
"714 551 CURVE SMOOTH",
"715 556 OFFCURVE",
"713 560 OFFCURVE",
"707 562 CURVE",
"648 574 LINE SMOOTH",
"643 575 OFFCURVE",
"637 575 OFFCURVE",
"632 574 CURVE SMOOTH",
"555 558 OFFCURVE",
"298 547 OFFCURVE",
"205 555 CURVE SMOOTH",
"198 556 OFFCURVE",
"196 551 OFFCURVE",
"197 548 CURVE SMOOTH",
"204 525 OFFCURVE",
"204 520 OFFCURVE",
"209 505 CURVE SMOOTH",
"212 494 OFFCURVE",
"214 488 OFFCURVE",
"229 491 CURVE",
"261 494 OFFCURVE",
"331 498 OFFCURVE",
"363 501 CURVE SMOOTH",
"422 504 OFFCURVE",
"563 515 OFFCURVE",
"623 515 CURVE SMOOTH",
"634 515 OFFCURVE",
"633 513 OFFCURVE",
"633 504 CURVE SMOOTH",
"632 477 OFFCURVE",
"627 433 OFFCURVE",
"620 384 CURVE",
"545 368 OFFCURVE",
"421 352 OFFCURVE",
"369 349 CURVE SMOOTH",
"280 344 OFFCURVE",
"195 341 OFFCURVE",
"166 344 CURVE SMOOTH",
"159 345 OFFCURVE",
"157 340 OFFCURVE",
"158 337 CURVE SMOOTH",
"165 314 OFFCURVE",
"167 305 OFFCURVE",
"174 289 CURVE SMOOTH",
"178 280 OFFCURVE",
"180 275 OFFCURVE",
"195 278 CURVE SMOOTH",
"239 283 OFFCURVE",
"313 291 OFFCURVE",
"385 300 CURVE SMOOTH",
"427 303 OFFCURVE",
"540 319 OFFCURVE",
"613 333 CURVE",
"600 250 OFFCURVE",
"584 164 OFFCURVE",
"573 126 CURVE SMOOTH",
"570 117 OFFCURVE",
"575 116 OFFCURVE",
"579 116 CURVE SMOOTH",
"592 116 OFFCURVE",
"608 116 OFFCURVE",
"619 119 CURVE SMOOTH",
"627 122 OFFCURVE",
"631 123 OFFCURVE",
"638 147 CURVE SMOOTH"
);
}
);
width = 900;
}
);
note = cid00384;
unicode = 314B;
},
{
glyphname = "thieuthCompa-ko";
lastChange = "2019-11-29 11:50:09 +0000";
layers = (
{
layerId = "210D674B-AD98-4874-A618-1698A23DB8A1";
paths = (
{
closed = 1;
nodes = (
"689 139 LINE SMOOTH",
"708 139 OFFCURVE",
"710 142 OFFCURVE",
"710 150 CURVE SMOOTH",
"706 193 LINE SMOOTH",
"705 200 OFFCURVE",
"702 203 OFFCURVE",
"689 200 CURVE SMOOTH",
"656 193 OFFCURVE",
"600 187 OFFCURVE",
"528 184 CURVE SMOOTH",
"474 181 OFFCURVE",
"379 177 OFFCURVE",
"312 180 CURVE SMOOTH",
"289 181 OFFCURVE",
"285 189 OFFCURVE",
"285 230 CURVE SMOOTH",
"285 320 LINE",
"373 324 OFFCURVE",
"621 329 OFFCURVE",
"657 329 CURVE SMOOTH",
"674 329 OFFCURVE",
"674 332 OFFCURVE",
"674 339 CURVE SMOOTH",
"671 376 LINE SMOOTH",
"670 383 OFFCURVE",
"670 388 OFFCURVE",
"655 385 CURVE SMOOTH",
"596 377 OFFCURVE",
"436 366 OFFCURVE",
"285 369 CURVE",
"285 493 LINE",
"560 501 LINE SMOOTH",
"599 502 OFFCURVE",
"635 502 OFFCURVE",
"672 502 CURVE SMOOTH",
"681 502 OFFCURVE",
"685 506 OFFCURVE",
"684 515 CURVE SMOOTH",
"684 520 OFFCURVE",
"684 524 OFFCURVE",
"683 529 CURVE SMOOTH",
"679 555 LINE SMOOTH",
"678 562 OFFCURVE",
"671 562 OFFCURVE",
"667 562 CURVE SMOOTH",
"632 558 OFFCURVE",
"593 553 OFFCURVE",
"514 550 CURVE SMOOTH",
"413 546 OFFCURVE",
"341 543 OFFCURVE",
"285 544 CURVE SMOOTH",
"254 545 OFFCURVE",
"224 547 OFFCURVE",
"213 547 CURVE SMOOTH",
"208 547 OFFCURVE",
"203 540 OFFCURVE",
"207 532 CURVE SMOOTH",
"214 519 OFFCURVE",
"222 482 OFFCURVE",
"222 435 CURVE SMOOTH",
"222 219 LINE SMOOTH",
"221 155 OFFCURVE",
"238 130 OFFCURVE",
"285 131 CURVE SMOOTH"
);
}
);
width = 900;
}
);
note = cid00385;
unicode = 314C;
},
{
glyphname = "phieuphCompa-ko";
lastChange = "2019-11-29 11:50:09 +0000";
layers = (
{
layerId = "210D674B-AD98-4874-A618-1698A23DB8A1";
paths = (
{
closed = 1;
nodes = (
"744 131 OFFCURVE",
"748 135 OFFCURVE",
"747 142 CURVE SMOOTH",
"747 147 OFFCURVE",
"747 153 OFFCURVE",
"746 159 CURVE SMOOTH",
"742 188 LINE SMOOTH",
"741 195 OFFCURVE",
"734 196 OFFCURVE",
"730 195 CURVE SMOOTH",
"695 188 OFFCURVE",
"646 184 OFFCURVE",
"591 180 CURVE",
"604 344 LINE SMOOTH",
"607 379 OFFCURVE",
"610 410 OFFCURVE",
"614 445 CURVE SMOOTH",
"614 450 OFFCURVE",
"616 453 OFFCURVE",
"611 456 CURVE",
"606 456 OFFCURVE",
"554 459 OFFCURVE",
"544 459 CURVE SMOOTH",
"539 459 OFFCURVE",
"533 458 OFFCURVE",
"536 449 CURVE SMOOTH",
"541 436 OFFCURVE",
"542 376 OFFCURVE",
"539 341 CURVE SMOOTH",
"533 177 LINE",
"473 174 OFFCURVE",
"413 172 OFFCURVE",
"365 172 CURVE",
"358 331 LINE SMOOTH",
"355 366 OFFCURVE",
"355 399 OFFCURVE",
"354 434 CURVE SMOOTH",
"354 439 OFFCURVE",
"355 444 OFFCURVE",
"350 445 CURVE SMOOTH",
"346 445 OFFCURVE",
"293 443 OFFCURVE",
"282 443 CURVE",
"277 442 OFFCURVE",
"272 440 OFFCURVE",
"275 432 CURVE",
"283 419 OFFCURVE",
"292 358 OFFCURVE",
"295 321 CURVE SMOOTH",
"306 172 LINE",
"247 172 OFFCURVE",
"195 174 OFFCURVE",
"160 178 CURVE SMOOTH",
"153 179 OFFCURVE",
"151 174 OFFCURVE",
"152 171 CURVE SMOOTH",
"157 148 OFFCURVE",
"159 141 OFFCURVE",
"164 126 CURVE SMOOTH",
"167 118 OFFCURVE",
"170 110 OFFCURVE",
"185 113 CURVE SMOOTH",
"220 117 OFFCURVE",
"274 118 OFFCURVE",
"309 121 CURVE",
"335 121 OFFCURVE",
"565 130 OFFCURVE",
"593 130 CURVE SMOOTH",
"620 130 OFFCURVE",
"710 131 OFFCURVE",
"735 131 CURVE SMOOTH"
);
},
{
closed = 1;
nodes = (
"704 496 LINE SMOOTH",
"715 496 OFFCURVE",
"716 499 OFFCURVE",
"716 507 CURVE SMOOTH",
"715 527 OFFCURVE",
"714 538 OFFCURVE",
"711 553 CURVE SMOOTH",
"710 560 OFFCURVE",
"703 561 OFFCURVE",
"698 560 CURVE SMOOTH",
"557 540 OFFCURVE",
"254 533 OFFCURVE",
"181 541 CURVE SMOOTH",
"174 542 OFFCURVE",
"172 537 OFFCURVE",
"173 534 CURVE SMOOTH",
"178 511 OFFCURVE",
"180 505 OFFCURVE",
"185 489 CURVE SMOOTH",
"188 481 OFFCURVE",
"190 473 OFFCURVE",
"206 476 CURVE SMOOTH",
"238 479 OFFCURVE",
"334 484 OFFCURVE",
"367 487 CURVE SMOOTH",
"393 490 OFFCURVE",
"515 496 OFFCURVE",
"574 496 CURVE SMOOTH"
);
}
);
width = 900;
}
);
note = cid00386;
unicode = 314D;
},
{
glyphname = "hieuhCompa-ko";
lastChange = "2019-11-29 11:50:09 +0000";
layers = (
{
layerId = "210D674B-AD98-4874-A618-1698A23DB8A1";
paths = (
{
closed = 1;
nodes = (
"717 441 OFFCURVE",
"614 444 OFFCURVE",
"586 444 CURVE SMOOTH",
"528 444 OFFCURVE",
"378 437 OFFCURVE",
"352 434 CURVE SMOOTH",
"319 431 OFFCURVE",
"217 425 OFFCURVE",
"177 422 CURVE",
"162 419 OFFCURVE",
"160 427 OFFCURVE",
"157 435 CURVE SMOOTH",
"143 479 LINE SMOOTH",
"142 482 OFFCURVE",
"144 488 OFFCURVE",
"151 487 CURVE SMOOTH",
"247 479 OFFCURVE",
"590 482 OFFCURVE",
"742 510 CURVE SMOOTH",
"746 511 OFFCURVE",
"753 510 OFFCURVE",
"754 502 CURVE SMOOTH",
"758 471 LINE",
"760 452 LINE SMOOTH",
"761 445 OFFCURVE",
"757 441 OFFCURVE",
"748 441 CURVE SMOOTH"
);
},
{
closed = 1;
nodes = (
"576 386 OFFCURVE",
"658 324 OFFCURVE",
"655 231 CURVE SMOOTH",
"650 151 OFFCURVE",
"588 77 OFFCURVE",
"455 74 CURVE SMOOTH",
"328 71 OFFCURVE",
"258 153 OFFCURVE",
"261 232 CURVE SMOOTH",
"261 301 OFFCURVE",
"327 378 OFFCURVE",
"459 383 CURVE SMOOTH"
);
},
{
closed = 1;
nodes = (
"544 124 OFFCURVE",
"585 171 OFFCURVE",
"588 231 CURVE SMOOTH",
"591 278 OFFCURVE",
"556 340 OFFCURVE",
"461 340 CURVE SMOOTH",
"369 340 OFFCURVE",
"327 285 OFFCURVE",
"327 232 CURVE SMOOTH",
"327 169 OFFCURVE",
"371 118 OFFCURVE",
"455 121 CURVE SMOOTH"
);
},
{
closed = 1;
nodes = (
"286 639 OFFCURVE",
"274 600 OFFCURVE",
"282 595 CURVE SMOOTH",
"316 575 OFFCURVE",
"391 568 OFFCURVE",
"423 565 CURVE SMOOTH",
"490 560 OFFCURVE",
"590 570 OFFCURVE",
"604 576 CURVE SMOOTH",
"613 579 OFFCURVE",
"612 614 OFFCURVE",
"612 623 CURVE SMOOTH",
"611 630 OFFCURVE",
"610 631 OFFCURVE",
"597 630 CURVE SMOOTH",
"533 622 OFFCURVE",
"393 617 OFFCURVE",
"297 636 CURVE SMOOTH"
);
}
);
width = 900;
}
);
note = cid00387;
unicode = 314E;
},
{
glyphname = "aCompa-ko";
lastChange = "2019-11-29 11:50:09 +0000";
layers = (
{
layerId = "210D674B-AD98-4874-A618-1698A23DB8A1";
paths = (
{
closed = 1;
nodes = (
"466 -78 OFFCURVE",
"467 -77 OFFCURVE",
"467 -57 CURVE SMOOTH",
"467 341 LINE",
"523 341 OFFCURVE",
"600 343 OFFCURVE",
"631 340 CURVE SMOOTH",
"637 340 OFFCURVE",
"640 344 OFFCURVE",
"640 351 CURVE SMOOTH",
"639 368 OFFCURVE",
"638 386 OFFCURVE",
"635 403 CURVE SMOOTH",
"634 408 OFFCURVE",
"631 410 OFFCURVE",
"625 409 CURVE SMOOTH",
"597 401 OFFCURVE",
"521 393 OFFCURVE",
"467 393 CURVE",
"467 627 LINE SMOOTH",
"467 675 OFFCURVE",
"467 706 OFFCURVE",
"471 755 CURVE SMOOTH",
"471 760 OFFCURVE",
"469 762 OFFCURVE",
"466 763 CURVE",
"462 763 OFFCURVE",
"412 764 OFFCURVE",
"401 764 CURVE SMOOTH",
"396 764 OFFCURVE",
"391 761 OFFCURVE",
"394 754 CURVE SMOOTH",
"401 741 OFFCURVE",
"404 693 OFFCURVE",
"404 642 CURVE SMOOTH",
"404 -77 LINE SMOOTH",
"404 -80 OFFCURVE",
"405 -82 OFFCURVE",
"408 -82 CURVE SMOOTH",
"415 -82 OFFCURVE",
"452 -79 OFFCURVE",
"459 -79 CURVE SMOOTH"
);
}
);
width = 900;
}
);
note = cid00388;
unicode = 314F;
},
{
glyphname = "aeCompa-ko";
lastChange = "2019-11-29 11:50:09 +0000";
layers = (
{
layerId = "210D674B-AD98-4874-A618-1698A23DB8A1";
paths = (
{
closed = 1;
nodes = (
"375 -52 OFFCURVE",
"376 -51 OFFCURVE",
"376 -31 CURVE SMOOTH",
"376 356 LINE",
"411 359 OFFCURVE",
"464 359 OFFCURVE",
"507 359 CURVE",
"507 -77 LINE SMOOTH",
"507 -80 OFFCURVE",
"508 -82 OFFCURVE",
"511 -82 CURVE SMOOTH",
"518 -82 OFFCURVE",
"552 -79 OFFCURVE",
"559 -79 CURVE SMOOTH",
"566 -78 OFFCURVE",
"567 -77 OFFCURVE",
"567 -57 CURVE SMOOTH",
"567 627 LINE SMOOTH",
"567 675 OFFCURVE",
"566 706 OFFCURVE",
"570 755 CURVE SMOOTH",
"570 760 OFFCURVE",
"568 762 OFFCURVE",
"565 763 CURVE",
"560 763 OFFCURVE",
"517 764 OFFCURVE",
"506 764 CURVE SMOOTH",
"501 764 OFFCURVE",
"496 761 OFFCURVE",
"499 754 CURVE SMOOTH",
"506 741 OFFCURVE",
"507 693 OFFCURVE",
"507 642 CURVE SMOOTH",
"507 415 LINE",
"463 412 OFFCURVE",
"411 413 OFFCURVE",
"376 413 CURVE",
"376 601 LINE SMOOTH",
"376 649 OFFCURVE",
"375 680 OFFCURVE",
"378 729 CURVE SMOOTH",
"378 734 OFFCURVE",
"376 736 OFFCURVE",
"373 737 CURVE",
"368 737 OFFCURVE",
"325 738 OFFCURVE",
"314 738 CURVE SMOOTH",
"309 738 OFFCURVE",
"304 735 OFFCURVE",
"307 728 CURVE SMOOTH",
"314 715 OFFCURVE",
"316 667 OFFCURVE",
"316 616 CURVE SMOOTH",
"316 -51 LINE SMOOTH",
"316 -54 OFFCURVE",
"317 -56 OFFCURVE",
"320 -56 CURVE SMOOTH",
"327 -56 OFFCURVE",
"361 -53 OFFCURVE",
"368 -53 CURVE SMOOTH"
);
}
);
width = 900;
}
);
note = cid00389;
unicode = 3150;
},
{
glyphname = "yaCompa-ko";
lastChange = "2019-11-29 11:50:09 +0000";
layers = (
{
layerId = "210D674B-AD98-4874-A618-1698A23DB8A1";
paths = (
{
closed = 1;
nodes = (
"597 300 OFFCURVE",
"522 292 OFFCURVE",
"467 292 CURVE",
"467 484 LINE",
"523 484 OFFCURVE",
"600 488 OFFCURVE",
"629 485 CURVE SMOOTH",
"635 485 OFFCURVE",
"638 489 OFFCURVE",
"638 496 CURVE SMOOTH",
"638 513 OFFCURVE",
"637 530 OFFCURVE",
"634 545 CURVE SMOOTH",
"633 550 OFFCURVE",
"630 552 OFFCURVE",
"624 551 CURVE SMOOTH",
"595 546 OFFCURVE",
"521 535 OFFCURVE",
"467 535 CURVE",
"467 627 LINE SMOOTH",
"467 675 OFFCURVE",
"467 706 OFFCURVE",
"471 755 CURVE SMOOTH",
"471 760 OFFCURVE",
"469 762 OFFCURVE",
"466 763 CURVE",
"462 763 OFFCURVE",
"412 764 OFFCURVE",
"401 764 CURVE SMOOTH",
"396 764 OFFCURVE",
"391 761 OFFCURVE",
"394 754 CURVE SMOOTH",
"401 741 OFFCURVE",
"404 693 OFFCURVE",
"404 642 CURVE SMOOTH",
"404 -77 LINE SMOOTH",
"404 -80 OFFCURVE",
"405 -82 OFFCURVE",
"408 -82 CURVE SMOOTH",
"415 -82 OFFCURVE",
"452 -79 OFFCURVE",
"459 -79 CURVE SMOOTH",
"466 -78 OFFCURVE",
"467 -77 OFFCURVE",
"467 -57 CURVE SMOOTH",
"467 241 LINE",
"523 241 OFFCURVE",
"601 241 OFFCURVE",
"631 238 CURVE SMOOTH",
"637 238 OFFCURVE",
"640 242 OFFCURVE",
"640 249 CURVE SMOOTH",
"639 266 OFFCURVE",
"638 282 OFFCURVE",
"635 299 CURVE SMOOTH",
"634 304 OFFCURVE",
"631 306 OFFCURVE",
"625 305 CURVE SMOOTH"
);
}
);
width = 900;
}
);
note = cid00390;
unicode = 3151;
},
{
glyphname = "yaeCompa-ko";
lastChange = "2019-11-29 11:50:09 +0000";
layers = (
{
layerId = "210D674B-AD98-4874-A618-1698A23DB8A1";
paths = (
{
closed = 1;
nodes = (
"375 -52 OFFCURVE",
"376 -51 OFFCURVE",
"376 -31 CURVE SMOOTH",
"376 254 LINE",
"413 255 OFFCURVE",
"464 256 OFFCURVE",
"507 256 CURVE",
"507 -77 LINE SMOOTH",
"507 -80 OFFCURVE",
"508 -82 OFFCURVE",
"511 -82 CURVE SMOOTH",
"518 -82 OFFCURVE",
"552 -79 OFFCURVE",
"559 -79 CURVE SMOOTH",
"566 -78 OFFCURVE",
"567 -77 OFFCURVE",
"567 -57 CURVE SMOOTH",
"567 627 LINE SMOOTH",
"567 675 OFFCURVE",
"566 706 OFFCURVE",
"570 755 CURVE SMOOTH",
"570 760 OFFCURVE",
"568 762 OFFCURVE",
"565 763 CURVE",
"560 763 OFFCURVE",
"517 764 OFFCURVE",
"506 764 CURVE SMOOTH",
"501 764 OFFCURVE",
"496 761 OFFCURVE",
"499 754 CURVE SMOOTH",
"506 741 OFFCURVE",
"507 693 OFFCURVE",
"507 642 CURVE SMOOTH",
"507 530 LINE",
"464 527 OFFCURVE",
"411 527 OFFCURVE",
"376 528 CURVE",
"376 601 LINE SMOOTH",
"376 649 OFFCURVE",
"375 680 OFFCURVE",
"378 729 CURVE SMOOTH",
"378 734 OFFCURVE",
"376 736 OFFCURVE",
"373 737 CURVE",
"368 737 OFFCURVE",
"325 738 OFFCURVE",
"314 738 CURVE SMOOTH",
"309 738 OFFCURVE",
"304 735 OFFCURVE",
"307 728 CURVE SMOOTH",
"314 715 OFFCURVE",
"316 667 OFFCURVE",
"316 616 CURVE SMOOTH",
"316 -51 LINE SMOOTH",
"316 -54 OFFCURVE",
"317 -56 OFFCURVE",
"320 -56 CURVE SMOOTH",
"327 -56 OFFCURVE",
"361 -53 OFFCURVE",
"368 -53 CURVE SMOOTH"
);
},
{
closed = 1;
nodes = (
"507 305 LINE",
"466 302 OFFCURVE",
"413 302 OFFCURVE",
"376 303 CURVE",
"376 477 LINE",
"411 478 OFFCURVE",
"463 479 OFFCURVE",
"507 479 CURVE"
);
}
);
width = 900;
}
);
note = cid00391;
unicode = 3152;
},
{
glyphname = "eoCompa-ko";
lastChange = "2019-11-29 11:50:09 +0000";
layers = (
{
layerId = "210D674B-AD98-4874-A618-1698A23DB8A1";
paths = (
{
closed = 1;
nodes = (
"545 -78 OFFCURVE",
"546 -77 OFFCURVE",
"546 -57 CURVE SMOOTH",
"546 627 LINE SMOOTH",
"546 675 OFFCURVE",
"546 706 OFFCURVE",
"550 755 CURVE SMOOTH",
"550 760 OFFCURVE",
"548 762 OFFCURVE",
"545 763 CURVE",
"541 763 OFFCURVE",
"491 764 OFFCURVE",
"480 764 CURVE SMOOTH",
"475 764 OFFCURVE",
"470 761 OFFCURVE",
"473 754 CURVE SMOOTH",
"480 741 OFFCURVE",
"483 693 OFFCURVE",
"483 642 CURVE SMOOTH",
"483 455 LINE",
"417 450 OFFCURVE",
"318 448 OFFCURVE",
"285 453 CURVE SMOOTH",
"280 454 OFFCURVE",
"277 452 OFFCURVE",
"277 447 CURVE",
"280 435 OFFCURVE",
"282 417 OFFCURVE",
"287 400 CURVE SMOOTH",
"290 392 OFFCURVE",
"293 387 OFFCURVE",
"308 390 CURVE SMOOTH",
"340 394 OFFCURVE",
"378 397 OFFCURVE",
"410 400 CURVE SMOOTH",
"483 403 LINE",
"483 -77 LINE SMOOTH",
"483 -80 OFFCURVE",
"484 -82 OFFCURVE",
"487 -82 CURVE SMOOTH",
"494 -82 OFFCURVE",
"531 -79 OFFCURVE",
"538 -79 CURVE SMOOTH"
);
}
);
width = 900;
}
);
note = cid00392;
unicode = 3153;
},
{
glyphname = "eCompa-ko";
lastChange = "2019-11-29 11:50:09 +0000";
layers = (
{
layerId = "210D674B-AD98-4874-A618-1698A23DB8A1";
paths = (
{
closed = 1;
nodes = (
"455 -52 OFFCURVE",
"456 -51 OFFCURVE",
"456 -31 CURVE SMOOTH",
"456 601 LINE SMOOTH",
"456 649 OFFCURVE",
"455 680 OFFCURVE",
"458 729 CURVE SMOOTH",
"458 734 OFFCURVE",
"456 736 OFFCURVE",
"453 737 CURVE",
"448 737 OFFCURVE",
"405 738 OFFCURVE",
"394 738 CURVE SMOOTH",
"389 738 OFFCURVE",
"384 735 OFFCURVE",
"387 728 CURVE SMOOTH",
"394 715 OFFCURVE",
"396 667 OFFCURVE",
"396 616 CURVE SMOOTH",
"396 413 LINE",
"335 410 OFFCURVE",
"247 408 OFFCURVE",
"213 413 CURVE SMOOTH",
"206 414 OFFCURVE",
"206 409 OFFCURVE",
"206 406 CURVE",
"214 364 LINE",
"217 356 OFFCURVE",
"217 353 OFFCURVE",
"232 354 CURVE SMOOTH",
"264 357 OFFCURVE",
"314 361 OFFCURVE",
"346 362 CURVE SMOOTH",
"396 363 LINE",
"396 -51 LINE SMOOTH",
"396 -54 OFFCURVE",
"397 -56 OFFCURVE",
"400 -56 CURVE SMOOTH",
"407 -56 OFFCURVE",
"441 -53 OFFCURVE",
"448 -53 CURVE SMOOTH"
);
},
{
closed = 1;
nodes = (
"616 -78 OFFCURVE",
"617 -77 OFFCURVE",
"617 -57 CURVE SMOOTH",
"617 627 LINE SMOOTH",
"617 675 OFFCURVE",
"616 706 OFFCURVE",
"620 755 CURVE SMOOTH",
"620 760 OFFCURVE",
"618 762 OFFCURVE",
"615 763 CURVE",
"610 763 OFFCURVE",
"567 764 OFFCURVE",
"556 764 CURVE SMOOTH",
"551 764 OFFCURVE",
"546 761 OFFCURVE",
"549 754 CURVE SMOOTH",
"556 741 OFFCURVE",
"557 693 OFFCURVE",
"557 642 CURVE SMOOTH",
"557 -77 LINE SMOOTH",
"557 -80 OFFCURVE",
"558 -82 OFFCURVE",
"561 -82 CURVE SMOOTH",
"568 -82 OFFCURVE",
"602 -79 OFFCURVE",
"609 -79 CURVE SMOOTH"
);
}
);
width = 900;
}
);
note = cid00393;
unicode = 3154;
},
{
glyphname = "yeoCompa-ko";
lastChange = "2019-11-29 11:50:09 +0000";
layers = (
{
layerId = "210D674B-AD98-4874-A618-1698A23DB8A1";
paths = (
{
closed = 1;
nodes = (
"545 -78 OFFCURVE",
"546 -77 OFFCURVE",
"546 -57 CURVE SMOOTH",
"546 627 LINE SMOOTH",
"546 675 OFFCURVE",
"546 706 OFFCURVE",
"550 755 CURVE SMOOTH",
"550 760 OFFCURVE",
"548 762 OFFCURVE",
"545 763 CURVE",
"541 763 OFFCURVE",
"491 764 OFFCURVE",
"480 764 CURVE SMOOTH",
"475 764 OFFCURVE",
"470 761 OFFCURVE",
"473 754 CURVE SMOOTH",
"480 741 OFFCURVE",
"483 693 OFFCURVE",
"483 642 CURVE SMOOTH",
"483 544 LINE",
"427 539 OFFCURVE",
"324 535 OFFCURVE",
"287 540 CURVE SMOOTH",
"282 541 OFFCURVE",
"279 539 OFFCURVE",
"279 534 CURVE",
"282 522 OFFCURVE",
"284 506 OFFCURVE",
"289 489 CURVE SMOOTH",
"292 481 OFFCURVE",
"295 476 OFFCURVE",
"310 479 CURVE SMOOTH",
"342 483 OFFCURVE",
"380 485 OFFCURVE",
"412 488 CURVE SMOOTH",
"483 491 LINE",
"483 302 LINE",
"420 297 OFFCURVE",
"319 295 OFFCURVE",
"287 300 CURVE SMOOTH",
"282 301 OFFCURVE",
"279 299 OFFCURVE",
"279 294 CURVE",
"282 282 OFFCURVE",
"284 266 OFFCURVE",
"289 249 CURVE SMOOTH",
"292 241 OFFCURVE",
"295 236 OFFCURVE",
"310 239 CURVE SMOOTH",
"342 243 OFFCURVE",
"380 245 OFFCURVE",
"412 248 CURVE SMOOTH",
"483 251 LINE",
"483 -77 LINE SMOOTH",
"483 -80 OFFCURVE",
"484 -82 OFFCURVE",
"487 -82 CURVE SMOOTH",
"494 -82 OFFCURVE",
"531 -79 OFFCURVE",
"538 -79 CURVE SMOOTH"
);
}
);
width = 900;
}
);
note = cid00394;
unicode = 3155;
},
{
glyphname = "yeCompa-ko";
lastChange = "2019-11-29 11:50:09 +0000";
layers = (
{
layerId = "210D674B-AD98-4874-A618-1698A23DB8A1";
paths = (
{
closed = 1;
nodes = (
"458 -52 OFFCURVE",
"459 -51 OFFCURVE",
"459 -31 CURVE SMOOTH",
"459 601 LINE SMOOTH",
"459 649 OFFCURVE",
"458 680 OFFCURVE",
"461 729 CURVE SMOOTH",
"461 734 OFFCURVE",
"459 736 OFFCURVE",
"456 737 CURVE",
"451 737 OFFCURVE",
"408 738 OFFCURVE",
"397 738 CURVE SMOOTH",
"392 738 OFFCURVE",
"387 735 OFFCURVE",
"390 728 CURVE SMOOTH",
"397 715 OFFCURVE",
"399 667 OFFCURVE",
"399 616 CURVE SMOOTH",
"399 523 LINE",
"342 518 OFFCURVE",
"259 518 OFFCURVE",
"224 523 CURVE SMOOTH",
"219 524 OFFCURVE",
"217 522 OFFCURVE",
"217 517 CURVE",
"220 501 OFFCURVE",
"220 492 OFFCURVE",
"224 475 CURVE",
"227 467 OFFCURVE",
"227 464 OFFCURVE",
"242 465 CURVE SMOOTH",
"274 468 OFFCURVE",
"315 469 OFFCURVE",
"347 472 CURVE SMOOTH",
"399 474 LINE",
"399 311 LINE",
"341 306 OFFCURVE",
"250 307 OFFCURVE",
"216 312 CURVE SMOOTH",
"209 313 OFFCURVE",
"209 308 OFFCURVE",
"209 305 CURVE SMOOTH",
"215 265 LINE",
"218 257 OFFCURVE",
"218 254 OFFCURVE",
"233 255 CURVE SMOOTH",
"265 258 OFFCURVE",
"307 259 OFFCURVE",
"339 262 CURVE SMOOTH",
"399 264 LINE",
"399 -51 LINE SMOOTH",
"399 -54 OFFCURVE",
"400 -56 OFFCURVE",
"403 -56 CURVE SMOOTH",
"410 -56 OFFCURVE",
"444 -53 OFFCURVE",
"451 -53 CURVE SMOOTH"
);
},
{
closed = 1;
nodes = (
"616 -78 OFFCURVE",
"617 -77 OFFCURVE",
"617 -57 CURVE SMOOTH",
"617 627 LINE SMOOTH",
"617 675 OFFCURVE",
"616 706 OFFCURVE",
"620 755 CURVE SMOOTH",
"620 760 OFFCURVE",
"618 762 OFFCURVE",
"615 763 CURVE",
"610 763 OFFCURVE",
"567 764 OFFCURVE",
"556 764 CURVE SMOOTH",
"551 764 OFFCURVE",
"546 761 OFFCURVE",
"549 754 CURVE SMOOTH",
"556 741 OFFCURVE",
"557 693 OFFCURVE",
"557 642 CURVE SMOOTH",
"557 -77 LINE SMOOTH",
"557 -80 OFFCURVE",
"558 -82 OFFCURVE",
"561 -82 CURVE SMOOTH",
"568 -82 OFFCURVE",
"602 -79 OFFCURVE",
"609 -79 CURVE SMOOTH"
);
}
);
width = 900;
}
);
note = cid00395;
unicode = 3156;
},
{
glyphname = "oCompa-ko";
lastChange = "2019-11-29 11:50:09 +0000";
layers = (
{
layerId = "210D674B-AD98-4874-A618-1698A23DB8A1";
paths = (
{
closed = 1;
nodes = (
"758 223 OFFCURVE",
"629 213 OFFCURVE",
"482 210 CURVE",
"485 321 LINE SMOOTH",
"486 356 OFFCURVE",
"486 386 OFFCURVE",
"489 421 CURVE SMOOTH",
"489 426 OFFCURVE",
"490 431 OFFCURVE",
"483 431 CURVE SMOOTH",
"423 431 LINE SMOOTH",
"418 431 OFFCURVE",
"413 429 OFFCURVE",
"416 421 CURVE SMOOTH",
"421 408 OFFCURVE",
"426 366 OFFCURVE",
"426 314 CURVE SMOOTH",
"426 209 LINE",
"387 208 OFFCURVE",
"351 208 OFFCURVE",
"312 208 CURVE SMOOTH",
"207 208 OFFCURVE",
"115 209 OFFCURVE",
"64 216 CURVE SMOOTH",
"57 217 OFFCURVE",
"55 211 OFFCURVE",
"56 208 CURVE SMOOTH",
"61 185 OFFCURVE",
"65 172 OFFCURVE",
"70 157 CURVE SMOOTH",
"73 149 OFFCURVE",
"76 145 OFFCURVE",
"91 146 CURVE SMOOTH",
"204 157 OFFCURVE",
"399 164 OFFCURVE",
"651 165 CURVE SMOOTH",
"719 165 OFFCURVE",
"781 165 OFFCURVE",
"826 164 CURVE SMOOTH",
"843 164 OFFCURVE",
"845 170 OFFCURVE",
"845 177 CURVE",
"839 225 LINE SMOOTH",
"838 232 OFFCURVE",
"835 237 OFFCURVE",
"822 234 CURVE SMOOTH"
);
}
);
width = 900;
}
);
note = cid00396;
unicode = 3157;
},
{
glyphname = "waCompa-ko";
lastChange = "2019-11-29 11:50:09 +0000";
layers = (
{
layerId = "210D674B-AD98-4874-A618-1698A23DB8A1";
paths = (
{
closed = 1;
nodes = (
"701 -78 OFFCURVE",
"702 -77 OFFCURVE",
"702 -57 CURVE SMOOTH",
"702 316 LINE",
"758 316 OFFCURVE",
"835 318 OFFCURVE",
"866 315 CURVE SMOOTH",
"872 315 OFFCURVE",
"875 319 OFFCURVE",
"875 326 CURVE SMOOTH",
"874 343 OFFCURVE",
"873 361 OFFCURVE",
"870 378 CURVE SMOOTH",
"869 383 OFFCURVE",
"866 385 OFFCURVE",
"860 384 CURVE SMOOTH",
"832 376 OFFCURVE",
"756 368 OFFCURVE",
"702 368 CURVE",
"702 627 LINE SMOOTH",
"702 675 OFFCURVE",
"702 706 OFFCURVE",
"706 755 CURVE SMOOTH",
"706 760 OFFCURVE",
"704 762 OFFCURVE",
"701 763 CURVE",
"697 763 OFFCURVE",
"647 764 OFFCURVE",
"636 764 CURVE SMOOTH",
"631 764 OFFCURVE",
"626 761 OFFCURVE",
"629 754 CURVE SMOOTH",
"636 741 OFFCURVE",
"639 693 OFFCURVE",
"639 642 CURVE SMOOTH",
"639 -77 LINE SMOOTH",
"639 -80 OFFCURVE",
"640 -82 OFFCURVE",
"643 -82 CURVE SMOOTH",
"650 -82 OFFCURVE",
"687 -79 OFFCURVE",
"694 -79 CURVE SMOOTH"
);
},
{
closed = 1;
nodes = (
"42 183 OFFCURVE",
"40 178 OFFCURVE",
"41 175 CURVE SMOOTH",
"46 152 OFFCURVE",
"49 143 OFFCURVE",
"54 128 CURVE SMOOTH",
"58 116 OFFCURVE",
"59 115 OFFCURVE",
"74 116 CURVE SMOOTH",
"118 120 OFFCURVE",
"177 124 OFFCURVE",
"249 127 CURVE SMOOTH",
"358 132 OFFCURVE",
"540 158 OFFCURVE",
"599 174 CURVE SMOOTH",
"607 177 OFFCURVE",
"612 179 OFFCURVE",
"611 191 CURVE SMOOTH",
"607 219 LINE SMOOTH",
"606 224 OFFCURVE",
"603 226 OFFCURVE",
"598 224 CURVE SMOOTH",
"530 205 OFFCURVE",
"435 191 OFFCURVE",
"346 184 CURVE",
"349 261 LINE SMOOTH",
"350 296 OFFCURVE",
"350 318 OFFCURVE",
"353 353 CURVE SMOOTH",
"353 358 OFFCURVE",
"354 363 OFFCURVE",
"347 363 CURVE SMOOTH",
"287 363 LINE SMOOTH",
"282 363 OFFCURVE",
"277 361 OFFCURVE",
"280 353 CURVE SMOOTH",
"285 340 OFFCURVE",
"290 306 OFFCURVE",
"290 254 CURVE SMOOTH",
"290 181 LINE",
"270 180 OFFCURVE",
"250 179 OFFCURVE",
"233 179 CURVE SMOOTH",
"145 176 OFFCURVE",
"77 178 OFFCURVE",
"49 182 CURVE SMOOTH"
);
}
);
width = 900;
}
);
note = cid00397;
unicode = 3158;
},
{
glyphname = "waeCompa-ko";
lastChange = "2019-11-29 11:50:09 +0000";
layers = (
{
layerId = "210D674B-AD98-4874-A618-1698A23DB8A1";
paths = (
{
closed = 1;
nodes = (
"615 -52 OFFCURVE",
"616 -51 OFFCURVE",
"616 -31 CURVE SMOOTH",
"616 342 LINE",
"647 343 OFFCURVE",
"687 344 OFFCURVE",
"722 344 CURVE",
"722 -77 LINE SMOOTH",
"722 -80 OFFCURVE",
"723 -82 OFFCURVE",
"726 -82 CURVE SMOOTH",
"733 -82 OFFCURVE",
"767 -79 OFFCURVE",
"774 -79 CURVE SMOOTH",
"781 -78 OFFCURVE",
"782 -77 OFFCURVE",
"782 -57 CURVE SMOOTH",
"782 627 LINE SMOOTH",
"782 675 OFFCURVE",
"781 706 OFFCURVE",
"785 755 CURVE SMOOTH",
"785 760 OFFCURVE",
"783 762 OFFCURVE",
"780 763 CURVE",
"775 763 OFFCURVE",
"732 764 OFFCURVE",
"721 764 CURVE SMOOTH",
"716 764 OFFCURVE",
"711 761 OFFCURVE",
"714 754 CURVE SMOOTH",
"721 741 OFFCURVE",
"722 693 OFFCURVE",
"722 642 CURVE SMOOTH",
"722 400 LINE",
"686 399 OFFCURVE",
"648 398 OFFCURVE",
"616 398 CURVE",
"616 601 LINE SMOOTH",
"616 649 OFFCURVE",
"615 680 OFFCURVE",
"618 729 CURVE SMOOTH",
"618 734 OFFCURVE",
"616 736 OFFCURVE",
"613 737 CURVE",
"608 737 OFFCURVE",
"565 738 OFFCURVE",
"554 738 CURVE SMOOTH",
"549 738 OFFCURVE",
"544 735 OFFCURVE",
"547 728 CURVE SMOOTH",
"554 715 OFFCURVE",
"556 667 OFFCURVE",
"556 616 CURVE SMOOTH",
"556 -51 LINE SMOOTH",
"556 -54 OFFCURVE",
"557 -56 OFFCURVE",
"560 -56 CURVE SMOOTH",
"567 -56 OFFCURVE",
"601 -53 OFFCURVE",
"608 -53 CURVE SMOOTH"
);
},
{
closed = 1;
nodes = (
"62 193 OFFCURVE",
"60 188 OFFCURVE",
"61 185 CURVE SMOOTH",
"66 162 OFFCURVE",
"69 155 OFFCURVE",
"74 140 CURVE SMOOTH",
"78 128 OFFCURVE",
"79 127 OFFCURVE",
"94 128 CURVE SMOOTH",
"138 131 OFFCURVE",
"158 135 OFFCURVE",
"229 138 CURVE SMOOTH",
"346 143 OFFCURVE",
"459 157 OFFCURVE",
"523 172 CURVE",
"531 175 OFFCURVE",
"537 177 OFFCURVE",
"534 189 CURVE SMOOTH",
"529 216 LINE SMOOTH",
"528 221 OFFCURVE",
"525 223 OFFCURVE",
"520 221 CURVE SMOOTH",
"479 209 OFFCURVE",
"410 198 OFFCURVE",
"331 191 CURVE",
"333 250 LINE SMOOTH",
"334 285 OFFCURVE",
"333 315 OFFCURVE",
"336 350 CURVE SMOOTH",
"336 355 OFFCURVE",
"337 359 OFFCURVE",
"332 360 CURVE SMOOTH",
"327 360 OFFCURVE",
"285 362 OFFCURVE",
"275 362 CURVE SMOOTH",
"270 362 OFFCURVE",
"265 360 OFFCURVE",
"268 352 CURVE SMOOTH",
"273 339 OFFCURVE",
"277 301 OFFCURVE",
"277 265 CURVE SMOOTH",
"277 187 LINE",
"262 187 OFFCURVE",
"249 186 OFFCURVE",
"234 186 CURVE SMOOTH",
"146 183 OFFCURVE",
"97 188 OFFCURVE",
"69 192 CURVE SMOOTH"
);
}
);
width = 900;
}
);
note = cid00398;
unicode = 3159;
},
{
glyphname = "oeCompa-ko";
lastChange = "2019-11-29 11:50:09 +0000";
layers = (
{
layerId = "210D674B-AD98-4874-A618-1698A23DB8A1";
paths = (
{
closed = 1;
nodes = (
"760 -78 OFFCURVE",
"761 -77 OFFCURVE",
"761 -57 CURVE SMOOTH",
"761 627 LINE SMOOTH",
"761 675 OFFCURVE",
"761 706 OFFCURVE",
"765 755 CURVE SMOOTH",
"765 760 OFFCURVE",
"763 762 OFFCURVE",
"760 763 CURVE",
"756 763 OFFCURVE",
"706 764 OFFCURVE",
"695 764 CURVE SMOOTH",
"690 764 OFFCURVE",
"685 761 OFFCURVE",
"688 754 CURVE SMOOTH",
"695 741 OFFCURVE",
"698 693 OFFCURVE",
"698 642 CURVE SMOOTH",
"698 -77 LINE SMOOTH",
"698 -80 OFFCURVE",
"699 -82 OFFCURVE",
"702 -82 CURVE SMOOTH",
"709 -82 OFFCURVE",
"746 -79 OFFCURVE",
"753 -79 CURVE SMOOTH"
);
},
{
closed = 1;
nodes = (
"72 183 OFFCURVE",
"70 178 OFFCURVE",
"71 175 CURVE SMOOTH",
"76 152 OFFCURVE",
"79 143 OFFCURVE",
"84 128 CURVE SMOOTH",
"88 116 OFFCURVE",
"89 115 OFFCURVE",
"104 116 CURVE SMOOTH",
"148 120 OFFCURVE",
"217 124 OFFCURVE",
"289 127 CURVE SMOOTH",
"398 132 OFFCURVE",
"601 158 OFFCURVE",
"659 174 CURVE SMOOTH",
"667 177 OFFCURVE",
"672 179 OFFCURVE",
"671 191 CURVE SMOOTH",
"667 219 LINE SMOOTH",
"666 224 OFFCURVE",
"663 226 OFFCURVE",
"658 224 CURVE SMOOTH",
"590 205 OFFCURVE",
"487 191 OFFCURVE",
"391 184 CURVE",
"394 262 LINE SMOOTH",
"395 297 OFFCURVE",
"395 319 OFFCURVE",
"398 354 CURVE SMOOTH",
"398 359 OFFCURVE",
"399 364 OFFCURVE",
"392 364 CURVE SMOOTH",
"332 364 LINE SMOOTH",
"327 364 OFFCURVE",
"322 362 OFFCURVE",
"325 354 CURVE SMOOTH",
"330 341 OFFCURVE",
"335 307 OFFCURVE",
"335 255 CURVE SMOOTH",
"335 181 LINE",
"312 180 OFFCURVE",
"292 179 OFFCURVE",
"273 179 CURVE SMOOTH",
"186 176 OFFCURVE",
"105 177 OFFCURVE",
"79 182 CURVE SMOOTH"
);
}
);
width = 900;
}
);
note = cid00399;
unicode = 315A;
},
{
glyphname = "yoCompa-ko";
lastChange = "2019-11-29 11:50:09 +0000";
layers = (
{
layerId = "210D674B-AD98-4874-A618-1698A23DB8A1";
paths = (
{
closed = 1;
nodes = (
"779 227 OFFCURVE",
"706 220 OFFCURVE",
"617 216 CURVE",
"625 313 LINE SMOOTH",
"628 348 OFFCURVE",
"633 378 OFFCURVE",
"636 413 CURVE SMOOTH",
"636 418 OFFCURVE",
"638 421 OFFCURVE",
"633 424 CURVE",
"628 424 OFFCURVE",
"577 427 OFFCURVE",
"567 427 CURVE SMOOTH",
"562 427 OFFCURVE",
"556 426 OFFCURVE",
"559 417 CURVE",
"567 403 OFFCURVE",
"564 347 OFFCURVE",
"564 310 CURVE SMOOTH",
"559 213 LINE",
"490 210 OFFCURVE",
"417 208 OFFCURVE",
"345 208 CURVE",
"345 306 LINE SMOOTH",
"344 341 OFFCURVE",
"347 373 OFFCURVE",
"347 408 CURVE SMOOTH",
"347 413 OFFCURVE",
"348 418 OFFCURVE",
"343 419 CURVE",
"276 419 LINE",
"271 418 OFFCURVE",
"266 416 OFFCURVE",
"269 408 CURVE",
"277 395 OFFCURVE",
"282 335 OFFCURVE",
"285 298 CURVE",
"287 208 LINE",
"184 208 OFFCURVE",
"113 209 OFFCURVE",
"64 216 CURVE SMOOTH",
"57 217 OFFCURVE",
"55 211 OFFCURVE",
"56 208 CURVE SMOOTH",
"61 185 OFFCURVE",
"65 172 OFFCURVE",
"70 157 CURVE SMOOTH",
"73 149 OFFCURVE",
"76 145 OFFCURVE",
"91 146 CURVE SMOOTH",
"204 157 OFFCURVE",
"399 164 OFFCURVE",
"651 165 CURVE SMOOTH",
"719 165 OFFCURVE",
"781 165 OFFCURVE",
"826 164 CURVE SMOOTH",
"843 164 OFFCURVE",
"845 170 OFFCURVE",
"845 177 CURVE",
"839 225 LINE SMOOTH",
"838 232 OFFCURVE",
"835 237 OFFCURVE",
"822 234 CURVE SMOOTH"
);
}
);
width = 900;
}
);
note = cid00400;
unicode = 315B;
},
{
glyphname = "uCompa-ko";
lastChange = "2019-11-29 11:50:09 +0000";
layers = (
{
layerId = "210D674B-AD98-4874-A618-1698A23DB8A1";
paths = (
{
closed = 1;
nodes = (
"734 433 OFFCURVE",
"517 423 OFFCURVE",
"312 423 CURVE SMOOTH",
"207 423 OFFCURVE",
"115 424 OFFCURVE",
"64 431 CURVE SMOOTH",
"57 432 OFFCURVE",
"55 426 OFFCURVE",
"56 423 CURVE SMOOTH",
"61 400 OFFCURVE",
"65 387 OFFCURVE",
"70 372 CURVE SMOOTH",
"73 364 OFFCURVE",
"76 360 OFFCURVE",
"91 361 CURVE SMOOTH",
"167 368 OFFCURVE",
"279 374 OFFCURVE",
"423 377 CURVE",
"423 28 LINE SMOOTH",
"423 25 OFFCURVE",
"424 23 OFFCURVE",
"427 23 CURVE SMOOTH",
"435 23 OFFCURVE",
"471 26 OFFCURVE",
"479 26 CURVE SMOOTH",
"486 27 OFFCURVE",
"487 28 OFFCURVE",
"487 48 CURVE SMOOTH",
"487 378 LINE",
"538 379 OFFCURVE",
"592 380 OFFCURVE",
"651 380 CURVE SMOOTH",
"719 380 OFFCURVE",
"781 380 OFFCURVE",
"826 379 CURVE SMOOTH",
"843 379 OFFCURVE",
"845 385 OFFCURVE",
"845 392 CURVE",
"839 440 LINE SMOOTH",
"838 447 OFFCURVE",
"835 452 OFFCURVE",
"822 449 CURVE SMOOTH"
);
}
);
width = 900;
}
);
note = cid00401;
unicode = 315C;
},
{
glyphname = "weoCompa-ko";
lastChange = "2019-11-29 11:50:09 +0000";
layers = (
{
layerId = "210D674B-AD98-4874-A618-1698A23DB8A1";
paths = (
{
closed = 1;
nodes = (
"765 -78 OFFCURVE",
"766 -77 OFFCURVE",
"766 -57 CURVE SMOOTH",
"766 627 LINE SMOOTH",
"766 675 OFFCURVE",
"766 706 OFFCURVE",
"770 755 CURVE SMOOTH",
"770 760 OFFCURVE",
"768 762 OFFCURVE",
"765 763 CURVE",
"761 763 OFFCURVE",
"711 764 OFFCURVE",
"700 764 CURVE SMOOTH",
"695 764 OFFCURVE",
"690 761 OFFCURVE",
"693 754 CURVE SMOOTH",
"700 741 OFFCURVE",
"703 693 OFFCURVE",
"703 642 CURVE SMOOTH",
"703 205 LINE",
"637 200 OFFCURVE",
"520 193 OFFCURVE",
"484 199 CURVE SMOOTH",
"477 200 OFFCURVE",
"477 195 OFFCURVE",
"477 192 CURVE",
"485 149 LINE",
"488 141 OFFCURVE",
"488 138 OFFCURVE",
"503 139 CURVE SMOOTH",
"622 149 LINE",
"703 155 LINE",
"703 -77 LINE SMOOTH",
"703 -80 OFFCURVE",
"704 -82 OFFCURVE",
"707 -82 CURVE SMOOTH",
"714 -82 OFFCURVE",
"751 -79 OFFCURVE",
"758 -79 CURVE SMOOTH"
);
},
{
closed = 1;
nodes = (
"72 336 OFFCURVE",
"70 331 OFFCURVE",
"71 328 CURVE SMOOTH",
"76 305 OFFCURVE",
"79 297 OFFCURVE",
"84 282 CURVE SMOOTH",
"88 270 OFFCURVE",
"89 269 OFFCURVE",
"104 270 CURVE SMOOTH",
"163 273 OFFCURVE",
"197 276 OFFCURVE",
"269 281 CURVE SMOOTH",
"281 281 OFFCURVE",
"293 282 OFFCURVE",
"306 283 CURVE",
"314 213 OFFCURVE",
"298 18 OFFCURVE",
"274 -48 CURVE SMOOTH",
"271 -57 OFFCURVE",
"276 -58 OFFCURVE",
"280 -58 CURVE SMOOTH",
"292 -58 OFFCURVE",
"306 -57 OFFCURVE",
"317 -56 CURVE SMOOTH",
"326 -55 OFFCURVE",
"336 -51 OFFCURVE",
"343 -28 CURVE SMOOTH",
"364 54 OFFCURVE",
"376 227 OFFCURVE",
"373 289 CURVE",
"477 297 OFFCURVE",
"594 313 OFFCURVE",
"636 326 CURVE SMOOTH",
"644 329 OFFCURVE",
"650 331 OFFCURVE",
"647 343 CURVE SMOOTH",
"643 370 LINE SMOOTH",
"642 375 OFFCURVE",
"639 377 OFFCURVE",
"634 375 CURVE",
"530 348 OFFCURVE",
"391 336 OFFCURVE",
"254 331 CURVE SMOOTH",
"166 328 OFFCURVE",
"107 331 OFFCURVE",
"79 335 CURVE SMOOTH"
);
}
);
width = 900;
}
);
note = cid00402;
unicode = 315D;
},
{
glyphname = "weCompa-ko";
lastChange = "2019-11-29 11:50:09 +0000";
layers = (
{
layerId = "210D674B-AD98-4874-A618-1698A23DB8A1";
paths = (
{
closed = 1;
nodes = (
"634 -53 OFFCURVE",
"635 -52 OFFCURVE",
"635 -32 CURVE SMOOTH",
"635 597 LINE SMOOTH",
"635 645 OFFCURVE",
"636 669 OFFCURVE",
"636 723 CURVE SMOOTH",
"636 728 OFFCURVE",
"637 732 OFFCURVE",
"632 733 CURVE SMOOTH",
"627 733 OFFCURVE",
"582 734 OFFCURVE",
"571 734 CURVE SMOOTH",
"566 734 OFFCURVE",
"561 731 OFFCURVE",
"564 724 CURVE SMOOTH",
"571 711 OFFCURVE",
"576 683 OFFCURVE",
"576 632 CURVE SMOOTH",
"576 201 LINE",
"515 196 OFFCURVE",
"427 195 OFFCURVE",
"393 200 CURVE SMOOTH",
"386 201 OFFCURVE",
"386 196 OFFCURVE",
"386 193 CURVE",
"394 154 LINE",
"397 146 OFFCURVE",
"397 143 OFFCURVE",
"412 144 CURVE SMOOTH",
"444 147 OFFCURVE",
"494 152 OFFCURVE",
"526 153 CURVE SMOOTH",
"576 155 LINE",
"576 -52 LINE SMOOTH",
"576 -55 OFFCURVE",
"577 -57 OFFCURVE",
"580 -57 CURVE SMOOTH",
"588 -57 OFFCURVE",
"619 -54 OFFCURVE",
"627 -54 CURVE SMOOTH"
);
},
{
closed = 1;
nodes = (
"781 -78 OFFCURVE",
"782 -77 OFFCURVE",
"782 -57 CURVE SMOOTH",
"782 627 LINE SMOOTH",
"782 675 OFFCURVE",
"781 699 OFFCURVE",
"784 753 CURVE SMOOTH",
"784 758 OFFCURVE",
"786 762 OFFCURVE",
"781 763 CURVE SMOOTH",
"776 763 OFFCURVE",
"733 764 OFFCURVE",
"722 764 CURVE SMOOTH",
"717 764 OFFCURVE",
"712 761 OFFCURVE",
"715 754 CURVE SMOOTH",
"722 741 OFFCURVE",
"722 713 OFFCURVE",
"722 662 CURVE SMOOTH",
"722 -77 LINE SMOOTH",
"722 -80 OFFCURVE",
"723 -82 OFFCURVE",
"726 -82 CURVE SMOOTH",
"733 -82 OFFCURVE",
"767 -79 OFFCURVE",
"774 -79 CURVE SMOOTH"
);
},
{
closed = 1;
nodes = (
"62 332 OFFCURVE",
"60 327 OFFCURVE",
"61 324 CURVE SMOOTH",
"66 301 OFFCURVE",
"69 294 OFFCURVE",
"74 279 CURVE SMOOTH",
"78 267 OFFCURVE",
"79 266 OFFCURVE",
"94 267 CURVE SMOOTH",
"138 270 OFFCURVE",
"168 277 OFFCURVE",
"239 282 CURVE SMOOTH",
"244 282 OFFCURVE",
"247 282 OFFCURVE",
"250 283 CURVE",
"250 183 OFFCURVE",
"233 38 OFFCURVE",
"217 -18 CURVE SMOOTH",
"214 -27 OFFCURVE",
"219 -28 OFFCURVE",
"223 -28 CURVE SMOOTH",
"234 -27 OFFCURVE",
"244 -26 OFFCURVE",
"253 -24 CURVE SMOOTH",
"262 -21 OFFCURVE",
"268 -19 OFFCURVE",
"275 4 CURVE SMOOTH",
"288 42 OFFCURVE",
"306 179 OFFCURVE",
"309 288 CURVE",
"391 296 OFFCURVE",
"485 309 OFFCURVE",
"513 317 CURVE SMOOTH",
"521 320 OFFCURVE",
"527 322 OFFCURVE",
"524 334 CURVE SMOOTH",
"519 359 LINE SMOOTH",
"518 364 OFFCURVE",
"515 366 OFFCURVE",
"510 364 CURVE SMOOTH",
"474 351 OFFCURVE",
"337 333 OFFCURVE",
"244 330 CURVE SMOOTH",
"156 326 OFFCURVE",
"97 327 OFFCURVE",
"69 331 CURVE SMOOTH"
);
}
);
width = 900;
}
);
note = cid00403;
unicode = 315E;
},
{
glyphname = "wiCompa-ko";
lastChange = "2019-11-29 11:50:09 +0000";
layers = (
{
layerId = "210D674B-AD98-4874-A618-1698A23DB8A1";
paths = (
{
closed = 1;
nodes = (
"765 -78 OFFCURVE",
"766 -77 OFFCURVE",
"766 -57 CURVE SMOOTH",
"766 627 LINE SMOOTH",
"766 675 OFFCURVE",
"766 706 OFFCURVE",
"770 755 CURVE SMOOTH",
"770 760 OFFCURVE",
"768 762 OFFCURVE",
"765 763 CURVE",
"761 763 OFFCURVE",
"711 764 OFFCURVE",
"700 764 CURVE SMOOTH",
"695 764 OFFCURVE",
"690 761 OFFCURVE",
"693 754 CURVE SMOOTH",
"700 741 OFFCURVE",
"703 693 OFFCURVE",
"703 642 CURVE SMOOTH",
"703 -77 LINE SMOOTH",
"703 -80 OFFCURVE",
"704 -82 OFFCURVE",
"707 -82 CURVE SMOOTH",
"714 -82 OFFCURVE",
"751 -79 OFFCURVE",
"758 -79 CURVE SMOOTH"
);
},
{
closed = 1;
nodes = (
"62 316 OFFCURVE",
"60 311 OFFCURVE",
"61 308 CURVE SMOOTH",
"66 285 OFFCURVE",
"69 277 OFFCURVE",
"74 262 CURVE SMOOTH",
"78 250 OFFCURVE",
"79 249 OFFCURVE",
"94 250 CURVE SMOOTH",
"279 261 LINE",
"319 263 LINE",
"327 194 OFFCURVE",
"311 8 OFFCURVE",
"287 -58 CURVE SMOOTH",
"284 -67 OFFCURVE",
"289 -68 OFFCURVE",
"293 -68 CURVE SMOOTH",
"305 -68 OFFCURVE",
"319 -67 OFFCURVE",
"330 -66 CURVE SMOOTH",
"339 -65 OFFCURVE",
"349 -61 OFFCURVE",
"356 -38 CURVE SMOOTH",
"377 44 OFFCURVE",
"389 208 OFFCURVE",
"386 269 CURVE",
"496 277 OFFCURVE",
"623 293 OFFCURVE",
"665 306 CURVE SMOOTH",
"673 309 OFFCURVE",
"679 311 OFFCURVE",
"676 323 CURVE SMOOTH",
"672 350 LINE SMOOTH",
"671 355 OFFCURVE",
"668 357 OFFCURVE",
"663 355 CURVE",
"559 328 OFFCURVE",
"400 316 OFFCURVE",
"264 311 CURVE SMOOTH",
"177 308 OFFCURVE",
"97 309 OFFCURVE",
"69 315 CURVE SMOOTH"
);
}
);
width = 900;
}
);
note = cid00404;
unicode = 315F;
},
{
glyphname = "yuCompa-ko";
lastChange = "2019-11-29 11:50:09 +0000";
layers = (
{
layerId = "210D674B-AD98-4874-A618-1698A23DB8A1";
paths = (
{
closed = 1;
nodes = (
"735 429 OFFCURVE",
"516 419 OFFCURVE",
"311 419 CURVE SMOOTH",
"206 419 OFFCURVE",
"115 420 OFFCURVE",
"64 427 CURVE SMOOTH",
"57 428 OFFCURVE",
"55 422 OFFCURVE",
"56 419 CURVE SMOOTH",
"61 396 OFFCURVE",
"65 383 OFFCURVE",
"70 368 CURVE SMOOTH",
"73 360 OFFCURVE",
"76 356 OFFCURVE",
"91 357 CURVE SMOOTH",
"140 362 OFFCURVE",
"207 366 OFFCURVE",
"287 369 CURVE",
"290 268 OFFCURVE",
"272 137 OFFCURVE",
"248 67 CURVE SMOOTH",
"245 58 OFFCURVE",
"250 57 OFFCURVE",
"254 57 CURVE SMOOTH",
"266 57 OFFCURVE",
"285 58 OFFCURVE",
"296 59 CURVE SMOOTH",
"305 60 OFFCURVE",
"312 64 OFFCURVE",
"319 87 CURVE SMOOTH",
"338 151 OFFCURVE",
"355 275 OFFCURVE",
"355 371 CURVE",
"422 374 OFFCURVE",
"494 375 OFFCURVE",
"575 375 CURVE",
"575 58 LINE SMOOTH",
"575 55 OFFCURVE",
"576 53 OFFCURVE",
"579 53 CURVE SMOOTH",
"587 53 OFFCURVE",
"623 56 OFFCURVE",
"631 56 CURVE SMOOTH",
"638 57 OFFCURVE",
"639 58 OFFCURVE",
"639 78 CURVE SMOOTH",
"639 376 LINE",
"651 376 LINE SMOOTH",
"719 376 OFFCURVE",
"781 376 OFFCURVE",
"826 375 CURVE SMOOTH",
"843 375 OFFCURVE",
"845 381 OFFCURVE",
"845 388 CURVE",
"839 436 LINE SMOOTH",
"838 443 OFFCURVE",
"835 448 OFFCURVE",
"822 445 CURVE SMOOTH"
);
}
);
width = 900;
}
);
note = cid00405;
unicode = 3160;
},
{
glyphname = "euCompa-ko";
lastChange = "2019-11-29 11:50:09 +0000";
layers = (
{
layerId = "210D674B-AD98-4874-A618-1698A23DB8A1";
paths = (
{
closed = 1;
nodes = (
"735 318 OFFCURVE",
"497 308 OFFCURVE",
"292 308 CURVE SMOOTH",
"187 308 OFFCURVE",
"115 309 OFFCURVE",
"64 316 CURVE SMOOTH",
"57 317 OFFCURVE",
"55 311 OFFCURVE",
"56 308 CURVE SMOOTH",
"61 285 OFFCURVE",
"65 272 OFFCURVE",
"70 257 CURVE SMOOTH",
"73 249 OFFCURVE",
"76 245 OFFCURVE",
"91 246 CURVE SMOOTH",
"204 257 OFFCURVE",
"399 264 OFFCURVE",
"651 265 CURVE SMOOTH",
"719 265 OFFCURVE",
"781 265 OFFCURVE",
"826 264 CURVE SMOOTH",
"843 264 OFFCURVE",
"845 270 OFFCURVE",
"845 277 CURVE",
"839 325 LINE SMOOTH",
"838 332 OFFCURVE",
"835 337 OFFCURVE",
"822 334 CURVE SMOOTH"
);
}
);
width = 900;
}
);
note = cid00406;
unicode = 3161;
},
{
glyphname = "yiCompa-ko";
lastChange = "2019-11-29 11:50:09 +0000";
layers = (
{
layerId = "210D674B-AD98-4874-A618-1698A23DB8A1";
paths = (
{
closed = 1;
nodes = (
"760 -78 OFFCURVE",
"761 -77 OFFCURVE",
"761 -57 CURVE SMOOTH",
"761 627 LINE SMOOTH",
"761 675 OFFCURVE",
"761 706 OFFCURVE",
"765 755 CURVE SMOOTH",
"765 760 OFFCURVE",
"763 762 OFFCURVE",
"760 763 CURVE",
"756 763 OFFCURVE",
"706 764 OFFCURVE",
"695 764 CURVE SMOOTH",
"690 764 OFFCURVE",
"685 761 OFFCURVE",
"688 754 CURVE SMOOTH",
"695 741 OFFCURVE",
"698 693 OFFCURVE",
"698 642 CURVE SMOOTH",
"698 -77 LINE SMOOTH",
"698 -80 OFFCURVE",
"699 -82 OFFCURVE",
"702 -82 CURVE SMOOTH",
"709 -82 OFFCURVE",
"746 -79 OFFCURVE",
"753 -79 CURVE SMOOTH"
);
},
{
closed = 1;
nodes = (
"82 193 OFFCURVE",
"80 188 OFFCURVE",
"81 185 CURVE SMOOTH",
"86 162 OFFCURVE",
"89 153 OFFCURVE",
"94 138 CURVE SMOOTH",
"98 126 OFFCURVE",
"99 125 OFFCURVE",
"114 126 CURVE SMOOTH",
"158 130 OFFCURVE",
"217 134 OFFCURVE",
"289 139 CURVE SMOOTH",
"398 147 OFFCURVE",
"600 178 OFFCURVE",
"659 194 CURVE SMOOTH",
"667 197 OFFCURVE",
"672 199 OFFCURVE",
"671 211 CURVE SMOOTH",
"667 239 LINE SMOOTH",
"666 244 OFFCURVE",
"663 246 OFFCURVE",
"658 244 CURVE",
"569 220 OFFCURVE",
"371 194 OFFCURVE",
"273 191 CURVE SMOOTH",
"185 188 OFFCURVE",
"117 188 OFFCURVE",
"89 192 CURVE SMOOTH"
);
}
);
width = 900;
}
);
note = cid00407;
unicode = 3162;
},
{
glyphname = "iCompa-ko";
lastChange = "2019-11-29 11:50:09 +0000";
layers = (
{
layerId = "210D674B-AD98-4874-A618-1698A23DB8A1";
paths = (
{
closed = 1;
nodes = (
"480 -78 OFFCURVE",
"481 -77 OFFCURVE",
"481 -57 CURVE SMOOTH",
"481 627 LINE SMOOTH",
"481 675 OFFCURVE",
"481 706 OFFCURVE",
"485 755 CURVE SMOOTH",
"485 760 OFFCURVE",
"483 762 OFFCURVE",
"480 763 CURVE",
"476 763 OFFCURVE",
"426 764 OFFCURVE",
"415 764 CURVE SMOOTH",
"410 764 OFFCURVE",
"405 761 OFFCURVE",
"408 754 CURVE SMOOTH",
"415 741 OFFCURVE",
"418 693 OFFCURVE",
"418 642 CURVE SMOOTH",
"418 -77 LINE SMOOTH",
"418 -80 OFFCURVE",
"419 -82 OFFCURVE",
"422 -82 CURVE SMOOTH",
"429 -82 OFFCURVE",
"466 -79 OFFCURVE",
"473 -79 CURVE SMOOTH"
);
}
);
width = 900;
}
);
note = cid00408;
unicode = 3163;
},
{
glyphname = "ssangnieunCompa-ko";
lastChange = "2019-11-29 11:50:09 +0000";
layers = (
{
layerId = "210D674B-AD98-4874-A618-1698A23DB8A1";
paths = (
{
closed = 1;
nodes = (
"127 226 LINE SMOOTH",
"126 179 OFFCURVE",
"143 144 OFFCURVE",
"168 141 CURVE SMOOTH",
"222 138 OFFCURVE",
"375 168 OFFCURVE",
"435 197 CURVE SMOOTH",
"444 202 OFFCURVE",
"447 208 OFFCURVE",
"446 216 CURVE SMOOTH",
"440 249 LINE SMOOTH",
"439 256 OFFCURVE",
"436 257 OFFCURVE",
"429 254 CURVE SMOOTH",
"372 228 OFFCURVE",
"243 206 OFFCURVE",
"210 209 CURVE SMOOTH",
"195 210 OFFCURVE",
"194 230 OFFCURVE",
"194 258 CURVE SMOOTH",
"194 438 LINE SMOOTH",
"194 478 OFFCURVE",
"196 496 OFFCURVE",
"196 531 CURVE SMOOTH",
"196 538 OFFCURVE",
"194 541 OFFCURVE",
"191 542 CURVE",
"186 542 OFFCURVE",
"135 545 OFFCURVE",
"124 545 CURVE SMOOTH",
"117 545 OFFCURVE",
"115 541 OFFCURVE",
"116 534 CURVE",
"121 519 OFFCURVE",
"127 485 OFFCURVE",
"127 434 CURVE SMOOTH"
);
},
{
closed = 1;
nodes = (
"478 241 LINE SMOOTH",
"477 177 OFFCURVE",
"495 150 OFFCURVE",
"542 153 CURVE SMOOTH",
"661 158 OFFCURVE",
"737 161 OFFCURVE",
"782 161 CURVE SMOOTH",
"801 161 OFFCURVE",
"803 163 OFFCURVE",
"803 171 CURVE SMOOTH",
"803 186 OFFCURVE",
"801 199 OFFCURVE",
"798 214 CURVE SMOOTH",
"797 221 OFFCURVE",
"794 225 OFFCURVE",
"781 222 CURVE SMOOTH",
"752 217 OFFCURVE",
"636 206 OFFCURVE",
"571 206 CURVE SMOOTH",
"550 206 OFFCURVE",
"545 211 OFFCURVE",
"545 251 CURVE SMOOTH",
"545 442 LINE SMOOTH",
"545 482 OFFCURVE",
"547 500 OFFCURVE",
"547 535 CURVE SMOOTH",
"547 542 OFFCURVE",
"545 545 OFFCURVE",
"542 546 CURVE",
"537 546 OFFCURVE",
"486 549 OFFCURVE",
"475 549 CURVE SMOOTH",
"468 549 OFFCURVE",
"466 545 OFFCURVE",
"467 538 CURVE",
"472 523 OFFCURVE",
"478 489 OFFCURVE",
"478 438 CURVE SMOOTH"
);
}
);
width = 900;
}
);
note = cid00409;
unicode = 3165;
},
{
glyphname = "nieunTikeutCompa-ko";
lastChange = "2019-11-29 11:50:09 +0000";
layers = (
{
layerId = "210D674B-AD98-4874-A618-1698A23DB8A1";
paths = (
{
closed = 1;
nodes = (
"670 160 OFFCURVE",
"734 163 OFFCURVE",
"779 163 CURVE SMOOTH",
"798 163 OFFCURVE",
"800 165 OFFCURVE",
"800 173 CURVE SMOOTH",
"800 188 OFFCURVE",
"798 201 OFFCURVE",
"795 216 CURVE SMOOTH",
"794 223 OFFCURVE",
"791 227 OFFCURVE",
"778 224 CURVE SMOOTH",
"749 219 OFFCURVE",
"640 208 OFFCURVE",
"576 208 CURVE SMOOTH",
"555 208 OFFCURVE",
"550 213 OFFCURVE",
"550 253 CURVE SMOOTH",
"550 497 LINE",
"630 501 OFFCURVE",
"695 503 OFFCURVE",
"775 503 CURVE SMOOTH",
"784 503 OFFCURVE",
"788 507 OFFCURVE",
"787 515 CURVE SMOOTH",
"787 520 OFFCURVE",
"787 524 OFFCURVE",
"786 529 CURVE SMOOTH",
"782 555 LINE SMOOTH",
"781 562 OFFCURVE",
"774 563 OFFCURVE",
"770 562 CURVE SMOOTH",
"751 557 OFFCURVE",
"607 548 OFFCURVE",
"532 548 CURVE SMOOTH",
"508 549 OFFCURVE",
"489 551 OFFCURVE",
"481 551 CURVE SMOOTH",
"476 551 OFFCURVE",
"471 544 OFFCURVE",
"475 536 CURVE SMOOTH",
"482 523 OFFCURVE",
"487 485 OFFCURVE",
"487 438 CURVE SMOOTH",
"487 243 LINE SMOOTH",
"486 179 OFFCURVE",
"504 152 OFFCURVE",
"551 155 CURVE SMOOTH"
);
},
{
closed = 1;
nodes = (
"127 226 LINE SMOOTH",
"126 179 OFFCURVE",
"143 144 OFFCURVE",
"168 141 CURVE SMOOTH",
"221 138 OFFCURVE",
"380 168 OFFCURVE",
"440 197 CURVE SMOOTH",
"449 202 OFFCURVE",
"452 208 OFFCURVE",
"451 216 CURVE SMOOTH",
"445 249 LINE SMOOTH",
"444 256 OFFCURVE",
"441 257 OFFCURVE",
"434 254 CURVE SMOOTH",
"376 228 OFFCURVE",
"242 206 OFFCURVE",
"210 209 CURVE SMOOTH",
"195 210 OFFCURVE",
"194 230 OFFCURVE",
"194 258 CURVE SMOOTH",
"194 438 LINE SMOOTH",
"194 478 OFFCURVE",
"196 496 OFFCURVE",
"196 531 CURVE SMOOTH",
"196 538 OFFCURVE",
"194 541 OFFCURVE",
"191 542 CURVE",
"186 542 OFFCURVE",
"135 545 OFFCURVE",
"124 545 CURVE SMOOTH",
"117 545 OFFCURVE",
"115 541 OFFCURVE",
"116 534 CURVE",
"121 519 OFFCURVE",
"127 485 OFFCURVE",
"127 434 CURVE SMOOTH"
);
}
);
width = 900;
}
);
note = cid00410;
unicode = 3166;
},
{
glyphname = "nieunSiosCompa-ko";
lastChange = "2019-11-29 11:50:09 +0000";
layers = (
{
layerId = "210D674B-AD98-4874-A618-1698A23DB8A1";
paths = (
{
closed = 1;
nodes = (
"432 114 LINE",
"439 109 OFFCURVE",
"447 110 OFFCURVE",
"456 117 CURVE SMOOTH",
"524 177 OFFCURVE",
"585 267 OFFCURVE",
"624 350 CURVE",
"686 294 OFFCURVE",
"756 208 OFFCURVE",
"793 146 CURVE SMOOTH",
"796 142 OFFCURVE",
"799 141 OFFCURVE",
"804 144 CURVE SMOOTH",
"823 156 OFFCURVE",
"832 168 OFFCURVE",
"845 185 CURVE SMOOTH",
"853 196 OFFCURVE",
"849 201 OFFCURVE",
"844 212 CURVE",
"812 255 OFFCURVE",
"725 326 OFFCURVE",
"645 396 CURVE",
"654 417 OFFCURVE",
"660 436 OFFCURVE",
"665 455 CURVE SMOOTH",
"674 488 OFFCURVE",
"682 521 OFFCURVE",
"689 556 CURVE SMOOTH",
"690 559 OFFCURVE",
"688 566 OFFCURVE",
"683 563 CURVE",
"613 577 LINE",
"609 577 OFFCURVE",
"602 576 OFFCURVE",
"603 567 CURVE",
"610 536 OFFCURVE",
"605 488 OFFCURVE",
"593 447 CURVE SMOOTH",
"563 337 OFFCURVE",
"474 200 OFFCURVE",
"402 139 CURVE SMOOTH",
"399 136 OFFCURVE",
"397 132 OFFCURVE",
"401 129 CURVE"
);
},
{
closed = 1;
nodes = (
"117 246 LINE SMOOTH",
"116 199 OFFCURVE",
"133 165 OFFCURVE",
"158 162 CURVE SMOOTH",
"211 157 OFFCURVE",
"371 192 OFFCURVE",
"431 221 CURVE SMOOTH",
"440 225 OFFCURVE",
"442 233 OFFCURVE",
"441 240 CURVE SMOOTH",
"436 268 LINE SMOOTH",
"435 275 OFFCURVE",
"432 277 OFFCURVE",
"425 274 CURVE SMOOTH",
"366 247 OFFCURVE",
"231 222 OFFCURVE",
"198 225 CURVE SMOOTH",
"186 226 OFFCURVE",
"181 231 OFFCURVE",
"181 274 CURVE SMOOTH",
"181 445 LINE SMOOTH",
"181 484 OFFCURVE",
"181 502 OFFCURVE",
"184 537 CURVE SMOOTH",
"184 544 OFFCURVE",
"185 547 OFFCURVE",
"178 548 CURVE SMOOTH",
"174 548 OFFCURVE",
"124 551 OFFCURVE",
"113 551 CURVE SMOOTH",
"107 551 OFFCURVE",
"105 547 OFFCURVE",
"106 540 CURVE SMOOTH",
"110 525 OFFCURVE",
"117 491 OFFCURVE",
"117 440 CURVE SMOOTH"
);
}
);
width = 900;
}
);
note = cid00411;
unicode = 3167;
},
{
glyphname = "nieunPansiosCompa-ko";
lastChange = "2019-11-29 11:50:09 +0000";
layers = (
{
layerId = "210D674B-AD98-4874-A618-1698A23DB8A1";
paths = (
{
closed = 1;
nodes = (
"117 256 LINE SMOOTH",
"116 209 OFFCURVE",
"133 175 OFFCURVE",
"158 172 CURVE SMOOTH",
"211 167 OFFCURVE",
"371 202 OFFCURVE",
"431 231 CURVE SMOOTH",
"440 235 OFFCURVE",
"442 243 OFFCURVE",
"441 250 CURVE SMOOTH",
"436 278 LINE SMOOTH",
"435 285 OFFCURVE",
"432 287 OFFCURVE",
"425 284 CURVE SMOOTH",
"366 257 OFFCURVE",
"231 232 OFFCURVE",
"198 235 CURVE SMOOTH",
"186 236 OFFCURVE",
"181 241 OFFCURVE",
"181 284 CURVE SMOOTH",
"181 445 LINE SMOOTH",
"181 484 OFFCURVE",
"181 502 OFFCURVE",
"184 537 CURVE SMOOTH",
"184 544 OFFCURVE",
"185 547 OFFCURVE",
"178 548 CURVE SMOOTH",
"174 548 OFFCURVE",
"124 551 OFFCURVE",
"113 551 CURVE SMOOTH",
"107 551 OFFCURVE",
"105 547 OFFCURVE",
"106 540 CURVE SMOOTH",
"110 525 OFFCURVE",
"117 491 OFFCURVE",
"117 440 CURVE SMOOTH"
);
},
{
closed = 1;
nodes = (
"448 150 LINE",
"455 145 OFFCURVE",
"458 146 OFFCURVE",
"465 147 CURVE SMOOTH",
"540 150 OFFCURVE",
"730 154 OFFCURVE",
"799 154 CURVE SMOOTH",
"809 154 OFFCURVE",
"827 180 OFFCURVE",
"821 186 CURVE",
"797 222 OFFCURVE",
"698 449 OFFCURVE",
"662 522 CURVE",
"670 542 OFFCURVE",
"670 549 OFFCURVE",
"673 562 CURVE SMOOTH",
"674 566 OFFCURVE",
"673 569 OFFCURVE",
"668 570 CURVE SMOOTH",
"610 585 LINE",
"606 585 OFFCURVE",
"599 584 OFFCURVE",
"600 575 CURVE SMOOTH",
"603 544 OFFCURVE",
"598 518 OFFCURVE",
"581 479 CURVE SMOOTH",
"556 422 OFFCURVE",
"464 228 OFFCURVE",
"424 192 CURVE SMOOTH",
"420 189 OFFCURVE",
"420 186 OFFCURVE",
"423 182 CURVE SMOOTH"
);
},
{
closed = 1;
nodes = (
"644 454 OFFCURVE",
"743 206 OFFCURVE",
"747 206 CURVE SMOOTH",
"689 201 OFFCURVE",
"572 199 OFFCURVE",
"498 199 CURVE",
"553 291 OFFCURVE",
"618 439 OFFCURVE",
"632 466 CURVE"
);
}
);
width = 900;
}
);
note = cid00412;
unicode = 3168;
},
{
glyphname = "rieulKiyeokSiosCompa-ko";
lastChange = "2019-11-29 11:50:09 +0000";
layers = (
{
layerId = "210D674B-AD98-4874-A618-1698A23DB8A1";
paths = (
{
closed = 1;
nodes = (
"256 333 OFFCURVE",
"263 336 OFFCURVE",
"264 351 CURVE SMOOTH",
"268 414 OFFCURVE",
"269 461 OFFCURVE",
"276 524 CURVE SMOOTH",
"276 527 OFFCURVE",
"276 535 OFFCURVE",
"269 536 CURVE SMOOTH",
"222 544 LINE SMOOTH",
"218 545 OFFCURVE",
"215 544 OFFCURVE",
"208 543 CURVE SMOOTH",
"151 534 OFFCURVE",
"94 529 OFFCURVE",
"39 536 CURVE SMOOTH",
"32 537 OFFCURVE",
"30 532 OFFCURVE",
"31 529 CURVE SMOOTH",
"38 489 LINE SMOOTH",
"39 480 OFFCURVE",
"41 473 OFFCURVE",
"56 474 CURVE SMOOTH",
"129 482 LINE SMOOTH",
"183 485 OFFCURVE",
"144 486 OFFCURVE",
"202 486 CURVE SMOOTH",
"213 486 OFFCURVE",
"211 485 OFFCURVE",
"211 474 CURVE SMOOTH",
"209 383 LINE",
"130 375 OFFCURVE",
"66 375 OFFCURVE",
"43 378 CURVE SMOOTH",
"34 379 OFFCURVE",
"29 369 OFFCURVE",
"32 365 CURVE",
"40 342 OFFCURVE",
"43 327 OFFCURVE",
"43 304 CURVE SMOOTH",
"43 223 LINE SMOOTH",
"42 179 OFFCURVE",
"57 147 OFFCURVE",
"80 144 CURVE SMOOTH",
"138 136 OFFCURVE",
"288 175 OFFCURVE",
"342 199 CURVE SMOOTH",
"350 203 OFFCURVE",
"352 210 OFFCURVE",
"351 217 CURVE SMOOTH",
"347 246 LINE SMOOTH",
"346 252 OFFCURVE",
"342 254 OFFCURVE",
"337 251 CURVE SMOOTH",
"281 219 OFFCURVE",
"161 198 OFFCURVE",
"118 203 CURVE",
"105 206 OFFCURVE",
"104 223 OFFCURVE",
"104 250 CURVE SMOOTH",
"104 327 LINE",
"207 330 OFFCURVE",
"162 333 OFFCURVE",
"249 333 CURVE SMOOTH"
);
},
{
closed = 1;
nodes = (
"563 135 LINE",
"573 132 OFFCURVE",
"582 133 OFFCURVE",
"590 138 CURVE",
"649 198 OFFCURVE",
"689 268 OFFCURVE",
"717 332 CURVE",
"761 283 OFFCURVE",
"804 217 OFFCURVE",
"835 161 CURVE",
"837 156 OFFCURVE",
"841 156 OFFCURVE",
"846 159 CURVE SMOOTH",
"861 171 OFFCURVE",
"873 179 OFFCURVE",
"885 192 CURVE SMOOTH",
"893 201 OFFCURVE",
"891 211 OFFCURVE",
"884 219 CURVE SMOOTH",
"853 259 OFFCURVE",
"803 313 OFFCURVE",
"735 377 CURVE",
"743 401 OFFCURVE",
"750 423 OFFCURVE",
"755 442 CURVE SMOOTH",
"764 474 OFFCURVE",
"771 505 OFFCURVE",
"779 536 CURVE SMOOTH",
"780 540 OFFCURVE",
"780 546 OFFCURVE",
"773 547 CURVE SMOOTH",
"712 559 LINE SMOOTH",
"705 560 OFFCURVE",
"702 558 OFFCURVE",
"703 553 CURVE SMOOTH",
"706 522 OFFCURVE",
"703 477 OFFCURVE",
"692 438 CURVE SMOOTH",
"671 352 OFFCURVE",
"605 216 OFFCURVE",
"539 161 CURVE SMOOTH",
"536 158 OFFCURVE",
"534 154 OFFCURVE",
"539 151 CURVE SMOOTH"
);
},
{
closed = 1;
nodes = (
"491 177 LINE SMOOTH",
"491 174 OFFCURVE",
"492 172 OFFCURVE",
"495 172 CURVE SMOOTH",
"501 172 OFFCURVE",
"534 175 OFFCURVE",
"541 175 CURVE SMOOTH",
"548 176 OFFCURVE",
"555 175 OFFCURVE",
"555 194 CURVE SMOOTH",
"555 433 LINE SMOOTH",
"555 455 OFFCURVE",
"558 507 OFFCURVE",
"558 526 CURVE SMOOTH",
"558 529 OFFCURVE",
"558 535 OFFCURVE",
"553 536 CURVE SMOOTH",
"500 546 LINE SMOOTH",
"495 547 OFFCURVE",
"492 546 OFFCURVE",
"485 545 CURVE SMOOTH",
"433 535 OFFCURVE",
"348 532 OFFCURVE",
"304 537 CURVE SMOOTH",
"297 538 OFFCURVE",
"293 533 OFFCURVE",
"294 530 CURVE SMOOTH",
"305 485 LINE SMOOTH",
"308 472 OFFCURVE",
"308 468 OFFCURVE",
"323 471 CURVE SMOOTH",
"388 479 OFFCURVE",
"430 481 OFFCURVE",
"481 482 CURVE SMOOTH",
"492 482 OFFCURVE",
"491 480 OFFCURVE",
"491 469 CURVE SMOOTH"
);
}
);
width = 900;
}
);
note = cid00413;
unicode = 3169;
},
{
glyphname = "rieulTikeutCompa-ko";
lastChange = "2019-11-29 11:50:09 +0000";
layers = (
{
layerId = "210D674B-AD98-4874-A618-1698A23DB8A1";
paths = (
{
closed = 1;
nodes = (
"390 333 LINE SMOOTH",
"397 333 OFFCURVE",
"406 335 OFFCURVE",
"407 350 CURVE SMOOTH",
"411 414 OFFCURVE",
"414 464 OFFCURVE",
"422 528 CURVE SMOOTH",
"422 531 OFFCURVE",
"422 537 OFFCURVE",
"415 538 CURVE SMOOTH",
"367 545 LINE",
"362 548 OFFCURVE",
"358 545 OFFCURVE",
"351 544 CURVE SMOOTH",
"288 536 OFFCURVE",
"185 530 OFFCURVE",
"125 538 CURVE SMOOTH",
"118 539 OFFCURVE",
"116 534 OFFCURVE",
"117 530 CURVE SMOOTH",
"123 491 LINE",
"126 483 OFFCURVE",
"127 476 OFFCURVE",
"143 477 CURVE SMOOTH",
"226 485 LINE SMOOTH",
"285 488 OFFCURVE",
"280 489 OFFCURVE",
"344 489 CURVE SMOOTH",
"356 489 OFFCURVE",
"354 488 OFFCURVE",
"354 477 CURVE SMOOTH",
"348 384 LINE",
"261 376 OFFCURVE",
"153 375 OFFCURVE",
"130 380 CURVE",
"119 381 OFFCURVE",
"115 371 OFFCURVE",
"118 367 CURVE",
"126 344 OFFCURVE",
"130 327 OFFCURVE",
"130 304 CURVE SMOOTH",
"130 226 LINE",
"127 179 OFFCURVE",
"146 148 OFFCURVE",
"170 145 CURVE SMOOTH",
"233 140 OFFCURVE",
"392 167 OFFCURVE",
"451 195 CURVE",
"459 200 OFFCURVE",
"462 206 OFFCURVE",
"461 214 CURVE SMOOTH",
"456 243 LINE SMOOTH",
"455 250 OFFCURVE",
"451 251 OFFCURVE",
"445 248 CURVE SMOOTH",
"382 217 OFFCURVE",
"258 202 OFFCURVE",
"210 205 CURVE SMOOTH",
"195 206 OFFCURVE",
"194 226 OFFCURVE",
"194 253 CURVE SMOOTH",
"194 327 LINE"
);
},
{
closed = 1;
nodes = (
"665 160 OFFCURVE",
"729 163 OFFCURVE",
"774 163 CURVE SMOOTH",
"793 163 OFFCURVE",
"795 165 OFFCURVE",
"795 173 CURVE SMOOTH",
"795 188 OFFCURVE",
"793 201 OFFCURVE",
"790 216 CURVE SMOOTH",
"789 223 OFFCURVE",
"786 227 OFFCURVE",
"773 224 CURVE SMOOTH",
"744 219 OFFCURVE",
"635 208 OFFCURVE",
"571 208 CURVE SMOOTH",
"550 208 OFFCURVE",
"545 213 OFFCURVE",
"545 253 CURVE SMOOTH",
"545 497 LINE",
"625 501 OFFCURVE",
"690 503 OFFCURVE",
"770 503 CURVE SMOOTH",
"779 503 OFFCURVE",
"783 507 OFFCURVE",
"782 515 CURVE SMOOTH",
"782 520 OFFCURVE",
"782 524 OFFCURVE",
"781 529 CURVE SMOOTH",
"777 555 LINE SMOOTH",
"776 562 OFFCURVE",
"769 563 OFFCURVE",
"765 562 CURVE SMOOTH",
"746 557 OFFCURVE",
"602 548 OFFCURVE",
"527 548 CURVE SMOOTH",
"503 549 OFFCURVE",
"484 551 OFFCURVE",
"476 551 CURVE SMOOTH",
"471 551 OFFCURVE",
"466 544 OFFCURVE",
"470 536 CURVE SMOOTH",
"477 523 OFFCURVE",
"482 485 OFFCURVE",
"482 438 CURVE SMOOTH",
"482 243 LINE SMOOTH",
"481 179 OFFCURVE",
"499 152 OFFCURVE",
"546 155 CURVE SMOOTH"
);
}
);
width = 900;
}
);
note = cid00414;
unicode = 316A;
},
{
glyphname = "rieulPieupSiosCompa-ko";
lastChange = "2019-11-29 11:50:09 +0000";
layers = (
{
layerId = "210D674B-AD98-4874-A618-1698A23DB8A1";
paths = (
{
closed = 1;
nodes = (
"432 541 OFFCURVE",
"430 544 OFFCURVE",
"426 544 CURVE SMOOTH",
"370 544 LINE SMOOTH",
"363 544 OFFCURVE",
"361 541 OFFCURVE",
"363 534 CURVE SMOOTH",
"367 519 OFFCURVE",
"372 477 OFFCURVE",
"373 438 CURVE SMOOTH",
"373 369 OFFCURVE",
"374 200 OFFCURVE",
"374 167 CURVE SMOOTH",
"374 159 OFFCURVE",
"380 159 OFFCURVE",
"383 159 CURVE SMOOTH",
"386 159 OFFCURVE",
"421 164 OFFCURVE",
"434 164 CURVE SMOOTH",
"489 164 OFFCURVE",
"605 163 OFFCURVE",
"622 163 CURVE SMOOTH",
"630 163 OFFCURVE",
"637 169 OFFCURVE",
"637 176 CURVE SMOOTH",
"637 433 LINE SMOOTH",
"637 483 OFFCURVE",
"636 490 OFFCURVE",
"639 543 CURVE SMOOTH",
"639 550 OFFCURVE",
"637 554 OFFCURVE",
"634 554 CURVE SMOOTH",
"577 554 LINE SMOOTH",
"572 554 OFFCURVE",
"566 551 OFFCURVE",
"570 543 CURVE SMOOTH",
"577 527 OFFCURVE",
"577 487 OFFCURVE",
"577 434 CURVE SMOOTH",
"577 411 LINE",
"533 406 OFFCURVE",
"464 406 OFFCURVE",
"431 406 CURVE",
"431 437 LINE SMOOTH",
"431 474 OFFCURVE",
"431 497 OFFCURVE",
"432 534 CURVE SMOOTH"
);
},
{
closed = 1;
nodes = (
"285 330 OFFCURVE",
"293 332 OFFCURVE",
"294 347 CURVE SMOOTH",
"298 411 OFFCURVE",
"301 464 OFFCURVE",
"309 527 CURVE SMOOTH",
"309 530 OFFCURVE",
"309 536 OFFCURVE",
"302 537 CURVE SMOOTH",
"256 545 LINE SMOOTH",
"252 546 OFFCURVE",
"248 545 OFFCURVE",
"241 544 CURVE SMOOTH",
"181 536 OFFCURVE",
"99 529 OFFCURVE",
"42 537 CURVE SMOOTH",
"35 538 OFFCURVE",
"34 533 OFFCURVE",
"35 530 CURVE",
"40 492 LINE",
"43 483 OFFCURVE",
"44 477 OFFCURVE",
"59 478 CURVE SMOOTH",
"138 485 LINE SMOOTH",
"194 490 OFFCURVE",
"170 490 OFFCURVE",
"230 490 CURVE SMOOTH",
"242 490 OFFCURVE",
"244 487 OFFCURVE",
"244 478 CURVE SMOOTH",
"238 380 LINE",
"156 372 OFFCURVE",
"68 371 OFFCURVE",
"47 376 CURVE",
"36 377 OFFCURVE",
"34 367 OFFCURVE",
"35 364 CURVE SMOOTH",
"43 341 OFFCURVE",
"47 325 OFFCURVE",
"47 302 CURVE SMOOTH",
"47 219 LINE",
"44 174 OFFCURVE",
"62 142 OFFCURVE",
"85 139 CURVE",
"146 136 OFFCURVE",
"280 162 OFFCURVE",
"336 189 CURVE SMOOTH",
"345 193 OFFCURVE",
"347 200 OFFCURVE",
"346 207 CURVE SMOOTH",
"341 235 LINE SMOOTH",
"340 242 OFFCURVE",
"337 244 OFFCURVE",
"330 241 CURVE SMOOTH",
"270 211 OFFCURVE",
"168 196 OFFCURVE",
"123 199 CURVE SMOOTH",
"108 200 OFFCURVE",
"108 218 OFFCURVE",
"108 245 CURVE SMOOTH",
"108 324 LINE",
"216 328 OFFCURVE",
"186 326 OFFCURVE",
"278 330 CURVE SMOOTH"
);
},
{
closed = 1;
nodes = (
"665 135 LINE",
"675 132 OFFCURVE",
"684 133 OFFCURVE",
"692 138 CURVE",
"751 198 OFFCURVE",
"791 268 OFFCURVE",
"819 332 CURVE",
"863 283 OFFCURVE",
"906 217 OFFCURVE",
"937 161 CURVE",
"939 156 OFFCURVE",
"943 156 OFFCURVE",
"948 159 CURVE SMOOTH",
"963 171 OFFCURVE",
"975 179 OFFCURVE",
"987 192 CURVE SMOOTH",
"995 201 OFFCURVE",
"993 211 OFFCURVE",
"986 219 CURVE SMOOTH",
"955 259 OFFCURVE",
"905 313 OFFCURVE",
"837 377 CURVE",
"845 401 OFFCURVE",
"852 423 OFFCURVE",
"857 442 CURVE SMOOTH",
"866 474 OFFCURVE",
"873 505 OFFCURVE",
"881 536 CURVE SMOOTH",
"882 540 OFFCURVE",
"882 546 OFFCURVE",
"875 547 CURVE SMOOTH",
"814 559 LINE SMOOTH",
"807 560 OFFCURVE",
"804 558 OFFCURVE",
"805 553 CURVE SMOOTH",
"808 522 OFFCURVE",
"805 477 OFFCURVE",
"794 438 CURVE SMOOTH",
"773 352 OFFCURVE",
"707 216 OFFCURVE",
"641 161 CURVE SMOOTH",
"638 158 OFFCURVE",
"636 154 OFFCURVE",
"641 151 CURVE SMOOTH"
);
},
{
closed = 1;
nodes = (
"431 356 LINE",
"482 359 OFFCURVE",
"521 359 OFFCURVE",
"577 359 CURVE",
"577 271 OFFCURVE",
"578 239 OFFCURVE",
"577 224 CURVE",
"542 219 OFFCURVE",
"463 221 OFFCURVE",
"431 221 CURVE"
);
}
);
width = 1000;
}
);
note = cid00415;
unicode = 316B;
},
{
glyphname = "rieulPanSiosCompa-ko";
lastChange = "2019-11-29 11:50:09 +0000";
layers = (
{
layerId = "210D674B-AD98-4874-A618-1698A23DB8A1";
paths = (
{
closed = 1;
nodes = (
"379 332 LINE SMOOTH",
"387 332 OFFCURVE",
"395 335 OFFCURVE",
"396 350 CURVE SMOOTH",
"401 414 OFFCURVE",
"406 466 OFFCURVE",
"417 530 CURVE",
"417 533 OFFCURVE",
"417 539 OFFCURVE",
"410 540 CURVE SMOOTH",
"360 548 LINE",
"357 549 OFFCURVE",
"351 548 OFFCURVE",
"344 547 CURVE SMOOTH",
"280 539 OFFCURVE",
"173 532 OFFCURVE",
"114 540 CURVE SMOOTH",
"107 541 OFFCURVE",
"104 536 OFFCURVE",
"105 533 CURVE SMOOTH",
"112 494 LINE",
"115 485 OFFCURVE",
"116 479 OFFCURVE",
"132 480 CURVE SMOOTH",
"214 487 LINE SMOOTH",
"273 492 OFFCURVE",
"273 489 OFFCURVE",
"337 492 CURVE SMOOTH",
"349 492 OFFCURVE",
"347 489 OFFCURVE",
"347 480 CURVE SMOOTH",
"340 383 LINE",
"254 375 OFFCURVE",
"142 376 OFFCURVE",
"118 379 CURVE SMOOTH",
"109 380 OFFCURVE",
"103 370 OFFCURVE",
"106 366 CURVE",
"115 343 OFFCURVE",
"118 326 OFFCURVE",
"118 303 CURVE SMOOTH",
"118 228 LINE SMOOTH",
"117 183 OFFCURVE",
"134 150 OFFCURVE",
"159 147 CURVE",
"223 144 OFFCURVE",
"366 170 OFFCURVE",
"426 199 CURVE SMOOTH",
"435 203 OFFCURVE",
"438 209 OFFCURVE",
"437 218 CURVE SMOOTH",
"431 247 LINE SMOOTH",
"430 253 OFFCURVE",
"426 255 OFFCURVE",
"421 252 CURVE SMOOTH",
"358 220 OFFCURVE",
"246 205 OFFCURVE",
"198 208 CURVE SMOOTH",
"183 209 OFFCURVE",
"182 228 OFFCURVE",
"182 255 CURVE SMOOTH",
"182 326 LINE"
);
},
{
closed = 1;
nodes = (
"455 140 LINE",
"462 135 OFFCURVE",
"465 136 OFFCURVE",
"472 137 CURVE SMOOTH",
"546 140 OFFCURVE",
"732 144 OFFCURVE",
"801 144 CURVE SMOOTH",
"811 144 OFFCURVE",
"829 170 OFFCURVE",
"823 176 CURVE",
"799 211 OFFCURVE",
"701 437 OFFCURVE",
"669 512 CURVE",
"677 532 OFFCURVE",
"677 539 OFFCURVE",
"680 552 CURVE SMOOTH",
"681 556 OFFCURVE",
"680 559 OFFCURVE",
"675 560 CURVE SMOOTH",
"617 575 LINE",
"613 575 OFFCURVE",
"606 574 OFFCURVE",
"607 565 CURVE SMOOTH",
"610 534 OFFCURVE",
"605 508 OFFCURVE",
"588 469 CURVE SMOOTH",
"563 412 OFFCURVE",
"471 218 OFFCURVE",
"431 182 CURVE SMOOTH",
"427 179 OFFCURVE",
"427 176 OFFCURVE",
"430 172 CURVE SMOOTH"
);
},
{
closed = 1;
nodes = (
"651 444 OFFCURVE",
"745 196 OFFCURVE",
"749 196 CURVE SMOOTH",
"690 191 OFFCURVE",
"580 189 OFFCURVE",
"505 189 CURVE",
"560 281 OFFCURVE",
"625 429 OFFCURVE",
"639 456 CURVE"
);
}
);
width = 900;
}
);
note = cid00416;
unicode = 316C;
},
{
glyphname = "rieulYeorinhieuhCompa-ko";
lastChange = "2019-11-29 11:50:09 +0000";
layers = (
{
layerId = "210D674B-AD98-4874-A618-1698A23DB8A1";
paths = (
{
closed = 1;
nodes = (
"514 416 OFFCURVE",
"466 344 OFFCURVE",
"466 276 CURVE SMOOTH",
"466 211 OFFCURVE",
"522 137 OFFCURVE",
"626 140 CURVE SMOOTH",
"730 143 OFFCURVE",
"787 215 OFFCURVE",
"787 283 CURVE SMOOTH",
"787 364 OFFCURVE",
"730 422 OFFCURVE",
"630 419 CURVE SMOOTH"
);
},
{
closed = 1;
nodes = (
"104 338 OFFCURVE",
"107 321 OFFCURVE",
"107 298 CURVE SMOOTH",
"107 224 LINE SMOOTH",
"106 179 OFFCURVE",
"124 146 OFFCURVE",
"148 143 CURVE",
"212 140 OFFCURVE",
"366 165 OFFCURVE",
"426 194 CURVE",
"437 198 OFFCURVE",
"438 205 OFFCURVE",
"437 212 CURVE SMOOTH",
"432 241 LINE SMOOTH",
"431 248 OFFCURVE",
"427 250 OFFCURVE",
"421 247 CURVE SMOOTH",
"358 215 OFFCURVE",
"236 200 OFFCURVE",
"188 203 CURVE SMOOTH",
"173 204 OFFCURVE",
"172 224 OFFCURVE",
"172 251 CURVE SMOOTH",
"172 321 LINE",
"286 324 OFFCURVE",
"263 325 OFFCURVE",
"360 328 CURVE SMOOTH",
"367 328 OFFCURVE",
"376 330 OFFCURVE",
"377 345 CURVE SMOOTH",
"381 409 OFFCURVE",
"385 454 OFFCURVE",
"392 518 CURVE SMOOTH",
"392 521 OFFCURVE",
"393 527 OFFCURVE",
"386 530 CURVE",
"338 537 LINE SMOOTH",
"331 538 OFFCURVE",
"328 537 OFFCURVE",
"321 536 CURVE SMOOTH",
"258 528 OFFCURVE",
"163 522 OFFCURVE",
"103 530 CURVE SMOOTH",
"96 531 OFFCURVE",
"94 525 OFFCURVE",
"95 522 CURVE",
"101 483 LINE",
"104 474 OFFCURVE",
"105 468 OFFCURVE",
"121 469 CURVE SMOOTH",
"204 477 LINE SMOOTH",
"263 480 OFFCURVE",
"250 481 OFFCURVE",
"314 481 CURVE SMOOTH",
"327 481 OFFCURVE",
"325 480 OFFCURVE",
"325 469 CURVE SMOOTH",
"318 378 LINE",
"232 370 OFFCURVE",
"131 371 OFFCURVE",
"107 374 CURVE SMOOTH",
"98 375 OFFCURVE",
"93 365 OFFCURVE",
"96 361 CURVE"
);
},
{
closed = 1;
nodes = (
"566 193 OFFCURVE",
"525 235 OFFCURVE",
"525 281 CURVE SMOOTH",
"525 329 OFFCURVE",
"557 374 OFFCURVE",
"630 377 CURVE SMOOTH",
"699 377 OFFCURVE",
"729 326 OFFCURVE",
"726 285 CURVE SMOOTH",
"723 236 OFFCURVE",
"687 194 OFFCURVE",
"626 193 CURVE SMOOTH"
);
},
{
closed = 1;
nodes = (
"816 476 LINE SMOOTH",
"825 476 OFFCURVE",
"828 483 OFFCURVE",
"827 490 CURVE SMOOTH",
"827 495 OFFCURVE",
"827 500 OFFCURVE",
"826 505 CURVE SMOOTH",
"822 532 LINE SMOOTH",
"821 540 OFFCURVE",
"815 541 OFFCURVE",
"810 540 CURVE SMOOTH",
"781 533 OFFCURVE",
"758 530 OFFCURVE",
"714 526 CURVE SMOOTH",
"656 521 OFFCURVE",
"572 514 OFFCURVE",
"431 522 CURVE SMOOTH",
"426 522 OFFCURVE",
"423 519 OFFCURVE",
"424 516 CURVE SMOOTH",
"429 496 OFFCURVE",
"431 483 OFFCURVE",
"436 467 CURVE SMOOTH",
"439 460 OFFCURVE",
"440 459 OFFCURVE",
"453 460 CURVE SMOOTH",
"561 471 OFFCURVE",
"642 476 OFFCURVE",
"721 476 CURVE SMOOTH"
);
}
);
width = 900;
}
);
note = cid00417;
unicode = 316D;
},
{
glyphname = "mieumPieupCompa-ko";
lastChange = "2019-11-29 11:50:09 +0000";
layers = (
{
layerId = "210D674B-AD98-4874-A618-1698A23DB8A1";
paths = (
{
closed = 1;
nodes = (
"152 529 OFFCURVE",
"168 528 OFFCURVE",
"191 528 CURVE SMOOTH",
"235 528 OFFCURVE",
"319 533 OFFCURVE",
"359 538 CURVE SMOOTH",
"366 539 OFFCURVE",
"368 540 OFFCURVE",
"375 539 CURVE SMOOTH",
"429 532 LINE",
"436 529 OFFCURVE",
"435 526 OFFCURVE",
"435 519 CURVE SMOOTH",
"428 415 LINE SMOOTH",
"425 327 OFFCURVE",
"425 244 OFFCURVE",
"426 163 CURVE SMOOTH",
"426 155 OFFCURVE",
"418 148 OFFCURVE",
"411 149 CURVE SMOOTH",
"395 152 OFFCURVE",
"253 151 OFFCURVE",
"198 148 CURVE SMOOTH",
"185 148 OFFCURVE",
"155 143 OFFCURVE",
"151 143 CURVE SMOOTH",
"150 143 OFFCURVE",
"143 143 OFFCURVE",
"143 151 CURVE SMOOTH",
"143 167 OFFCURVE",
"142 235 OFFCURVE",
"139 408 CURVE SMOOTH",
"139 440 OFFCURVE",
"129 506 OFFCURVE",
"123 515 CURVE SMOOTH",
"118 523 OFFCURVE",
"127 530 OFFCURVE",
"131 530 CURVE SMOOTH"
);
},
{
closed = 1;
nodes = (
"557 543 OFFCURVE",
"555 546 OFFCURVE",
"551 546 CURVE SMOOTH",
"492 546 LINE SMOOTH",
"485 546 OFFCURVE",
"482 543 OFFCURVE",
"484 536 CURVE SMOOTH",
"489 524 OFFCURVE",
"495 476 OFFCURVE",
"495 438 CURVE SMOOTH",
"495 369 OFFCURVE",
"496 190 OFFCURVE",
"496 158 CURVE SMOOTH",
"496 150 OFFCURVE",
"502 150 OFFCURVE",
"505 150 CURVE SMOOTH",
"508 150 OFFCURVE",
"546 155 OFFCURVE",
"559 155 CURVE SMOOTH",
"617 155 OFFCURVE",
"756 154 OFFCURVE",
"773 154 CURVE SMOOTH",
"781 154 OFFCURVE",
"789 160 OFFCURVE",
"789 168 CURVE SMOOTH",
"789 433 LINE SMOOTH",
"789 485 OFFCURVE",
"788 490 OFFCURVE",
"791 545 CURVE SMOOTH",
"791 552 OFFCURVE",
"789 556 OFFCURVE",
"785 556 CURVE SMOOTH",
"725 556 LINE SMOOTH",
"720 556 OFFCURVE",
"714 553 OFFCURVE",
"718 545 CURVE SMOOTH",
"725 529 OFFCURVE",
"725 489 OFFCURVE",
"725 434 CURVE SMOOTH",
"725 410 LINE",
"677 405 OFFCURVE",
"594 405 OFFCURVE",
"556 405 CURVE",
"556 437 LINE SMOOTH",
"556 476 OFFCURVE",
"556 497 OFFCURVE",
"557 536 CURVE SMOOTH"
);
},
{
closed = 1;
nodes = (
"197 475 LINE",
"201 200 LINE",
"233 200 OFFCURVE",
"332 198 OFFCURVE",
"365 204 CURVE",
"365 239 OFFCURVE",
"367 305 OFFCURVE",
"367 363 CURVE SMOOTH",
"368 396 OFFCURVE",
"368 432 OFFCURVE",
"368 469 CURVE SMOOTH",
"368 480 OFFCURVE",
"367 481 OFFCURVE",
"359 481 CURVE SMOOTH"
);
},
{
closed = 1;
nodes = (
"556 354 LINE",
"612 357 OFFCURVE",
"664 357 OFFCURVE",
"725 357 CURVE",
"725 266 OFFCURVE",
"726 232 OFFCURVE",
"725 216 CURVE",
"689 210 OFFCURVE",
"591 213 OFFCURVE",
"556 213 CURVE"
);
}
);
width = 900;
}
);
note = cid00418;
unicode = 316E;
},
{
glyphname = "mieumSiosCompa-ko";
lastChange = "2019-11-29 11:50:09 +0000";
layers = (
{
layerId = "210D674B-AD98-4874-A618-1698A23DB8A1";
paths = (
{
closed = 1;
nodes = (
"107 535 OFFCURVE",
"98 528 OFFCURVE",
"103 520 CURVE SMOOTH",
"109 511 OFFCURVE",
"119 445 OFFCURVE",
"119 413 CURVE SMOOTH",
"120 241 OFFCURVE",
"123 166 OFFCURVE",
"123 151 CURVE SMOOTH",
"123 143 OFFCURVE",
"130 143 OFFCURVE",
"131 143 CURVE SMOOTH",
"135 143 OFFCURVE",
"165 148 OFFCURVE",
"178 148 CURVE SMOOTH",
"233 151 OFFCURVE",
"382 152 OFFCURVE",
"398 149 CURVE SMOOTH",
"405 148 OFFCURVE",
"413 155 OFFCURVE",
"413 163 CURVE SMOOTH",
"412 244 OFFCURVE",
"412 332 OFFCURVE",
"415 420 CURVE SMOOTH",
"422 524 LINE SMOOTH",
"422 531 OFFCURVE",
"423 534 OFFCURVE",
"416 537 CURVE",
"362 544 LINE SMOOTH",
"355 545 OFFCURVE",
"353 544 OFFCURVE",
"346 543 CURVE SMOOTH",
"305 538 OFFCURVE",
"215 533 OFFCURVE",
"171 533 CURVE SMOOTH",
"148 533 OFFCURVE",
"132 534 OFFCURVE",
"111 535 CURVE SMOOTH"
);
},
{
closed = 1;
nodes = (
"432 102 LINE",
"439 97 OFFCURVE",
"447 98 OFFCURVE",
"456 105 CURVE SMOOTH",
"524 165 OFFCURVE",
"585 255 OFFCURVE",
"624 338 CURVE",
"686 282 OFFCURVE",
"756 196 OFFCURVE",
"793 134 CURVE SMOOTH",
"796 130 OFFCURVE",
"799 129 OFFCURVE",
"804 132 CURVE SMOOTH",
"823 144 OFFCURVE",
"832 156 OFFCURVE",
"845 173 CURVE SMOOTH",
"853 184 OFFCURVE",
"849 189 OFFCURVE",
"844 200 CURVE",
"812 243 OFFCURVE",
"725 314 OFFCURVE",
"645 384 CURVE",
"654 405 OFFCURVE",
"660 424 OFFCURVE",
"665 443 CURVE SMOOTH",
"674 476 OFFCURVE",
"682 509 OFFCURVE",
"689 544 CURVE SMOOTH",
"690 547 OFFCURVE",
"688 554 OFFCURVE",
"683 551 CURVE",
"613 565 LINE",
"609 565 OFFCURVE",
"602 564 OFFCURVE",
"603 555 CURVE",
"610 524 OFFCURVE",
"605 476 OFFCURVE",
"593 435 CURVE SMOOTH",
"563 325 OFFCURVE",
"474 188 OFFCURVE",
"402 127 CURVE SMOOTH",
"399 124 OFFCURVE",
"397 120 OFFCURVE",
"401 117 CURVE"
);
},
{
closed = 1;
nodes = (
"177 480 LINE",
"346 486 LINE SMOOTH",
"354 486 OFFCURVE",
"355 485 OFFCURVE",
"355 474 CURVE SMOOTH",
"355 436 OFFCURVE",
"355 400 OFFCURVE",
"354 365 CURVE SMOOTH",
"353 306 OFFCURVE",
"352 239 OFFCURVE",
"352 204 CURVE",
"319 199 OFFCURVE",
"213 200 OFFCURVE",
"181 200 CURVE"
);
}
);
width = 900;
}
);
note = cid00419;
unicode = 316F;
},
{
glyphname = "mieumPansiosCompa-ko";
lastChange = "2019-11-29 11:50:09 +0000";
layers = (
{
layerId = "210D674B-AD98-4874-A618-1698A23DB8A1";
paths = (
{
closed = 1;
nodes = (
"107 526 OFFCURVE",
"98 519 OFFCURVE",
"103 511 CURVE SMOOTH",
"109 502 OFFCURVE",
"119 436 OFFCURVE",
"119 404 CURVE SMOOTH",
"122 232 OFFCURVE",
"123 167 OFFCURVE",
"123 151 CURVE SMOOTH",
"123 143 OFFCURVE",
"130 143 OFFCURVE",
"131 143 CURVE SMOOTH",
"135 143 OFFCURVE",
"165 148 OFFCURVE",
"178 148 CURVE SMOOTH",
"233 151 OFFCURVE",
"375 152 OFFCURVE",
"391 149 CURVE SMOOTH",
"398 148 OFFCURVE",
"406 155 OFFCURVE",
"406 163 CURVE SMOOTH",
"405 244 OFFCURVE",
"405 323 OFFCURVE",
"408 411 CURVE SMOOTH",
"415 515 LINE SMOOTH",
"415 522 OFFCURVE",
"416 525 OFFCURVE",
"409 528 CURVE",
"355 535 LINE SMOOTH",
"348 536 OFFCURVE",
"346 535 OFFCURVE",
"339 534 CURVE SMOOTH",
"299 529 OFFCURVE",
"215 524 OFFCURVE",
"171 524 CURVE SMOOTH",
"148 524 OFFCURVE",
"132 525 OFFCURVE",
"111 526 CURVE SMOOTH"
);
},
{
closed = 1;
nodes = (
"453 130 LINE",
"460 125 OFFCURVE",
"463 126 OFFCURVE",
"470 127 CURVE SMOOTH",
"544 130 OFFCURVE",
"730 134 OFFCURVE",
"799 134 CURVE SMOOTH",
"809 134 OFFCURVE",
"827 160 OFFCURVE",
"821 166 CURVE",
"797 201 OFFCURVE",
"699 427 OFFCURVE",
"667 502 CURVE",
"675 522 OFFCURVE",
"675 529 OFFCURVE",
"678 542 CURVE SMOOTH",
"679 546 OFFCURVE",
"678 549 OFFCURVE",
"673 550 CURVE SMOOTH",
"615 565 LINE",
"611 565 OFFCURVE",
"604 564 OFFCURVE",
"605 555 CURVE SMOOTH",
"608 524 OFFCURVE",
"603 498 OFFCURVE",
"586 459 CURVE SMOOTH",
"561 402 OFFCURVE",
"469 208 OFFCURVE",
"429 172 CURVE SMOOTH",
"425 169 OFFCURVE",
"425 166 OFFCURVE",
"428 162 CURVE SMOOTH"
);
},
{
closed = 1;
nodes = (
"177 471 LINE",
"339 477 LINE SMOOTH",
"347 477 OFFCURVE",
"348 476 OFFCURVE",
"348 465 CURVE SMOOTH",
"348 428 OFFCURVE",
"348 394 OFFCURVE",
"347 361 CURVE SMOOTH",
"347 305 OFFCURVE",
"345 238 OFFCURVE",
"345 204 CURVE",
"312 198 OFFCURVE",
"213 200 OFFCURVE",
"181 200 CURVE"
);
},
{
closed = 1;
nodes = (
"649 434 OFFCURVE",
"743 186 OFFCURVE",
"747 186 CURVE SMOOTH",
"688 181 OFFCURVE",
"578 179 OFFCURVE",
"503 179 CURVE",
"558 271 OFFCURVE",
"623 419 OFFCURVE",
"637 446 CURVE"
);
}
);
width = 900;
}
);
note = cid00420;
unicode = 3170;
},
{
glyphname = "kapyeounmieumCompa-ko";
lastChange = "2019-11-29 11:50:09 +0000";
layers = (
{
layerId = "210D674B-AD98-4874-A618-1698A23DB8A1";
paths = (
{
closed = 1;
nodes = (
"234 621 OFFCURVE",
"228 613 OFFCURVE",
"233 605 CURVE SMOOTH",
"242 594 OFFCURVE",
"248 545 OFFCURVE",
"251 511 CURVE SMOOTH",
"262 305 OFFCURVE",
"260 314 OFFCURVE",
"260 301 CURVE SMOOTH",
"260 294 OFFCURVE",
"264 294 OFFCURVE",
"267 294 CURVE SMOOTH",
"271 294 OFFCURVE",
"303 299 OFFCURVE",
"316 299 CURVE SMOOTH",
"382 303 OFFCURVE",
"620 305 OFFCURVE",
"649 305 CURVE SMOOTH",
"656 305 OFFCURVE",
"663 310 OFFCURVE",
"663 317 CURVE SMOOTH",
"666 392 OFFCURVE",
"665 428 OFFCURVE",
"673 505 CURVE",
"673 523 OFFCURVE",
"679 584 OFFCURVE",
"684 613 CURVE SMOOTH",
"685 620 OFFCURVE",
"685 621 OFFCURVE",
"678 624 CURVE",
"630 635 LINE SMOOTH",
"619 638 OFFCURVE",
"615 636 OFFCURVE",
"610 635 CURVE SMOOTH",
"538 622 OFFCURVE",
"408 619 OFFCURVE",
"306 619 CURVE SMOOTH",
"286 619 OFFCURVE",
"261 621 OFFCURVE",
"241 621 CURVE SMOOTH"
);
},
{
closed = 1;
nodes = (
"311 567 LINE",
"601 577 LINE SMOOTH",
"608 577 OFFCURVE",
"611 574 OFFCURVE",
"610 567 CURVE",
"607 484 OFFCURVE",
"610 444 OFFCURVE",
"607 361 CURVE",
"543 353 OFFCURVE",
"384 350 OFFCURVE",
"317 353 CURVE"
);
},
{
closed = 1;
nodes = (
"365 204 OFFCURVE",
"319 134 OFFCURVE",
"319 69 CURVE SMOOTH",
"319 9 OFFCURVE",
"373 -65 OFFCURVE",
"473 -62 CURVE SMOOTH",
"572 -62 OFFCURVE",
"628 10 OFFCURVE",
"628 76 CURVE SMOOTH",
"628 151 OFFCURVE",
"573 210 OFFCURVE",
"477 207 CURVE SMOOTH"
);
},
{
closed = 1;
nodes = (
"414 -15 OFFCURVE",
"376 26 OFFCURVE",
"376 70 CURVE SMOOTH",
"376 121 OFFCURVE",
"405 159 OFFCURVE",
"477 162 CURVE SMOOTH",
"543 165 OFFCURVE",
"571 114 OFFCURVE",
"568 75 CURVE SMOOTH",
"564 26 OFFCURVE",
"533 -11 OFFCURVE",
"473 -12 CURVE SMOOTH"
);
}
);
width = 900;
}
);
note = cid00421;
unicode = 3171;
},
{
glyphname = "pieupKiyeokCompa-ko";
lastChange = "2019-11-29 11:50:09 +0000";
layers = (
{
layerId = "210D674B-AD98-4874-A618-1698A23DB8A1";
paths = (
{
closed = 1;
nodes = (
"190 538 OFFCURVE",
"190 544 OFFCURVE",
"183 544 CURVE SMOOTH",
"123 544 LINE SMOOTH",
"117 544 OFFCURVE",
"115 540 OFFCURVE",
"116 533 CURVE SMOOTH",
"120 518 OFFCURVE",
"125 475 OFFCURVE",
"126 436 CURVE SMOOTH",
"129 366 OFFCURVE",
"128 192 OFFCURVE",
"128 160 CURVE SMOOTH",
"128 152 OFFCURVE",
"133 152 OFFCURVE",
"136 152 CURVE SMOOTH",
"139 152 OFFCURVE",
"177 155 OFFCURVE",
"191 155 CURVE SMOOTH",
"248 155 OFFCURVE",
"419 158 OFFCURVE",
"436 158 CURVE SMOOTH",
"443 158 OFFCURVE",
"452 164 OFFCURVE",
"452 172 CURVE SMOOTH",
"452 432 LINE SMOOTH",
"452 482 OFFCURVE",
"451 489 OFFCURVE",
"454 544 CURVE SMOOTH",
"454 549 OFFCURVE",
"453 555 OFFCURVE",
"448 555 CURVE SMOOTH",
"387 555 LINE SMOOTH",
"380 555 OFFCURVE",
"376 551 OFFCURVE",
"379 544 CURVE SMOOTH",
"386 528 OFFCURVE",
"387 488 OFFCURVE",
"387 433 CURVE SMOOTH",
"387 408 LINE",
"335 403 OFFCURVE",
"229 402 OFFCURVE",
"189 402 CURVE",
"189 435 LINE SMOOTH",
"189 474 OFFCURVE",
"189 494 OFFCURVE",
"190 533 CURVE SMOOTH"
);
},
{
closed = 1;
nodes = (
"727 472 LINE SMOOTH",
"727 483 OFFCURVE",
"728 485 OFFCURVE",
"716 485 CURVE SMOOTH",
"660 484 OFFCURVE",
"589 482 OFFCURVE",
"514 474 CURVE",
"498 471 OFFCURVE",
"498 475 OFFCURVE",
"494 488 CURVE SMOOTH",
"482 534 LINE SMOOTH",
"481 537 OFFCURVE",
"486 542 OFFCURVE",
"493 541 CURVE SMOOTH",
"541 536 OFFCURVE",
"663 538 OFFCURVE",
"721 549 CURVE SMOOTH",
"728 550 OFFCURVE",
"734 551 OFFCURVE",
"737 550 CURVE SMOOTH",
"792 540 LINE SMOOTH",
"799 539 OFFCURVE",
"798 533 OFFCURVE",
"798 530 CURVE SMOOTH",
"798 510 OFFCURVE",
"794 457 OFFCURVE",
"794 435 CURVE SMOOTH",
"794 150 LINE SMOOTH",
"794 131 OFFCURVE",
"786 132 OFFCURVE",
"779 131 CURVE SMOOTH",
"771 131 OFFCURVE",
"740 128 OFFCURVE",
"732 128 CURVE SMOOTH",
"729 128 OFFCURVE",
"727 130 OFFCURVE",
"727 133 CURVE SMOOTH"
);
},
{
closed = 1;
nodes = (
"189 350 LINE",
"249 353 OFFCURVE",
"323 355 OFFCURVE",
"387 355 CURVE",
"387 218 LINE",
"350 213 OFFCURVE",
"224 215 OFFCURVE",
"189 215 CURVE"
);
}
);
width = 900;
}
);
note = cid00422;
unicode = 3172;
},
{
glyphname = "pieupTikeutCompa-ko";
lastChange = "2019-11-29 11:50:09 +0000";
layers = (
{
layerId = "210D674B-AD98-4874-A618-1698A23DB8A1";
paths = (
{
closed = 1;
nodes = (
"175 538 OFFCURVE",
"175 544 OFFCURVE",
"168 544 CURVE SMOOTH",
"108 544 LINE SMOOTH",
"102 544 OFFCURVE",
"100 540 OFFCURVE",
"101 533 CURVE SMOOTH",
"105 518 OFFCURVE",
"110 475 OFFCURVE",
"111 436 CURVE SMOOTH",
"114 366 OFFCURVE",
"113 192 OFFCURVE",
"113 160 CURVE SMOOTH",
"113 152 OFFCURVE",
"118 152 OFFCURVE",
"121 152 CURVE SMOOTH",
"124 152 OFFCURVE",
"162 155 OFFCURVE",
"176 155 CURVE SMOOTH",
"232 158 OFFCURVE",
"395 158 OFFCURVE",
"411 158 CURVE SMOOTH",
"418 158 OFFCURVE",
"427 164 OFFCURVE",
"427 172 CURVE SMOOTH",
"427 432 LINE SMOOTH",
"427 482 OFFCURVE",
"426 489 OFFCURVE",
"429 544 CURVE SMOOTH",
"429 549 OFFCURVE",
"428 555 OFFCURVE",
"423 555 CURVE SMOOTH",
"362 555 LINE SMOOTH",
"355 555 OFFCURVE",
"351 551 OFFCURVE",
"354 544 CURVE SMOOTH",
"361 528 OFFCURVE",
"362 488 OFFCURVE",
"362 433 CURVE SMOOTH",
"362 408 LINE",
"312 403 OFFCURVE",
"214 402 OFFCURVE",
"174 402 CURVE",
"174 435 LINE SMOOTH",
"174 474 OFFCURVE",
"174 494 OFFCURVE",
"175 533 CURVE SMOOTH"
);
},
{
closed = 1;
nodes = (
"690 160 OFFCURVE",
"754 163 OFFCURVE",
"799 163 CURVE SMOOTH",
"818 163 OFFCURVE",
"820 165 OFFCURVE",
"820 173 CURVE SMOOTH",
"820 188 OFFCURVE",
"818 201 OFFCURVE",
"815 216 CURVE SMOOTH",
"814 223 OFFCURVE",
"811 227 OFFCURVE",
"798 224 CURVE SMOOTH",
"769 219 OFFCURVE",
"660 208 OFFCURVE",
"596 208 CURVE SMOOTH",
"575 208 OFFCURVE",
"570 213 OFFCURVE",
"570 253 CURVE SMOOTH",
"570 497 LINE",
"650 501 OFFCURVE",
"715 503 OFFCURVE",
"795 503 CURVE SMOOTH",
"804 503 OFFCURVE",
"808 507 OFFCURVE",
"807 515 CURVE SMOOTH",
"807 520 OFFCURVE",
"807 524 OFFCURVE",
"806 529 CURVE SMOOTH",
"802 555 LINE SMOOTH",
"801 562 OFFCURVE",
"794 563 OFFCURVE",
"790 562 CURVE SMOOTH",
"771 557 OFFCURVE",
"627 548 OFFCURVE",
"552 548 CURVE SMOOTH",
"528 549 OFFCURVE",
"509 551 OFFCURVE",
"501 551 CURVE SMOOTH",
"496 551 OFFCURVE",
"491 544 OFFCURVE",
"495 536 CURVE SMOOTH",
"502 523 OFFCURVE",
"507 485 OFFCURVE",
"507 438 CURVE SMOOTH",
"507 243 LINE SMOOTH",
"506 179 OFFCURVE",
"524 152 OFFCURVE",
"571 155 CURVE SMOOTH"
);
},
{
closed = 1;
nodes = (
"174 350 LINE",
"233 353 OFFCURVE",
"299 355 OFFCURVE",
"362 355 CURVE",
"362 218 LINE",
"325 213 OFFCURVE",
"209 215 OFFCURVE",
"174 215 CURVE"
);
}
);
width = 900;
}
);
note = cid00423;
unicode = 3173;
},
{
glyphname = "pieupSiosKiyeokCompa-ko";
lastChange = "2019-11-29 11:50:09 +0000";
layers = (
{
layerId = "210D674B-AD98-4874-A618-1698A23DB8A1";
paths = (
{
closed = 1;
nodes = (
"142 541 OFFCURVE",
"140 544 OFFCURVE",
"136 544 CURVE SMOOTH",
"80 544 LINE SMOOTH",
"73 544 OFFCURVE",
"71 541 OFFCURVE",
"73 534 CURVE SMOOTH",
"77 519 OFFCURVE",
"82 477 OFFCURVE",
"83 438 CURVE SMOOTH",
"83 370 OFFCURVE",
"84 203 OFFCURVE",
"84 171 CURVE SMOOTH",
"84 163 OFFCURVE",
"90 163 OFFCURVE",
"93 163 CURVE SMOOTH",
"96 163 OFFCURVE",
"131 168 OFFCURVE",
"144 168 CURVE SMOOTH",
"199 168 OFFCURVE",
"315 167 OFFCURVE",
"332 167 CURVE SMOOTH",
"340 167 OFFCURVE",
"347 173 OFFCURVE",
"347 180 CURVE SMOOTH",
"347 433 LINE SMOOTH",
"347 483 OFFCURVE",
"346 490 OFFCURVE",
"349 543 CURVE SMOOTH",
"349 550 OFFCURVE",
"347 554 OFFCURVE",
"344 554 CURVE SMOOTH",
"287 554 LINE SMOOTH",
"282 554 OFFCURVE",
"276 551 OFFCURVE",
"280 543 CURVE SMOOTH",
"287 527 OFFCURVE",
"287 487 OFFCURVE",
"287 434 CURVE SMOOTH",
"287 411 LINE",
"243 406 OFFCURVE",
"174 406 OFFCURVE",
"141 406 CURVE",
"141 437 LINE SMOOTH",
"141 474 OFFCURVE",
"141 497 OFFCURVE",
"142 534 CURVE SMOOTH"
);
},
{
closed = 1;
nodes = (
"375 139 LINE",
"385 136 OFFCURVE",
"394 137 OFFCURVE",
"402 142 CURVE",
"461 202 OFFCURVE",
"501 269 OFFCURVE",
"529 332 CURVE",
"573 283 OFFCURVE",
"615 217 OFFCURVE",
"647 161 CURVE",
"649 156 OFFCURVE",
"653 156 OFFCURVE",
"658 159 CURVE SMOOTH",
"673 171 OFFCURVE",
"685 179 OFFCURVE",
"697 192 CURVE SMOOTH",
"705 201 OFFCURVE",
"703 211 OFFCURVE",
"696 219 CURVE SMOOTH",
"665 259 OFFCURVE",
"615 314 OFFCURVE",
"547 377 CURVE",
"555 401 OFFCURVE",
"562 423 OFFCURVE",
"567 442 CURVE SMOOTH",
"576 474 OFFCURVE",
"583 505 OFFCURVE",
"591 536 CURVE SMOOTH",
"592 540 OFFCURVE",
"592 546 OFFCURVE",
"585 547 CURVE SMOOTH",
"524 559 LINE SMOOTH",
"517 560 OFFCURVE",
"514 558 OFFCURVE",
"515 553 CURVE SMOOTH",
"518 522 OFFCURVE",
"515 477 OFFCURVE",
"504 438 CURVE SMOOTH",
"482 352 OFFCURVE",
"417 220 OFFCURVE",
"351 165 CURVE SMOOTH",
"348 162 OFFCURVE",
"346 158 OFFCURVE",
"351 155 CURVE SMOOTH"
);
},
{
closed = 1;
nodes = (
"851 157 LINE SMOOTH",
"851 154 OFFCURVE",
"852 152 OFFCURVE",
"855 152 CURVE SMOOTH",
"861 152 OFFCURVE",
"894 155 OFFCURVE",
"901 155 CURVE SMOOTH",
"908 156 OFFCURVE",
"915 155 OFFCURVE",
"915 174 CURVE SMOOTH",
"915 443 LINE SMOOTH",
"915 465 OFFCURVE",
"918 517 OFFCURVE",
"918 536 CURVE SMOOTH",
"918 539 OFFCURVE",
"918 545 OFFCURVE",
"913 546 CURVE SMOOTH",
"860 556 LINE SMOOTH",
"855 557 OFFCURVE",
"852 556 OFFCURVE",
"845 555 CURVE SMOOTH",
"793 545 OFFCURVE",
"708 542 OFFCURVE",
"664 547 CURVE SMOOTH",
"657 548 OFFCURVE",
"653 543 OFFCURVE",
"654 540 CURVE SMOOTH",
"665 495 LINE SMOOTH",
"668 482 OFFCURVE",
"668 478 OFFCURVE",
"683 481 CURVE SMOOTH",
"748 489 OFFCURVE",
"790 491 OFFCURVE",
"841 492 CURVE SMOOTH",
"852 492 OFFCURVE",
"851 490 OFFCURVE",
"851 479 CURVE SMOOTH"
);
},
{
closed = 1;
nodes = (
"141 356 LINE",
"192 359 OFFCURVE",
"231 359 OFFCURVE",
"287 359 CURVE",
"287 228 LINE",
"252 223 OFFCURVE",
"173 225 OFFCURVE",
"141 225 CURVE"
);
}
);
width = 1000;
}
);
note = cid00424;
unicode = 3174;
},
{
glyphname = "pieupSiosTikeutCompa-ko";
lastChange = "2019-11-29 11:50:09 +0000";
layers = (
{
layerId = "210D674B-AD98-4874-A618-1698A23DB8A1";
paths = (
{
closed = 1;
nodes = (
"132 541 OFFCURVE",
"130 544 OFFCURVE",
"126 544 CURVE SMOOTH",
"70 544 LINE SMOOTH",
"63 544 OFFCURVE",
"61 541 OFFCURVE",
"63 534 CURVE SMOOTH",
"67 519 OFFCURVE",
"72 477 OFFCURVE",
"73 438 CURVE SMOOTH",
"73 370 OFFCURVE",
"74 203 OFFCURVE",
"74 171 CURVE SMOOTH",
"74 163 OFFCURVE",
"80 163 OFFCURVE",
"83 163 CURVE SMOOTH",
"86 163 OFFCURVE",
"121 168 OFFCURVE",
"134 168 CURVE SMOOTH",
"189 168 OFFCURVE",
"301 167 OFFCURVE",
"317 167 CURVE SMOOTH",
"325 167 OFFCURVE",
"332 173 OFFCURVE",
"332 180 CURVE SMOOTH",
"332 433 LINE SMOOTH",
"332 483 OFFCURVE",
"331 490 OFFCURVE",
"334 543 CURVE SMOOTH",
"334 550 OFFCURVE",
"332 554 OFFCURVE",
"329 554 CURVE SMOOTH",
"272 554 LINE SMOOTH",
"267 554 OFFCURVE",
"261 551 OFFCURVE",
"265 543 CURVE SMOOTH",
"272 527 OFFCURVE",
"272 487 OFFCURVE",
"272 434 CURVE SMOOTH",
"272 411 LINE",
"227 406 OFFCURVE",
"164 406 OFFCURVE",
"131 406 CURVE",
"131 437 LINE SMOOTH",
"131 474 OFFCURVE",
"131 497 OFFCURVE",
"132 534 CURVE SMOOTH"
);
},
{
closed = 1;
nodes = (
"869 169 OFFCURVE",
"889 172 OFFCURVE",
"934 172 CURVE SMOOTH",
"953 172 OFFCURVE",
"954 174 OFFCURVE",
"954 182 CURVE SMOOTH",
"954 197 OFFCURVE",
"952 209 OFFCURVE",
"949 224 CURVE SMOOTH",
"948 231 OFFCURVE",
"945 235 OFFCURVE",
"933 232 CURVE SMOOTH",
"905 226 OFFCURVE",
"840 216 OFFCURVE",
"779 216 CURVE SMOOTH",
"759 216 OFFCURVE",
"754 221 OFFCURVE",
"754 260 CURVE SMOOTH",
"754 500 LINE",
"821 503 OFFCURVE",
"850 505 OFFCURVE",
"928 505 CURVE SMOOTH",
"939 505 OFFCURVE",
"940 509 OFFCURVE",
"939 517 CURVE SMOOTH",
"939 522 OFFCURVE",
"939 526 OFFCURVE",
"938 531 CURVE SMOOTH",
"935 556 LINE SMOOTH",
"934 563 OFFCURVE",
"927 564 OFFCURVE",
"923 563 CURVE SMOOTH",
"906 557 OFFCURVE",
"803 549 OFFCURVE",
"736 549 CURVE SMOOTH",
"713 550 OFFCURVE",
"695 552 OFFCURVE",
"688 552 CURVE SMOOTH",
"683 552 OFFCURVE",
"678 545 OFFCURVE",
"682 537 CURVE SMOOTH",
"689 525 OFFCURVE",
"693 488 OFFCURVE",
"693 441 CURVE SMOOTH",
"693 250 LINE SMOOTH",
"693 187 OFFCURVE",
"710 161 OFFCURVE",
"755 164 CURVE SMOOTH"
);
},
{
closed = 1;
nodes = (
"360 139 LINE",
"370 136 OFFCURVE",
"379 137 OFFCURVE",
"387 142 CURVE",
"443 201 OFFCURVE",
"484 266 OFFCURVE",
"511 327 CURVE",
"554 278 OFFCURVE",
"594 216 OFFCURVE",
"625 161 CURVE",
"627 156 OFFCURVE",
"631 156 OFFCURVE",
"636 159 CURVE SMOOTH",
"651 171 OFFCURVE",
"663 179 OFFCURVE",
"675 192 CURVE SMOOTH",
"683 201 OFFCURVE",
"681 211 OFFCURVE",
"674 219 CURVE SMOOTH",
"643 258 OFFCURVE",
"594 312 OFFCURVE",
"530 372 CURVE",
"539 399 OFFCURVE",
"547 421 OFFCURVE",
"552 442 CURVE SMOOTH",
"561 474 OFFCURVE",
"568 505 OFFCURVE",
"576 536 CURVE SMOOTH",
"577 540 OFFCURVE",
"577 546 OFFCURVE",
"570 547 CURVE SMOOTH",
"509 559 LINE SMOOTH",
"502 560 OFFCURVE",
"499 558 OFFCURVE",
"500 553 CURVE SMOOTH",
"503 522 OFFCURVE",
"500 477 OFFCURVE",
"489 438 CURVE SMOOTH",
"467 352 OFFCURVE",
"402 220 OFFCURVE",
"336 165 CURVE SMOOTH",
"333 162 OFFCURVE",
"331 158 OFFCURVE",
"336 155 CURVE SMOOTH"
);
},
{
closed = 1;
nodes = (
"131 356 LINE",
"182 357 OFFCURVE",
"217 359 OFFCURVE",
"272 359 CURVE",
"272 228 LINE",
"238 223 OFFCURVE",
"163 225 OFFCURVE",
"131 225 CURVE"
);
}
);
width = 1000;
}
);
note = cid00425;
unicode = 3175;
},
{
glyphname = "pieupCieucCompa-ko";
lastChange = "2019-11-29 11:50:09 +0000";
layers = (
{
layerId = "210D674B-AD98-4874-A618-1698A23DB8A1";
paths = (
{
closed = 1;
nodes = (
"155 538 OFFCURVE",
"155 544 OFFCURVE",
"148 544 CURVE SMOOTH",
"88 544 LINE SMOOTH",
"82 544 OFFCURVE",
"80 540 OFFCURVE",
"81 533 CURVE SMOOTH",
"85 518 OFFCURVE",
"90 475 OFFCURVE",
"91 436 CURVE SMOOTH",
"94 366 OFFCURVE",
"93 192 OFFCURVE",
"93 160 CURVE SMOOTH",
"93 152 OFFCURVE",
"98 152 OFFCURVE",
"101 152 CURVE SMOOTH",
"104 152 OFFCURVE",
"142 155 OFFCURVE",
"156 155 CURVE SMOOTH",
"212 158 OFFCURVE",
"375 158 OFFCURVE",
"391 158 CURVE SMOOTH",
"398 158 OFFCURVE",
"407 164 OFFCURVE",
"407 172 CURVE SMOOTH",
"407 432 LINE SMOOTH",
"407 482 OFFCURVE",
"406 489 OFFCURVE",
"409 544 CURVE SMOOTH",
"409 549 OFFCURVE",
"408 555 OFFCURVE",
"403 555 CURVE SMOOTH",
"342 555 LINE SMOOTH",
"335 555 OFFCURVE",
"331 551 OFFCURVE",
"334 544 CURVE SMOOTH",
"341 528 OFFCURVE",
"342 488 OFFCURVE",
"342 433 CURVE SMOOTH",
"342 408 LINE",
"292 403 OFFCURVE",
"194 402 OFFCURVE",
"154 402 CURVE",
"154 435 LINE SMOOTH",
"154 474 OFFCURVE",
"154 494 OFFCURVE",
"155 533 CURVE SMOOTH"
);
},
{
closed = 1;
nodes = (
"452 122 LINE SMOOTH",
"463 114 OFFCURVE",
"468 116 OFFCURVE",
"479 123 CURVE SMOOTH",
"547 174 OFFCURVE",
"603 244 OFFCURVE",
"640 320 CURVE",
"690 273 OFFCURVE",
"754 198 OFFCURVE",
"786 145 CURVE SMOOTH",
"789 141 OFFCURVE",
"792 140 OFFCURVE",
"796 142 CURVE SMOOTH",
"812 153 OFFCURVE",
"826 161 OFFCURVE",
"841 177 CURVE SMOOTH",
"848 185 OFFCURVE",
"845 196 OFFCURVE",
"838 203 CURVE SMOOTH",
"797 252 OFFCURVE",
"732 303 OFFCURVE",
"659 362 CURVE",
"676 407 OFFCURVE",
"686 451 OFFCURVE",
"689 496 CURVE",
"728 497 OFFCURVE",
"762 497 OFFCURVE",
"813 496 CURVE SMOOTH",
"822 496 OFFCURVE",
"827 500 OFFCURVE",
"826 508 CURVE SMOOTH",
"826 513 OFFCURVE",
"826 519 OFFCURVE",
"825 525 CURVE SMOOTH",
"821 554 LINE SMOOTH",
"820 562 OFFCURVE",
"812 563 OFFCURVE",
"808 562 CURVE SMOOTH",
"731 546 OFFCURVE",
"521 536 OFFCURVE",
"451 544 CURVE SMOOTH",
"444 545 OFFCURVE",
"442 540 OFFCURVE",
"443 537 CURVE SMOOTH",
"448 512 OFFCURVE",
"448 509 OFFCURVE",
"455 493 CURVE SMOOTH",
"458 484 OFFCURVE",
"459 475 OFFCURVE",
"475 478 CURVE SMOOTH",
"511 483 OFFCURVE",
"547 486 OFFCURVE",
"582 489 CURVE SMOOTH",
"617 492 LINE",
"620 358 OFFCURVE",
"517 210 OFFCURVE",
"425 156 CURVE",
"422 153 OFFCURVE",
"419 148 OFFCURVE",
"424 145 CURVE"
);
},
{
closed = 1;
nodes = (
"154 350 LINE",
"213 353 OFFCURVE",
"279 355 OFFCURVE",
"342 355 CURVE",
"342 218 LINE",
"305 213 OFFCURVE",
"189 215 OFFCURVE",
"154 215 CURVE"
);
}
);
width = 900;
}
);
note = cid00426;
unicode = 3176;
},
{
glyphname = "pieupThieuthCompa-ko";
lastChange = "2019-11-29 11:50:09 +0000";
layers = (
{
layerId = "210D674B-AD98-4874-A618-1698A23DB8A1";
paths = (
{
closed = 1;
nodes = (
"170 538 OFFCURVE",
"170 544 OFFCURVE",
"163 544 CURVE SMOOTH",
"103 544 LINE SMOOTH",
"97 544 OFFCURVE",
"95 540 OFFCURVE",
"96 533 CURVE SMOOTH",
"100 518 OFFCURVE",
"105 475 OFFCURVE",
"106 436 CURVE SMOOTH",
"109 366 OFFCURVE",
"108 192 OFFCURVE",
"108 160 CURVE SMOOTH",
"108 152 OFFCURVE",
"113 152 OFFCURVE",
"116 152 CURVE SMOOTH",
"119 152 OFFCURVE",
"157 155 OFFCURVE",
"171 155 CURVE SMOOTH",
"228 158 OFFCURVE",
"387 158 OFFCURVE",
"404 158 CURVE SMOOTH",
"411 158 OFFCURVE",
"420 164 OFFCURVE",
"420 172 CURVE SMOOTH",
"420 432 LINE SMOOTH",
"420 482 OFFCURVE",
"419 489 OFFCURVE",
"422 544 CURVE SMOOTH",
"422 549 OFFCURVE",
"421 555 OFFCURVE",
"416 555 CURVE SMOOTH",
"355 555 LINE SMOOTH",
"348 555 OFFCURVE",
"344 551 OFFCURVE",
"347 544 CURVE SMOOTH",
"354 528 OFFCURVE",
"355 488 OFFCURVE",
"355 433 CURVE SMOOTH",
"355 408 LINE",
"304 403 OFFCURVE",
"208 402 OFFCURVE",
"169 402 CURVE",
"169 435 LINE SMOOTH",
"169 474 OFFCURVE",
"169 494 OFFCURVE",
"170 533 CURVE SMOOTH"
);
},
{
closed = 1;
nodes = (
"500 238 LINE SMOOTH",
"500 197 OFFCURVE",
"510 155 OFFCURVE",
"560 155 CURVE SMOOTH",
"621 154 OFFCURVE",
"689 156 OFFCURVE",
"804 159 CURVE SMOOTH",
"824 159 OFFCURVE",
"824 164 OFFCURVE",
"824 171 CURVE",
"818 213 LINE SMOOTH",
"817 220 OFFCURVE",
"814 226 OFFCURVE",
"799 223 CURVE SMOOTH",
"764 215 OFFCURVE",
"733 214 OFFCURVE",
"701 211 CURVE SMOOTH",
"682 210 OFFCURVE",
"651 208 OFFCURVE",
"591 208 CURVE SMOOTH",
"575 208 OFFCURVE",
"566 207 OFFCURVE",
"566 247 CURVE SMOOTH",
"566 331 LINE",
"622 334 OFFCURVE",
"741 334 OFFCURVE",
"773 334 CURVE SMOOTH",
"788 333 OFFCURVE",
"787 343 OFFCURVE",
"787 347 CURVE SMOOTH",
"787 362 OFFCURVE",
"787 365 OFFCURVE",
"784 380 CURVE SMOOTH",
"783 387 OFFCURVE",
"783 392 OFFCURVE",
"768 389 CURVE SMOOTH",
"706 381 OFFCURVE",
"609 379 OFFCURVE",
"566 379 CURVE",
"567 490 LINE",
"614 493 OFFCURVE",
"664 494 OFFCURVE",
"715 495 CURVE SMOOTH",
"744 495 OFFCURVE",
"757 494 OFFCURVE",
"784 494 CURVE SMOOTH",
"795 494 OFFCURVE",
"797 500 OFFCURVE",
"797 507 CURVE SMOOTH",
"797 512 OFFCURVE",
"797 516 OFFCURVE",
"796 521 CURVE SMOOTH",
"792 547 LINE SMOOTH",
"791 555 OFFCURVE",
"783 556 OFFCURVE",
"779 555 CURVE SMOOTH",
"746 550 OFFCURVE",
"648 542 OFFCURVE",
"567 542 CURVE SMOOTH",
"542 542 OFFCURVE",
"509 544 OFFCURVE",
"498 544 CURVE SMOOTH",
"491 544 OFFCURVE",
"486 538 OFFCURVE",
"490 529 CURVE SMOOTH",
"497 514 OFFCURVE",
"501 482 OFFCURVE",
"501 431 CURVE SMOOTH"
);
},
{
closed = 1;
nodes = (
"169 350 LINE",
"228 353 OFFCURVE",
"292 355 OFFCURVE",
"355 355 CURVE",
"355 218 LINE",
"318 213 OFFCURVE",
"204 215 OFFCURVE",
"169 215 CURVE"
);
}
);
width = 900;
}
);
note = cid00427;
unicode = 3177;
},
{
glyphname = "kapyeounpieupCompa-ko";
lastChange = "2019-11-29 11:50:09 +0000";
layers = (
{
layerId = "210D674B-AD98-4874-A618-1698A23DB8A1";
paths = (
{
closed = 1;
nodes = (
"304 624 OFFCURVE",
"302 627 OFFCURVE",
"299 627 CURVE SMOOTH",
"238 627 LINE SMOOTH",
"231 627 OFFCURVE",
"229 624 OFFCURVE",
"231 617 CURVE SMOOTH",
"235 604 OFFCURVE",
"244 556 OFFCURVE",
"245 500 CURVE SMOOTH",
"248 289 OFFCURVE",
"245 279 OFFCURVE",
"245 271 CURVE SMOOTH",
"245 264 OFFCURVE",
"249 265 OFFCURVE",
"252 265 CURVE SMOOTH",
"255 265 OFFCURVE",
"294 269 OFFCURVE",
"305 269 CURVE SMOOTH",
"376 270 OFFCURVE",
"485 276 OFFCURVE",
"653 276 CURVE SMOOTH",
"660 276 OFFCURVE",
"668 280 OFFCURVE",
"668 289 CURVE SMOOTH",
"669 528 LINE SMOOTH",
"669 574 OFFCURVE",
"672 588 OFFCURVE",
"672 641 CURVE SMOOTH",
"672 646 OFFCURVE",
"670 649 OFFCURVE",
"667 650 CURVE",
"662 650 OFFCURVE",
"617 651 OFFCURVE",
"606 651 CURVE SMOOTH",
"603 651 OFFCURVE",
"598 649 OFFCURVE",
"601 642 CURVE SMOOTH",
"606 628 OFFCURVE",
"609 597 OFFCURVE",
"609 550 CURVE SMOOTH",
"609 515 LINE",
"527 510 OFFCURVE",
"359 506 OFFCURVE",
"304 509 CURVE",
"304 514 LINE SMOOTH",
"304 549 OFFCURVE",
"303 582 OFFCURVE",
"304 617 CURVE SMOOTH"
);
},
{
closed = 1;
nodes = (
"355 174 OFFCURVE",
"309 104 OFFCURVE",
"309 39 CURVE SMOOTH",
"309 -21 OFFCURVE",
"363 -95 OFFCURVE",
"463 -92 CURVE SMOOTH",
"562 -92 OFFCURVE",
"618 -20 OFFCURVE",
"618 46 CURVE SMOOTH",
"618 121 OFFCURVE",
"563 180 OFFCURVE",
"467 177 CURVE SMOOTH"
);
},
{
closed = 1;
nodes = (
"608 329 LINE",
"512 321 OFFCURVE",
"391 320 OFFCURVE",
"305 323 CURVE",
"304 457 LINE",
"367 460 OFFCURVE",
"497 465 OFFCURVE",
"608 465 CURVE"
);
},
{
closed = 1;
nodes = (
"404 -45 OFFCURVE",
"366 -4 OFFCURVE",
"366 40 CURVE SMOOTH",
"366 91 OFFCURVE",
"395 129 OFFCURVE",
"467 132 CURVE SMOOTH",
"533 135 OFFCURVE",
"561 84 OFFCURVE",
"558 45 CURVE SMOOTH",
"554 -4 OFFCURVE",
"523 -41 OFFCURVE",
"463 -42 CURVE SMOOTH"
);
}
);
width = 900;
}
);
note = cid00428;
unicode = 3178;
},
{
glyphname = "kapyeounssangpieupCompa-ko";
lastChange = "2019-11-29 11:50:09 +0000";
layers = (
{
layerId = "210D674B-AD98-4874-A618-1698A23DB8A1";
paths = (
{
closed = 1;
nodes = (
"563 530 LINE SMOOTH",
"563 566 OFFCURVE",
"564 600 OFFCURVE",
"564 632 CURVE SMOOTH",
"564 639 OFFCURVE",
"562 642 OFFCURVE",
"559 642 CURVE SMOOTH",
"499 642 LINE SMOOTH",
"494 642 OFFCURVE",
"489 639 OFFCURVE",
"492 632 CURVE SMOOTH",
"499 619 OFFCURVE",
"503 575 OFFCURVE",
"504 523 CURVE SMOOTH",
"507 316 OFFCURVE",
"502 272 OFFCURVE",
"502 263 CURVE SMOOTH",
"502 256 OFFCURVE",
"508 256 OFFCURVE",
"511 256 CURVE SMOOTH",
"514 256 OFFCURVE",
"546 260 OFFCURVE",
"559 260 CURVE SMOOTH",
"623 260 OFFCURVE",
"711 262 OFFCURVE",
"749 262 CURVE SMOOTH",
"756 262 OFFCURVE",
"763 266 OFFCURVE",
"763 275 CURVE SMOOTH",
"763 530 LINE SMOOTH",
"763 575 OFFCURVE",
"765 591 OFFCURVE",
"765 642 CURVE SMOOTH",
"765 649 OFFCURVE",
"764 652 OFFCURVE",
"761 653 CURVE",
"758 653 OFFCURVE",
"712 654 OFFCURVE",
"704 654 CURVE SMOOTH",
"699 654 OFFCURVE",
"694 651 OFFCURVE",
"697 643 CURVE SMOOTH",
"703 630 OFFCURVE",
"706 600 OFFCURVE",
"706 554 CURVE SMOOTH",
"706 504 LINE",
"659 499 OFFCURVE",
"594 501 OFFCURVE",
"563 501 CURVE"
);
},
{
closed = 1;
nodes = (
"222 624 OFFCURVE",
"220 627 OFFCURVE",
"217 627 CURVE SMOOTH",
"158 627 LINE SMOOTH",
"154 627 OFFCURVE",
"149 626 OFFCURVE",
"152 619 CURVE SMOOTH",
"156 607 OFFCURVE",
"164 559 OFFCURVE",
"165 502 CURVE SMOOTH",
"170 306 OFFCURVE",
"169 265 OFFCURVE",
"169 256 CURVE SMOOTH",
"169 249 OFFCURVE",
"174 249 OFFCURVE",
"177 249 CURVE SMOOTH",
"179 249 OFFCURVE",
"215 253 OFFCURVE",
"225 253 CURVE SMOOTH",
"329 257 OFFCURVE",
"252 255 OFFCURVE",
"410 255 CURVE SMOOTH",
"417 255 OFFCURVE",
"426 259 OFFCURVE",
"426 268 CURVE SMOOTH",
"426 518 LINE SMOOTH",
"426 564 OFFCURVE",
"426 574 OFFCURVE",
"429 627 CURVE SMOOTH",
"429 633 OFFCURVE",
"427 636 OFFCURVE",
"424 637 CURVE",
"419 637 OFFCURVE",
"376 638 OFFCURVE",
"365 638 CURVE SMOOTH",
"360 638 OFFCURVE",
"355 635 OFFCURVE",
"358 628 CURVE",
"365 617 OFFCURVE",
"368 587 OFFCURVE",
"368 538 CURVE SMOOTH",
"368 493 LINE",
"320 488 OFFCURVE",
"254 490 OFFCURVE",
"222 490 CURVE",
"222 518 LINE SMOOTH",
"222 550 OFFCURVE",
"221 584 OFFCURVE",
"222 619 CURVE SMOOTH"
);
},
{
closed = 1;
nodes = (
"365 164 OFFCURVE",
"319 94 OFFCURVE",
"319 29 CURVE SMOOTH",
"319 -31 OFFCURVE",
"373 -105 OFFCURVE",
"473 -102 CURVE SMOOTH",
"572 -102 OFFCURVE",
"628 -30 OFFCURVE",
"628 36 CURVE SMOOTH",
"628 111 OFFCURVE",
"573 170 OFFCURVE",
"477 167 CURVE SMOOTH"
);
},
{
closed = 1;
nodes = (
"414 -55 OFFCURVE",
"376 -14 OFFCURVE",
"376 30 CURVE SMOOTH",
"376 81 OFFCURVE",
"405 119 OFFCURVE",
"477 122 CURVE SMOOTH",
"543 125 OFFCURVE",
"571 74 OFFCURVE",
"568 35 CURVE SMOOTH",
"564 -14 OFFCURVE",
"533 -51 OFFCURVE",
"473 -52 CURVE SMOOTH"
);
},
{
closed = 1;
nodes = (
"706 316 LINE",
"682 313 OFFCURVE",
"577 312 OFFCURVE",
"561 312 CURVE",
"562 450 LINE",
"605 453 OFFCURVE",
"657 452 OFFCURVE",
"706 452 CURVE"
);
},
{
closed = 1;
nodes = (
"368 308 LINE",
"343 303 OFFCURVE",
"241 304 OFFCURVE",
"225 304 CURVE",
"223 438 LINE",
"268 441 OFFCURVE",
"319 441 OFFCURVE",
"368 441 CURVE"
);
}
);
width = 900;
}
);
note = cid00429;
unicode = 3179;
},
{
glyphname = "siosKiyeokCompa-ko";
lastChange = "2019-11-29 11:50:09 +0000";
layers = (
{
layerId = "210D674B-AD98-4874-A618-1698A23DB8A1";
paths = (
{
closed = 1;
nodes = (
"135 103 LINE",
"142 97 OFFCURVE",
"150 98 OFFCURVE",
"159 105 CURVE SMOOTH",
"230 160 OFFCURVE",
"296 252 OFFCURVE",
"341 332 CURVE",
"402 279 OFFCURVE",
"476 197 OFFCURVE",
"513 134 CURVE SMOOTH",
"516 130 OFFCURVE",
"519 129 OFFCURVE",
"524 132 CURVE SMOOTH",
"543 144 OFFCURVE",
"552 156 OFFCURVE",
"565 173 CURVE SMOOTH",
"573 184 OFFCURVE",
"569 189 OFFCURVE",
"564 200 CURVE",
"532 242 OFFCURVE",
"445 310 OFFCURVE",
"363 376 CURVE",
"374 399 OFFCURVE",
"381 417 OFFCURVE",
"388 436 CURVE SMOOTH",
"399 471 OFFCURVE",
"409 496 OFFCURVE",
"418 529 CURVE SMOOTH",
"419 532 OFFCURVE",
"418 546 OFFCURVE",
"413 543 CURVE",
"344 561 LINE SMOOTH",
"340 562 OFFCURVE",
"333 561 OFFCURVE",
"333 552 CURVE",
"338 521 OFFCURVE",
"331 473 OFFCURVE",
"316 433 CURVE SMOOTH",
"279 325 OFFCURVE",
"182 187 OFFCURVE",
"106 130 CURVE",
"103 127 OFFCURVE",
"101 123 OFFCURVE",
"105 120 CURVE SMOOTH"
);
},
{
closed = 1;
nodes = (
"727 133 LINE SMOOTH",
"727 130 OFFCURVE",
"729 128 OFFCURVE",
"732 128 CURVE SMOOTH",
"740 128 OFFCURVE",
"771 131 OFFCURVE",
"779 131 CURVE SMOOTH",
"786 132 OFFCURVE",
"794 131 OFFCURVE",
"794 150 CURVE SMOOTH",
"794 435 LINE SMOOTH",
"794 457 OFFCURVE",
"798 510 OFFCURVE",
"798 530 CURVE SMOOTH",
"798 533 OFFCURVE",
"799 539 OFFCURVE",
"792 540 CURVE SMOOTH",
"737 550 LINE SMOOTH",
"734 551 OFFCURVE",
"728 550 OFFCURVE",
"721 549 CURVE SMOOTH",
"663 538 OFFCURVE",
"544 536 OFFCURVE",
"496 541 CURVE SMOOTH",
"489 542 OFFCURVE",
"484 537 OFFCURVE",
"485 534 CURVE SMOOTH",
"497 488 LINE SMOOTH",
"501 475 OFFCURVE",
"501 471 OFFCURVE",
"517 474 CURVE",
"592 482 OFFCURVE",
"660 484 OFFCURVE",
"716 485 CURVE SMOOTH",
"728 485 OFFCURVE",
"727 483 OFFCURVE",
"727 472 CURVE SMOOTH"
);
}
);
width = 900;
}
);
note = cid00430;
unicode = 317A;
},
{
glyphname = "siosNieunCompa-ko";
lastChange = "2019-11-29 11:50:09 +0000";
layers = (
{
layerId = "210D674B-AD98-4874-A618-1698A23DB8A1";
paths = (
{
closed = 1;
nodes = (
"75 103 LINE",
"82 97 OFFCURVE",
"90 98 OFFCURVE",
"99 105 CURVE SMOOTH",
"172 162 OFFCURVE",
"236 252 OFFCURVE",
"282 335 CURVE",
"339 275 OFFCURVE",
"403 196 OFFCURVE",
"435 132 CURVE",
"438 128 OFFCURVE",
"441 127 OFFCURVE",
"446 130 CURVE SMOOTH",
"465 141 OFFCURVE",
"475 152 OFFCURVE",
"490 168 CURVE SMOOTH",
"498 177 OFFCURVE",
"495 184 OFFCURVE",
"490 195 CURVE",
"460 239 OFFCURVE",
"380 308 OFFCURVE",
"305 380 CURVE",
"316 400 OFFCURVE",
"321 419 OFFCURVE",
"328 436 CURVE SMOOTH",
"339 471 OFFCURVE",
"349 496 OFFCURVE",
"358 529 CURVE SMOOTH",
"359 532 OFFCURVE",
"358 546 OFFCURVE",
"353 543 CURVE",
"284 561 LINE SMOOTH",
"280 562 OFFCURVE",
"273 561 OFFCURVE",
"273 552 CURVE",
"278 521 OFFCURVE",
"271 473 OFFCURVE",
"256 433 CURVE SMOOTH",
"219 325 OFFCURVE",
"122 187 OFFCURVE",
"46 130 CURVE",
"43 127 OFFCURVE",
"41 123 OFFCURVE",
"45 120 CURVE SMOOTH"
);
},
{
closed = 1;
nodes = (
"526 241 LINE SMOOTH",
"525 177 OFFCURVE",
"543 150 OFFCURVE",
"590 153 CURVE SMOOTH",
"709 158 OFFCURVE",
"785 161 OFFCURVE",
"830 161 CURVE SMOOTH",
"849 161 OFFCURVE",
"851 163 OFFCURVE",
"851 171 CURVE SMOOTH",
"851 186 OFFCURVE",
"849 199 OFFCURVE",
"846 214 CURVE SMOOTH",
"845 221 OFFCURVE",
"842 225 OFFCURVE",
"829 222 CURVE SMOOTH",
"800 217 OFFCURVE",
"684 206 OFFCURVE",
"619 206 CURVE SMOOTH",
"598 206 OFFCURVE",
"593 211 OFFCURVE",
"593 251 CURVE SMOOTH",
"593 442 LINE SMOOTH",
"593 482 OFFCURVE",
"595 500 OFFCURVE",
"595 535 CURVE SMOOTH",
"595 542 OFFCURVE",
"593 545 OFFCURVE",
"590 546 CURVE",
"585 546 OFFCURVE",
"534 549 OFFCURVE",
"523 549 CURVE SMOOTH",
"516 549 OFFCURVE",
"514 545 OFFCURVE",
"515 538 CURVE",
"520 523 OFFCURVE",
"526 489 OFFCURVE",
"526 438 CURVE SMOOTH"
);
}
);
width = 900;
}
);
note = cid00431;
unicode = 317B;
},
{
glyphname = "siosTikeutCompa-ko";
lastChange = "2019-11-29 11:50:09 +0000";
layers = (
{
layerId = "210D674B-AD98-4874-A618-1698A23DB8A1";
paths = (
{
closed = 1;
nodes = (
"75 103 LINE",
"82 97 OFFCURVE",
"90 98 OFFCURVE",
"99 105 CURVE SMOOTH",
"172 162 OFFCURVE",
"236 252 OFFCURVE",
"282 335 CURVE",
"339 275 OFFCURVE",
"403 196 OFFCURVE",
"435 132 CURVE",
"438 128 OFFCURVE",
"441 127 OFFCURVE",
"446 130 CURVE SMOOTH",
"465 141 OFFCURVE",
"475 152 OFFCURVE",
"490 168 CURVE SMOOTH",
"498 177 OFFCURVE",
"495 184 OFFCURVE",
"490 195 CURVE",
"460 239 OFFCURVE",
"380 308 OFFCURVE",
"305 380 CURVE",
"316 400 OFFCURVE",
"321 419 OFFCURVE",
"328 436 CURVE SMOOTH",
"339 471 OFFCURVE",
"349 496 OFFCURVE",
"358 529 CURVE SMOOTH",
"359 532 OFFCURVE",
"358 546 OFFCURVE",
"353 543 CURVE",
"284 561 LINE SMOOTH",
"280 562 OFFCURVE",
"273 561 OFFCURVE",
"273 552 CURVE",
"278 521 OFFCURVE",
"271 473 OFFCURVE",
"256 433 CURVE SMOOTH",
"219 325 OFFCURVE",
"122 187 OFFCURVE",
"46 130 CURVE",
"43 127 OFFCURVE",
"41 123 OFFCURVE",
"45 120 CURVE SMOOTH"
);
},
{
closed = 1;
nodes = (
"717 145 OFFCURVE",
"781 148 OFFCURVE",
"826 148 CURVE SMOOTH",
"845 148 OFFCURVE",
"847 150 OFFCURVE",
"847 158 CURVE SMOOTH",
"847 173 OFFCURVE",
"845 186 OFFCURVE",
"842 201 CURVE SMOOTH",
"841 208 OFFCURVE",
"838 212 OFFCURVE",
"825 209 CURVE SMOOTH",
"796 204 OFFCURVE",
"687 193 OFFCURVE",
"623 193 CURVE SMOOTH",
"602 193 OFFCURVE",
"597 198 OFFCURVE",
"597 238 CURVE SMOOTH",
"597 483 LINE",
"677 487 OFFCURVE",
"742 488 OFFCURVE",
"822 488 CURVE SMOOTH",
"831 488 OFFCURVE",
"835 492 OFFCURVE",
"834 500 CURVE SMOOTH",
"834 505 OFFCURVE",
"834 509 OFFCURVE",
"833 514 CURVE SMOOTH",
"829 540 LINE SMOOTH",
"828 547 OFFCURVE",
"821 548 OFFCURVE",
"817 547 CURVE SMOOTH",
"798 542 OFFCURVE",
"654 533 OFFCURVE",
"579 533 CURVE SMOOTH",
"555 534 OFFCURVE",
"536 536 OFFCURVE",
"528 536 CURVE SMOOTH",
"523 536 OFFCURVE",
"518 529 OFFCURVE",
"522 521 CURVE SMOOTH",
"529 508 OFFCURVE",
"534 470 OFFCURVE",
"534 423 CURVE SMOOTH",
"534 228 LINE SMOOTH",
"533 164 OFFCURVE",
"551 137 OFFCURVE",
"598 140 CURVE SMOOTH"
);
}
);
width = 900;
}
);
note = cid00432;
unicode = 317C;
},
{
glyphname = "siosPieupCompa-ko";
lastChange = "2019-11-29 11:50:09 +0000";
layers = (
{
layerId = "210D674B-AD98-4874-A618-1698A23DB8A1";
paths = (
{
closed = 1;
nodes = (
"597 541 OFFCURVE",
"595 544 OFFCURVE",
"591 544 CURVE SMOOTH",
"532 544 LINE SMOOTH",
"525 544 OFFCURVE",
"522 541 OFFCURVE",
"524 534 CURVE SMOOTH",
"529 522 OFFCURVE",
"535 474 OFFCURVE",
"535 436 CURVE SMOOTH",
"535 367 OFFCURVE",
"536 191 OFFCURVE",
"536 159 CURVE SMOOTH",
"536 151 OFFCURVE",
"542 151 OFFCURVE",
"545 151 CURVE SMOOTH",
"548 151 OFFCURVE",
"586 156 OFFCURVE",
"599 156 CURVE SMOOTH",
"657 156 OFFCURVE",
"806 155 OFFCURVE",
"823 155 CURVE SMOOTH",
"831 155 OFFCURVE",
"839 161 OFFCURVE",
"839 169 CURVE SMOOTH",
"839 431 LINE SMOOTH",
"839 483 OFFCURVE",
"838 488 OFFCURVE",
"841 543 CURVE SMOOTH",
"841 550 OFFCURVE",
"839 554 OFFCURVE",
"835 554 CURVE SMOOTH",
"775 554 LINE SMOOTH",
"770 554 OFFCURVE",
"764 551 OFFCURVE",
"768 543 CURVE SMOOTH",
"775 527 OFFCURVE",
"775 487 OFFCURVE",
"775 432 CURVE SMOOTH",
"775 408 LINE",
"725 403 OFFCURVE",
"635 403 OFFCURVE",
"596 403 CURVE",
"596 435 LINE SMOOTH",
"596 474 OFFCURVE",
"596 495 OFFCURVE",
"597 534 CURVE SMOOTH"
);
},
{
closed = 1;
nodes = (
"75 103 LINE",
"82 97 OFFCURVE",
"90 98 OFFCURVE",
"99 105 CURVE SMOOTH",
"172 162 OFFCURVE",
"236 252 OFFCURVE",
"282 335 CURVE",
"339 275 OFFCURVE",
"403 196 OFFCURVE",
"435 132 CURVE",
"438 128 OFFCURVE",
"441 127 OFFCURVE",
"446 130 CURVE SMOOTH",
"465 141 OFFCURVE",
"475 152 OFFCURVE",
"490 168 CURVE SMOOTH",
"498 177 OFFCURVE",
"495 184 OFFCURVE",
"490 195 CURVE",
"460 239 OFFCURVE",
"380 308 OFFCURVE",
"305 380 CURVE",
"316 400 OFFCURVE",
"321 419 OFFCURVE",
"328 436 CURVE SMOOTH",
"339 471 OFFCURVE",
"349 496 OFFCURVE",
"358 529 CURVE SMOOTH",
"359 532 OFFCURVE",
"358 546 OFFCURVE",
"353 543 CURVE",
"284 561 LINE SMOOTH",
"280 562 OFFCURVE",
"273 561 OFFCURVE",
"273 552 CURVE",
"278 521 OFFCURVE",
"271 473 OFFCURVE",
"256 433 CURVE SMOOTH",
"219 325 OFFCURVE",
"122 187 OFFCURVE",
"46 130 CURVE",
"43 127 OFFCURVE",
"41 123 OFFCURVE",
"45 120 CURVE SMOOTH"
);
},
{
closed = 1;
nodes = (
"596 352 LINE",
"653 354 OFFCURVE",
"712 355 OFFCURVE",
"775 355 CURVE",
"775 217 LINE",
"739 212 OFFCURVE",
"630 214 OFFCURVE",
"596 214 CURVE"
);
}
);
width = 900;
}
);
note = cid00433;
unicode = 317D;
},
{
glyphname = "siosCieucCompa-ko";
lastChange = "2019-11-29 11:50:09 +0000";
layers = (
{
layerId = "210D674B-AD98-4874-A618-1698A23DB8A1";
paths = (
{
closed = 1;
nodes = (
"462 112 LINE SMOOTH",
"473 104 OFFCURVE",
"478 106 OFFCURVE",
"489 113 CURVE SMOOTH",
"558 165 OFFCURVE",
"614 238 OFFCURVE",
"651 318 CURVE",
"701 270 OFFCURVE",
"763 197 OFFCURVE",
"796 145 CURVE SMOOTH",
"799 141 OFFCURVE",
"802 140 OFFCURVE",
"806 142 CURVE SMOOTH",
"822 153 OFFCURVE",
"836 161 OFFCURVE",
"851 177 CURVE SMOOTH",
"858 185 OFFCURVE",
"855 196 OFFCURVE",
"848 203 CURVE SMOOTH",
"807 252 OFFCURVE",
"742 302 OFFCURVE",
"669 361 CURVE",
"686 407 OFFCURVE",
"696 452 OFFCURVE",
"699 496 CURVE",
"738 497 OFFCURVE",
"772 497 OFFCURVE",
"823 496 CURVE SMOOTH",
"832 496 OFFCURVE",
"837 500 OFFCURVE",
"836 508 CURVE SMOOTH",
"836 513 OFFCURVE",
"836 519 OFFCURVE",
"835 525 CURVE SMOOTH",
"831 554 LINE SMOOTH",
"830 562 OFFCURVE",
"822 563 OFFCURVE",
"818 562 CURVE SMOOTH",
"741 546 OFFCURVE",
"531 536 OFFCURVE",
"461 544 CURVE SMOOTH",
"454 545 OFFCURVE",
"452 540 OFFCURVE",
"453 537 CURVE SMOOTH",
"458 512 OFFCURVE",
"458 509 OFFCURVE",
"465 493 CURVE SMOOTH",
"468 484 OFFCURVE",
"469 475 OFFCURVE",
"485 478 CURVE SMOOTH",
"521 483 OFFCURVE",
"557 486 OFFCURVE",
"592 489 CURVE SMOOTH",
"627 492 LINE",
"630 358 OFFCURVE",
"527 200 OFFCURVE",
"435 146 CURVE",
"432 143 OFFCURVE",
"429 138 OFFCURVE",
"434 135 CURVE"
);
},
{
closed = 1;
nodes = (
"95 145 LINE SMOOTH",
"102 139 OFFCURVE",
"110 140 OFFCURVE",
"119 147 CURVE SMOOTH",
"191 203 OFFCURVE",
"246 272 OFFCURVE",
"285 341 CURVE",
"333 301 OFFCURVE",
"388 245 OFFCURVE",
"421 199 CURVE",
"423 194 OFFCURVE",
"426 194 OFFCURVE",
"430 198 CURVE",
"445 209 OFFCURVE",
"453 217 OFFCURVE",
"468 232 CURVE SMOOTH",
"475 239 OFFCURVE",
"473 247 OFFCURVE",
"466 254 CURVE SMOOTH",
"432 291 OFFCURVE",
"362 340 OFFCURVE",
"306 382 CURVE",
"315 401 OFFCURVE",
"321 419 OFFCURVE",
"328 436 CURVE SMOOTH",
"339 471 OFFCURVE",
"349 496 OFFCURVE",
"358 529 CURVE SMOOTH",
"359 532 OFFCURVE",
"358 546 OFFCURVE",
"353 543 CURVE",
"287 559 LINE SMOOTH",
"283 560 OFFCURVE",
"276 559 OFFCURVE",
"276 550 CURVE",
"281 519 OFFCURVE",
"274 471 OFFCURVE",
"259 431 CURVE SMOOTH",
"222 322 OFFCURVE",
"139 234 OFFCURVE",
"64 180 CURVE",
"61 177 OFFCURVE",
"59 173 OFFCURVE",
"63 170 CURVE SMOOTH"
);
}
);
width = 900;
}
);
note = cid00434;
unicode = 317E;
},
{
glyphname = "pansiosCompa-ko";
lastChange = "2019-11-29 11:50:09 +0000";
layers = (
{
layerId = "210D674B-AD98-4874-A618-1698A23DB8A1";
paths = (
{
closed = 1;
nodes = (
"234 129 LINE",
"241 124 OFFCURVE",
"245 125 OFFCURVE",
"252 126 CURVE",
"333 126 OFFCURVE",
"597 134 OFFCURVE",
"673 134 CURVE SMOOTH",
"684 134 OFFCURVE",
"704 166 OFFCURVE",
"698 172 CURVE",
"673 213 OFFCURVE",
"539 429 OFFCURVE",
"495 516 CURVE",
"504 537 OFFCURVE",
"508 547 OFFCURVE",
"511 562 CURVE SMOOTH",
"512 566 OFFCURVE",
"511 569 OFFCURVE",
"506 570 CURVE SMOOTH",
"442 586 LINE",
"438 586 OFFCURVE",
"430 586 OFFCURVE",
"431 575 CURVE SMOOTH",
"434 543 OFFCURVE",
"429 516 OFFCURVE",
"410 475 CURVE SMOOTH",
"390 426 OFFCURVE",
"241 206 OFFCURVE",
"204 173 CURVE SMOOTH",
"200 170 OFFCURVE",
"200 167 OFFCURVE",
"203 163 CURVE SMOOTH"
);
},
{
closed = 1;
nodes = (
"484 426 OFFCURVE",
"562 291 OFFCURVE",
"616 189 CURVE",
"553 184 OFFCURVE",
"369 179 OFFCURVE",
"289 179 CURVE",
"362 292 OFFCURVE",
"450 429 OFFCURVE",
"463 458 CURVE"
);
}
);
width = 900;
}
);
note = cid00435;
unicode = 317F;
},
{
glyphname = "ssangieungCompa-ko";
lastChange = "2019-11-29 11:50:09 +0000";
layers = (
{
layerId = "210D674B-AD98-4874-A618-1698A23DB8A1";
paths = (
{
closed = 1;
nodes = (
"113 518 OFFCURVE",
"55 429 OFFCURVE",
"55 348 CURVE SMOOTH",
"52 256 OFFCURVE",
"118 162 OFFCURVE",
"237 170 CURVE SMOOTH",
"357 175 OFFCURVE",
"413 261 OFFCURVE",
"418 351 CURVE SMOOTH",
"421 461 OFFCURVE",
"345 528 OFFCURVE",
"238 523 CURVE SMOOTH"
);
},
{
closed = 1;
nodes = (
"164 227 OFFCURVE",
"118 283 OFFCURVE",
"118 353 CURVE SMOOTH",
"121 407 OFFCURVE",
"161 474 OFFCURVE",
"242 474 CURVE SMOOTH",
"322 474 OFFCURVE",
"353 405 OFFCURVE",
"353 353 CURVE SMOOTH",
"350 294 OFFCURVE",
"310 233 OFFCURVE",
"237 230 CURVE SMOOTH"
);
},
{
closed = 1;
nodes = (
"543 522 OFFCURVE",
"483 433 OFFCURVE",
"483 352 CURVE SMOOTH",
"483 259 OFFCURVE",
"547 168 OFFCURVE",
"665 173 CURVE SMOOTH",
"785 178 OFFCURVE",
"843 266 OFFCURVE",
"846 354 CURVE SMOOTH",
"849 466 OFFCURVE",
"773 530 OFFCURVE",
"666 527 CURVE SMOOTH"
);
},
{
closed = 1;
nodes = (
"593 231 OFFCURVE",
"547 286 OFFCURVE",
"547 356 CURVE SMOOTH",
"547 411 OFFCURVE",
"589 478 OFFCURVE",
"669 478 CURVE SMOOTH",
"750 481 OFFCURVE",
"781 407 OFFCURVE",
"781 356 CURVE SMOOTH",
"778 297 OFFCURVE",
"739 237 OFFCURVE",
"665 234 CURVE SMOOTH"
);
}
);
width = 900;
}
);
note = cid00436;
unicode = 3180;
},
{
glyphname = "yesieungCompa-ko";
lastChange = "2019-11-29 11:50:09 +0000";
layers = (
{
layerId = "210D674B-AD98-4874-A618-1698A23DB8A1";
paths = (
{
closed = 1;
nodes = (
"226 165 OFFCURVE",
"325 90 OFFCURVE",
"449 93 CURVE SMOOTH",
"571 96 OFFCURVE",
"674 178 OFFCURVE",
"674 291 CURVE SMOOTH",
"674 403 OFFCURVE",
"587 470 OFFCURVE",
"479 478 CURVE",
"479 512 LINE SMOOTH",
"480 547 OFFCURVE",
"479 582 OFFCURVE",
"483 618 CURVE SMOOTH",
"484 624 OFFCURVE",
"483 627 OFFCURVE",
"480 628 CURVE",
"475 628 OFFCURVE",
"420 629 OFFCURVE",
"410 629 CURVE SMOOTH",
"403 629 OFFCURVE",
"399 627 OFFCURVE",
"402 619 CURVE SMOOTH",
"407 606 OFFCURVE",
"413 563 OFFCURVE",
"413 527 CURVE SMOOTH",
"413 476 LINE",
"307 460 OFFCURVE",
"226 380 OFFCURVE",
"226 281 CURVE SMOOTH"
);
},
{
closed = 1;
nodes = (
"295 369 OFFCURVE",
"361 422 OFFCURVE",
"449 427 CURVE SMOOTH",
"536 430 OFFCURVE",
"603 384 OFFCURVE",
"603 291 CURVE SMOOTH",
"603 203 OFFCURVE",
"538 149 OFFCURVE",
"450 144 CURVE",
"362 144 OFFCURVE",
"295 192 OFFCURVE",
"295 283 CURVE SMOOTH"
);
}
);
width = 900;
}
);
note = cid00437;
unicode = 3181;
},
{
glyphname = "yesieungSiosCompa-ko";
lastChange = "2019-11-29 11:50:09 +0000";
layers = (
{
layerId = "210D674B-AD98-4874-A618-1698A23DB8A1";
paths = (
{
closed = 1;
nodes = (
"88 202 OFFCURVE",
"154 118 OFFCURVE",
"271 123 CURVE SMOOTH",
"389 128 OFFCURVE",
"446 208 OFFCURVE",
"451 290 CURVE SMOOTH",
"454 382 OFFCURVE",
"390 441 OFFCURVE",
"298 448 CURVE",
"298 457 LINE SMOOTH",
"299 492 OFFCURVE",
"298 537 OFFCURVE",
"302 573 CURVE SMOOTH",
"303 579 OFFCURVE",
"302 582 OFFCURVE",
"299 583 CURVE",
"294 583 OFFCURVE",
"243 584 OFFCURVE",
"233 584 CURVE SMOOTH",
"226 584 OFFCURVE",
"222 582 OFFCURVE",
"225 574 CURVE SMOOTH",
"230 561 OFFCURVE",
"236 518 OFFCURVE",
"236 482 CURVE SMOOTH",
"236 444 LINE",
"138 428 OFFCURVE",
"91 352 OFFCURVE",
"91 287 CURVE SMOOTH"
);
},
{
closed = 1;
nodes = (
"447 102 LINE",
"454 97 OFFCURVE",
"462 98 OFFCURVE",
"471 105 CURVE SMOOTH",
"539 165 OFFCURVE",
"600 255 OFFCURVE",
"639 338 CURVE",
"701 282 OFFCURVE",
"771 196 OFFCURVE",
"808 134 CURVE SMOOTH",
"811 130 OFFCURVE",
"814 129 OFFCURVE",
"819 132 CURVE SMOOTH",
"838 144 OFFCURVE",
"847 156 OFFCURVE",
"860 173 CURVE SMOOTH",
"868 184 OFFCURVE",
"864 189 OFFCURVE",
"859 200 CURVE",
"827 243 OFFCURVE",
"740 314 OFFCURVE",
"660 384 CURVE",
"669 405 OFFCURVE",
"675 424 OFFCURVE",
"680 443 CURVE SMOOTH",
"689 476 OFFCURVE",
"697 509 OFFCURVE",
"704 544 CURVE SMOOTH",
"705 547 OFFCURVE",
"703 554 OFFCURVE",
"698 551 CURVE",
"628 565 LINE",
"624 565 OFFCURVE",
"617 564 OFFCURVE",
"618 555 CURVE",
"625 524 OFFCURVE",
"620 476 OFFCURVE",
"608 435 CURVE SMOOTH",
"578 325 OFFCURVE",
"489 188 OFFCURVE",
"417 127 CURVE SMOOTH",
"414 124 OFFCURVE",
"412 120 OFFCURVE",
"416 117 CURVE"
);
},
{
closed = 1;
nodes = (
"198 175 OFFCURVE",
"150 225 OFFCURVE",
"151 292 CURVE SMOOTH",
"151 343 OFFCURVE",
"193 404 OFFCURVE",
"276 404 CURVE SMOOTH",
"359 404 OFFCURVE",
"389 338 OFFCURVE",
"389 292 CURVE SMOOTH",
"386 236 OFFCURVE",
"348 181 OFFCURVE",
"271 178 CURVE SMOOTH"
);
}
);
width = 900;
}
);
note = cid00438;
unicode = 3182;
},
{
glyphname = "yesieungPansiosCompa-ko";
lastChange = "2019-11-29 11:50:09 +0000";
layers = (
{
layerId = "210D674B-AD98-4874-A618-1698A23DB8A1";
paths = (
{
closed = 1;
nodes = (
"89 202 OFFCURVE",
"155 118 OFFCURVE",
"272 123 CURVE SMOOTH",
"390 128 OFFCURVE",
"447 208 OFFCURVE",
"452 290 CURVE SMOOTH",
"455 382 OFFCURVE",
"391 441 OFFCURVE",
"299 448 CURVE",
"299 467 LINE SMOOTH",
"300 502 OFFCURVE",
"299 537 OFFCURVE",
"303 573 CURVE SMOOTH",
"304 579 OFFCURVE",
"303 582 OFFCURVE",
"300 583 CURVE",
"295 583 OFFCURVE",
"244 584 OFFCURVE",
"234 584 CURVE SMOOTH",
"227 584 OFFCURVE",
"223 582 OFFCURVE",
"226 574 CURVE SMOOTH",
"231 561 OFFCURVE",
"237 518 OFFCURVE",
"237 482 CURVE SMOOTH",
"237 444 LINE",
"139 428 OFFCURVE",
"92 352 OFFCURVE",
"92 287 CURVE SMOOTH"
);
},
{
closed = 1;
nodes = (
"474 130 LINE",
"481 125 OFFCURVE",
"484 126 OFFCURVE",
"491 127 CURVE SMOOTH",
"565 130 OFFCURVE",
"751 134 OFFCURVE",
"820 134 CURVE SMOOTH",
"830 134 OFFCURVE",
"848 160 OFFCURVE",
"842 166 CURVE",
"818 201 OFFCURVE",
"720 427 OFFCURVE",
"688 502 CURVE",
"696 522 OFFCURVE",
"696 529 OFFCURVE",
"699 542 CURVE SMOOTH",
"700 546 OFFCURVE",
"699 549 OFFCURVE",
"694 550 CURVE SMOOTH",
"636 565 LINE",
"632 565 OFFCURVE",
"625 564 OFFCURVE",
"626 555 CURVE SMOOTH",
"629 524 OFFCURVE",
"624 498 OFFCURVE",
"607 459 CURVE SMOOTH",
"582 402 OFFCURVE",
"490 208 OFFCURVE",
"450 172 CURVE SMOOTH",
"446 169 OFFCURVE",
"446 166 OFFCURVE",
"449 162 CURVE SMOOTH"
);
},
{
closed = 1;
nodes = (
"199 175 OFFCURVE",
"151 225 OFFCURVE",
"152 292 CURVE SMOOTH",
"152 343 OFFCURVE",
"194 404 OFFCURVE",
"277 404 CURVE SMOOTH",
"360 404 OFFCURVE",
"390 338 OFFCURVE",
"390 292 CURVE SMOOTH",
"387 236 OFFCURVE",
"349 181 OFFCURVE",
"272 178 CURVE SMOOTH"
);
},
{
closed = 1;
nodes = (
"670 434 OFFCURVE",
"764 186 OFFCURVE",
"768 186 CURVE SMOOTH",
"709 181 OFFCURVE",
"599 179 OFFCURVE",
"524 179 CURVE",
"579 271 OFFCURVE",
"644 419 OFFCURVE",
"658 446 CURVE"
);
}
);
width = 900;
}
);
note = cid00439;
unicode = 3183;
},
{
glyphname = "kapyeounphieuphCompa-ko";
lastChange = "2019-11-29 11:50:09 +0000";
layers = (
{
layerId = "210D674B-AD98-4874-A618-1698A23DB8A1";
paths = (
{
closed = 1;
nodes = (
"355 189 OFFCURVE",
"309 119 OFFCURVE",
"309 54 CURVE SMOOTH",
"309 -6 OFFCURVE",
"363 -80 OFFCURVE",
"463 -77 CURVE SMOOTH",
"562 -77 OFFCURVE",
"618 -5 OFFCURVE",
"618 61 CURVE SMOOTH",
"618 136 OFFCURVE",
"563 195 OFFCURVE",
"467 192 CURVE SMOOTH"
);
},
{
closed = 1;
nodes = (
"703 286 LINE SMOOTH",
"712 286 OFFCURVE",
"716 290 OFFCURVE",
"715 297 CURVE SMOOTH",
"715 302 OFFCURVE",
"715 306 OFFCURVE",
"714 311 CURVE SMOOTH",
"710 337 LINE SMOOTH",
"709 344 OFFCURVE",
"702 345 OFFCURVE",
"698 344 CURVE SMOOTH",
"667 339 OFFCURVE",
"629 335 OFFCURVE",
"584 332 CURVE",
"593 418 LINE SMOOTH",
"596 466 OFFCURVE",
"601 493 OFFCURVE",
"606 547 CURVE SMOOTH",
"607 552 OFFCURVE",
"606 556 OFFCURVE",
"601 557 CURVE SMOOTH",
"596 557 OFFCURVE",
"545 560 OFFCURVE",
"535 560 CURVE SMOOTH",
"530 560 OFFCURVE",
"525 557 OFFCURVE",
"528 550 CURVE SMOOTH",
"535 537 OFFCURVE",
"538 489 OFFCURVE",
"535 438 CURVE SMOOTH",
"532 379 OFFCURVE",
"531 364 OFFCURVE",
"528 329 CURVE",
"472 326 OFFCURVE",
"418 325 OFFCURVE",
"371 325 CURVE",
"371 362 OFFCURVE",
"372 398 OFFCURVE",
"372 425 CURVE SMOOTH",
"372 474 OFFCURVE",
"371 487 OFFCURVE",
"374 540 CURVE SMOOTH",
"374 544 OFFCURVE",
"372 546 OFFCURVE",
"369 547 CURVE",
"364 547 OFFCURVE",
"316 548 OFFCURVE",
"305 548 CURVE SMOOTH",
"300 548 OFFCURVE",
"295 545 OFFCURVE",
"298 538 CURVE SMOOTH",
"305 525 OFFCURVE",
"310 492 OFFCURVE",
"313 441 CURVE SMOOTH",
"317 325 LINE",
"266 325 OFFCURVE",
"229 327 OFFCURVE",
"197 331 CURVE SMOOTH",
"190 332 OFFCURVE",
"188 327 OFFCURVE",
"189 324 CURVE SMOOTH",
"195 301 OFFCURVE",
"196 299 OFFCURVE",
"201 284 CURVE SMOOTH",
"204 276 OFFCURVE",
"207 268 OFFCURVE",
"222 271 CURVE SMOOTH",
"255 275 OFFCURVE",
"311 276 OFFCURVE",
"344 279 CURVE SMOOTH",
"370 282 OFFCURVE",
"549 286 OFFCURVE",
"578 286 CURVE SMOOTH"
);
},
{
closed = 1;
nodes = (
"404 -30 OFFCURVE",
"366 11 OFFCURVE",
"366 55 CURVE SMOOTH",
"366 106 OFFCURVE",
"395 144 OFFCURVE",
"467 147 CURVE SMOOTH",
"533 150 OFFCURVE",
"561 99 OFFCURVE",
"558 60 CURVE SMOOTH",
"554 11 OFFCURVE",
"523 -26 OFFCURVE",
"463 -27 CURVE SMOOTH"
);
},
{
closed = 1;
nodes = (
"696 586 OFFCURVE",
"700 590 OFFCURVE",
"699 597 CURVE SMOOTH",
"697 615 LINE SMOOTH",
"696 626 OFFCURVE",
"693 636 OFFCURVE",
"692 644 CURVE SMOOTH",
"691 651 OFFCURVE",
"684 652 OFFCURVE",
"680 651 CURVE SMOOTH",
"629 644 OFFCURVE",
"570 640 OFFCURVE",
"526 637 CURVE SMOOTH",
"481 634 OFFCURVE",
"418 632 OFFCURVE",
"355 632 CURVE SMOOTH",
"291 632 OFFCURVE",
"255 634 OFFCURVE",
"218 637 CURVE SMOOTH",
"211 637 OFFCURVE",
"209 635 OFFCURVE",
"210 630 CURVE SMOOTH",
"214 610 OFFCURVE",
"216 602 OFFCURVE",
"221 587 CURVE SMOOTH",
"224 579 OFFCURVE",
"225 571 OFFCURVE",
"240 574 CURVE SMOOTH",
"273 578 OFFCURVE",
"324 581 OFFCURVE",
"357 584 CURVE SMOOTH",
"392 587 OFFCURVE",
"519 589 OFFCURVE",
"577 589 CURVE SMOOTH",
"604 589 OFFCURVE",
"662 586 OFFCURVE",
"687 586 CURVE SMOOTH"
);
}
);
width = 900;
}
);
note = cid00440;
unicode = 3184;
},
{
glyphname = "ssanghieuhCompa-ko";
lastChange = "2019-11-29 11:50:09 +0000";
layers = (
{
layerId = "210D674B-AD98-4874-A618-1698A23DB8A1";
paths = (
{
closed = 1;
nodes = (
"838 408 OFFCURVE",
"792 409 OFFCURVE",
"765 409 CURVE SMOOTH",
"685 409 OFFCURVE",
"593 401 OFFCURVE",
"484 390 CURVE SMOOTH",
"471 389 OFFCURVE",
"470 390 OFFCURVE",
"467 397 CURVE SMOOTH",
"462 413 OFFCURVE",
"460 427 OFFCURVE",
"455 447 CURVE SMOOTH",
"454 450 OFFCURVE",
"457 453 OFFCURVE",
"462 453 CURVE SMOOTH",
"607 445 OFFCURVE",
"701 453 OFFCURVE",
"761 460 CURVE SMOOTH",
"806 465 OFFCURVE",
"825 469 OFFCURVE",
"856 476 CURVE SMOOTH",
"861 477 OFFCURVE",
"867 476 OFFCURVE",
"868 468 CURVE SMOOTH",
"872 439 LINE SMOOTH",
"873 434 OFFCURVE",
"873 428 OFFCURVE",
"873 423 CURVE SMOOTH",
"874 415 OFFCURVE",
"871 408 OFFCURVE",
"862 408 CURVE SMOOTH"
);
},
{
closed = 1;
nodes = (
"775 360 OFFCURVE",
"832 304 OFFCURVE",
"832 228 CURVE SMOOTH",
"832 161 OFFCURVE",
"775 95 OFFCURVE",
"671 92 CURVE SMOOTH",
"567 89 OFFCURVE",
"511 161 OFFCURVE",
"511 222 CURVE SMOOTH",
"511 287 OFFCURVE",
"559 354 OFFCURVE",
"675 357 CURVE SMOOTH"
);
},
{
closed = 1;
nodes = (
"731 146 OFFCURVE",
"767 183 OFFCURVE",
"770 230 CURVE SMOOTH",
"773 267 OFFCURVE",
"744 315 OFFCURVE",
"675 315 CURVE SMOOTH",
"603 312 OFFCURVE",
"571 271 OFFCURVE",
"571 226 CURVE SMOOTH",
"571 183 OFFCURVE",
"612 145 OFFCURVE",
"671 145 CURVE SMOOTH"
);
},
{
closed = 1;
nodes = (
"524 589 OFFCURVE",
"513 554 OFFCURVE",
"520 549 CURVE SMOOTH",
"556 528 OFFCURVE",
"607 523 OFFCURVE",
"636 522 CURVE SMOOTH",
"693 522 OFFCURVE",
"762 529 OFFCURVE",
"775 534 CURVE SMOOTH",
"784 537 OFFCURVE",
"783 572 OFFCURVE",
"783 583 CURVE",
"782 588 OFFCURVE",
"781 591 OFFCURVE",
"769 588 CURVE SMOOTH",
"719 580 OFFCURVE",
"654 573 OFFCURVE",
"535 586 CURVE"
);
},
{
closed = 1;
nodes = (
"398 394 OFFCURVE",
"357 394 OFFCURVE",
"332 394 CURVE SMOOTH",
"255 394 OFFCURVE",
"162 386 OFFCURVE",
"55 375 CURVE",
"42 375 OFFCURVE",
"41 375 OFFCURVE",
"38 382 CURVE SMOOTH",
"33 398 OFFCURVE",
"31 411 OFFCURVE",
"26 431 CURVE SMOOTH",
"25 434 OFFCURVE",
"28 437 OFFCURVE",
"33 437 CURVE SMOOTH",
"174 429 OFFCURVE",
"269 437 OFFCURVE",
"328 444 CURVE SMOOTH",
"371 449 OFFCURVE",
"386 451 OFFCURVE",
"415 459 CURVE SMOOTH",
"420 460 OFFCURVE",
"426 459 OFFCURVE",
"427 451 CURVE SMOOTH",
"431 423 LINE SMOOTH",
"432 418 OFFCURVE",
"432 412 OFFCURVE",
"432 407 CURVE SMOOTH",
"433 400 OFFCURVE",
"430 393 OFFCURVE",
"421 393 CURVE SMOOTH"
);
},
{
closed = 1;
nodes = (
"337 350 OFFCURVE",
"392 295 OFFCURVE",
"392 221 CURVE SMOOTH",
"392 156 OFFCURVE",
"337 92 OFFCURVE",
"236 89 CURVE SMOOTH",
"135 86 OFFCURVE",
"81 156 OFFCURVE",
"81 215 CURVE SMOOTH",
"81 277 OFFCURVE",
"127 344 OFFCURVE",
"240 347 CURVE SMOOTH"
);
},
{
closed = 1;
nodes = (
"295 142 OFFCURVE",
"329 178 OFFCURVE",
"332 223 CURVE SMOOTH",
"335 260 OFFCURVE",
"307 305 OFFCURVE",
"240 305 CURVE SMOOTH",
"169 302 OFFCURVE",
"139 263 OFFCURVE",
"139 219 CURVE SMOOTH",
"139 177 OFFCURVE",
"179 141 OFFCURVE",
"236 141 CURVE SMOOTH"
);
},
{
closed = 1;
nodes = (
"103 566 OFFCURVE",
"92 532 OFFCURVE",
"99 527 CURVE SMOOTH",
"133 506 OFFCURVE",
"194 501 OFFCURVE",
"221 501 CURVE SMOOTH",
"278 501 OFFCURVE",
"333 506 OFFCURVE",
"346 512 CURVE SMOOTH",
"355 515 OFFCURVE",
"354 550 OFFCURVE",
"354 560 CURVE",
"353 565 OFFCURVE",
"352 568 OFFCURVE",
"341 565 CURVE",
"293 557 OFFCURVE",
"229 552 OFFCURVE",
"113 563 CURVE"
);
}
);
width = 900;
}
);
note = cid00441;
unicode = 3185;
},
{
glyphname = "yeorinhieuhCompa-ko";
lastChange = "2019-11-29 11:50:09 +0000";
layers = (
{
layerId = "210D674B-AD98-4874-A618-1698A23DB8A1";
paths = (
{
closed = 1;
nodes = (
"757 479 OFFCURVE",
"761 483 OFFCURVE",
"760 491 CURVE SMOOTH",
"758 511 LINE",
"754 543 LINE SMOOTH",
"753 551 OFFCURVE",
"746 552 OFFCURVE",
"742 551 CURVE SMOOTH",
"590 523 OFFCURVE",
"247 519 OFFCURVE",
"151 527 CURVE SMOOTH",
"144 528 OFFCURVE",
"142 522 OFFCURVE",
"143 519 CURVE SMOOTH",
"157 473 LINE SMOOTH",
"160 465 OFFCURVE",
"162 457 OFFCURVE",
"177 460 CURVE",
"217 463 OFFCURVE",
"319 469 OFFCURVE",
"352 472 CURVE SMOOTH",
"379 475 OFFCURVE",
"527 483 OFFCURVE",
"586 483 CURVE SMOOTH",
"614 483 OFFCURVE",
"717 479 OFFCURVE",
"748 479 CURVE SMOOTH"
);
},
{
closed = 1;
nodes = (
"327 412 OFFCURVE",
"261 325 OFFCURVE",
"261 251 CURVE SMOOTH",
"258 162 OFFCURVE",
"328 75 OFFCURVE",
"455 78 CURVE SMOOTH",
"588 81 OFFCURVE",
"650 159 OFFCURVE",
"655 250 CURVE SMOOTH",
"658 354 OFFCURVE",
"576 420 OFFCURVE",
"459 417 CURVE SMOOTH"
);
},
{
closed = 1;
nodes = (
"371 127 OFFCURVE",
"327 182 OFFCURVE",
"327 251 CURVE SMOOTH",
"327 309 OFFCURVE",
"369 369 OFFCURVE",
"461 369 CURVE SMOOTH",
"556 369 OFFCURVE",
"591 302 OFFCURVE",
"588 250 CURVE SMOOTH",
"585 185 OFFCURVE",
"544 133 OFFCURVE",
"455 130 CURVE SMOOTH"
);
}
);
width = 900;
}
);
note = cid00442;
unicode = 3186;
},
{
glyphname = "yoYaCompa-ko";
lastChange = "2019-11-29 11:50:09 +0000";
layers = (
{
layerId = "210D674B-AD98-4874-A618-1698A23DB8A1";
paths = (
{
closed = 1;
nodes = (
"828 310 OFFCURVE",
"757 302 OFFCURVE",
"702 302 CURVE",
"702 494 LINE",
"758 497 OFFCURVE",
"832 495 OFFCURVE",
"859 495 CURVE SMOOTH",
"865 495 OFFCURVE",
"868 499 OFFCURVE",
"868 506 CURVE SMOOTH",
"868 523 OFFCURVE",
"867 540 OFFCURVE",
"864 555 CURVE SMOOTH",
"863 560 OFFCURVE",
"860 562 OFFCURVE",
"854 561 CURVE SMOOTH",
"829 555 OFFCURVE",
"757 548 OFFCURVE",
"702 545 CURVE",
"702 627 LINE SMOOTH",
"702 675 OFFCURVE",
"702 706 OFFCURVE",
"706 755 CURVE SMOOTH",
"706 760 OFFCURVE",
"704 762 OFFCURVE",
"701 763 CURVE",
"697 763 OFFCURVE",
"647 764 OFFCURVE",
"636 764 CURVE SMOOTH",
"631 764 OFFCURVE",
"626 761 OFFCURVE",
"629 754 CURVE SMOOTH",
"636 741 OFFCURVE",
"639 693 OFFCURVE",
"639 642 CURVE SMOOTH",
"639 -77 LINE SMOOTH",
"639 -80 OFFCURVE",
"640 -82 OFFCURVE",
"643 -82 CURVE SMOOTH",
"650 -82 OFFCURVE",
"687 -79 OFFCURVE",
"694 -79 CURVE SMOOTH",
"701 -78 OFFCURVE",
"702 -77 OFFCURVE",
"702 -57 CURVE SMOOTH",
"702 251 LINE",
"760 251 OFFCURVE",
"832 248 OFFCURVE",
"861 248 CURVE SMOOTH",
"867 248 OFFCURVE",
"870 252 OFFCURVE",
"870 259 CURVE SMOOTH",
"869 276 OFFCURVE",
"868 292 OFFCURVE",
"865 309 CURVE SMOOTH",
"864 314 OFFCURVE",
"861 316 OFFCURVE",
"855 315 CURVE SMOOTH"
);
},
{
closed = 1;
nodes = (
"42 183 OFFCURVE",
"40 178 OFFCURVE",
"41 175 CURVE SMOOTH",
"46 152 OFFCURVE",
"49 143 OFFCURVE",
"54 128 CURVE SMOOTH",
"58 116 OFFCURVE",
"59 115 OFFCURVE",
"74 116 CURVE SMOOTH",
"118 120 OFFCURVE",
"177 119 OFFCURVE",
"249 122 CURVE SMOOTH",
"358 127 OFFCURVE",
"541 158 OFFCURVE",
"599 174 CURVE SMOOTH",
"607 177 OFFCURVE",
"612 179 OFFCURVE",
"611 191 CURVE SMOOTH",
"607 219 LINE SMOOTH",
"606 224 OFFCURVE",
"603 226 OFFCURVE",
"598 224 CURVE SMOOTH",
"551 211 OFFCURVE",
"493 200 OFFCURVE",
"432 193 CURVE",
"437 289 LINE",
"445 380 LINE SMOOTH",
"445 385 OFFCURVE",
"447 388 OFFCURVE",
"442 391 CURVE",
"437 391 OFFCURVE",
"394 393 OFFCURVE",
"383 393 CURVE SMOOTH",
"378 393 OFFCURVE",
"372 392 OFFCURVE",
"375 383 CURVE SMOOTH",
"381 369 OFFCURVE",
"381 321 OFFCURVE",
"381 286 CURVE SMOOTH",
"379 187 LINE",
"332 183 OFFCURVE",
"286 180 OFFCURVE",
"246 179 CURVE",
"245 260 LINE SMOOTH",
"244 295 OFFCURVE",
"245 327 OFFCURVE",
"246 362 CURVE SMOOTH",
"246 367 OFFCURVE",
"247 372 OFFCURVE",
"242 373 CURVE",
"183 373 LINE",
"178 372 OFFCURVE",
"173 370 OFFCURVE",
"176 362 CURVE SMOOTH",
"179 353 OFFCURVE",
"187 315 OFFCURVE",
"190 282 CURVE SMOOTH",
"191 254 OFFCURVE",
"191 211 OFFCURVE",
"194 178 CURVE",
"125 177 OFFCURVE",
"72 178 OFFCURVE",
"49 182 CURVE SMOOTH"
);
}
);
width = 900;
}
);
note = cid00443;
unicode = 3187;
},
{
glyphname = "yoYaeCompa-ko";
lastChange = "2019-11-29 11:50:09 +0000";
layers = (
{
layerId = "210D674B-AD98-4874-A618-1698A23DB8A1";
paths = (
{
closed = 1;
nodes = (
"615 -52 OFFCURVE",
"616 -51 OFFCURVE",
"616 -31 CURVE SMOOTH",
"616 244 LINE",
"722 246 LINE",
"722 -77 LINE SMOOTH",
"722 -80 OFFCURVE",
"723 -82 OFFCURVE",
"726 -82 CURVE SMOOTH",
"733 -82 OFFCURVE",
"767 -79 OFFCURVE",
"774 -79 CURVE SMOOTH",
"781 -78 OFFCURVE",
"782 -77 OFFCURVE",
"782 -57 CURVE SMOOTH",
"782 627 LINE SMOOTH",
"782 675 OFFCURVE",
"781 706 OFFCURVE",
"785 755 CURVE SMOOTH",
"785 760 OFFCURVE",
"783 762 OFFCURVE",
"780 763 CURVE",
"775 763 OFFCURVE",
"732 764 OFFCURVE",
"721 764 CURVE SMOOTH",
"716 764 OFFCURVE",
"711 761 OFFCURVE",
"714 754 CURVE SMOOTH",
"721 741 OFFCURVE",
"722 693 OFFCURVE",
"722 642 CURVE SMOOTH",
"722 519 LINE",
"686 516 OFFCURVE",
"647 518 OFFCURVE",
"616 518 CURVE",
"616 601 LINE SMOOTH",
"616 649 OFFCURVE",
"615 680 OFFCURVE",
"618 729 CURVE SMOOTH",
"618 734 OFFCURVE",
"616 736 OFFCURVE",
"613 737 CURVE",
"608 737 OFFCURVE",
"565 738 OFFCURVE",
"554 738 CURVE SMOOTH",
"549 738 OFFCURVE",
"544 735 OFFCURVE",
"547 728 CURVE SMOOTH",
"554 715 OFFCURVE",
"556 667 OFFCURVE",
"556 616 CURVE SMOOTH",
"556 -51 LINE SMOOTH",
"556 -54 OFFCURVE",
"557 -56 OFFCURVE",
"560 -56 CURVE SMOOTH",
"567 -56 OFFCURVE",
"601 -53 OFFCURVE",
"608 -53 CURVE SMOOTH"
);
},
{
closed = 1;
nodes = (
"62 193 OFFCURVE",
"60 188 OFFCURVE",
"61 185 CURVE SMOOTH",
"66 162 OFFCURVE",
"69 155 OFFCURVE",
"74 140 CURVE SMOOTH",
"78 128 OFFCURVE",
"79 127 OFFCURVE",
"94 128 CURVE SMOOTH",
"138 131 OFFCURVE",
"158 135 OFFCURVE",
"229 138 CURVE SMOOTH",
"346 143 OFFCURVE",
"459 157 OFFCURVE",
"523 172 CURVE",
"531 175 OFFCURVE",
"537 177 OFFCURVE",
"534 189 CURVE SMOOTH",
"529 216 LINE SMOOTH",
"528 221 OFFCURVE",
"525 223 OFFCURVE",
"520 221 CURVE SMOOTH",
"492 212 OFFCURVE",
"449 205 OFFCURVE",
"400 198 CURVE",
"404 289 LINE",
"412 380 LINE SMOOTH",
"412 385 OFFCURVE",
"414 388 OFFCURVE",
"409 391 CURVE",
"405 391 OFFCURVE",
"361 393 OFFCURVE",
"352 393 CURVE SMOOTH",
"347 393 OFFCURVE",
"341 392 OFFCURVE",
"344 383 CURVE SMOOTH",
"350 369 OFFCURVE",
"350 321 OFFCURVE",
"350 286 CURVE SMOOTH",
"348 192 LINE",
"313 189 OFFCURVE",
"276 187 OFFCURVE",
"237 186 CURVE",
"236 260 LINE SMOOTH",
"235 295 OFFCURVE",
"236 327 OFFCURVE",
"237 362 CURVE SMOOTH",
"237 367 OFFCURVE",
"238 372 OFFCURVE",
"233 373 CURVE",
"176 373 LINE",
"171 372 OFFCURVE",
"166 370 OFFCURVE",
"169 362 CURVE SMOOTH",
"172 353 OFFCURVE",
"179 315 OFFCURVE",
"182 282 CURVE",
"185 185 LINE",
"128 185 OFFCURVE",
"92 189 OFFCURVE",
"69 192 CURVE SMOOTH"
);
},
{
closed = 1;
nodes = (
"722 294 LINE",
"687 293 OFFCURVE",
"647 292 OFFCURVE",
"616 293 CURVE",
"616 468 LINE",
"647 469 OFFCURVE",
"685 469 OFFCURVE",
"722 469 CURVE"
);
}
);
width = 900;
}
);
note = cid00444;
unicode = 3188;
},
{
glyphname = "yoICompa-ko";
lastChange = "2019-11-29 11:50:09 +0000";
layers = (
{
layerId = "210D674B-AD98-4874-A618-1698A23DB8A1";
paths = (
{
closed = 1;
nodes = (
"72 183 OFFCURVE",
"70 178 OFFCURVE",
"71 175 CURVE SMOOTH",
"76 152 OFFCURVE",
"79 143 OFFCURVE",
"84 128 CURVE SMOOTH",
"88 116 OFFCURVE",
"89 115 OFFCURVE",
"104 116 CURVE SMOOTH",
"148 120 OFFCURVE",
"217 124 OFFCURVE",
"289 127 CURVE SMOOTH",
"398 132 OFFCURVE",
"601 158 OFFCURVE",
"659 174 CURVE SMOOTH",
"667 177 OFFCURVE",
"672 179 OFFCURVE",
"671 191 CURVE SMOOTH",
"667 219 LINE SMOOTH",
"666 224 OFFCURVE",
"663 226 OFFCURVE",
"658 224 CURVE SMOOTH",
"617 212 OFFCURVE",
"563 202 OFFCURVE",
"504 195 CURVE",
"509 299 LINE",
"517 390 LINE SMOOTH",
"517 395 OFFCURVE",
"519 398 OFFCURVE",
"514 401 CURVE",
"509 401 OFFCURVE",
"466 403 OFFCURVE",
"455 403 CURVE SMOOTH",
"450 403 OFFCURVE",
"444 402 OFFCURVE",
"447 393 CURVE SMOOTH",
"453 379 OFFCURVE",
"453 331 OFFCURVE",
"453 296 CURVE SMOOTH",
"451 190 LINE",
"396 183 OFFCURVE",
"344 182 OFFCURVE",
"299 179 CURVE",
"297 268 LINE SMOOTH",
"296 303 OFFCURVE",
"297 335 OFFCURVE",
"298 370 CURVE SMOOTH",
"298 375 OFFCURVE",
"299 380 OFFCURVE",
"294 381 CURVE",
"235 381 LINE",
"230 380 OFFCURVE",
"225 378 OFFCURVE",
"228 370 CURVE SMOOTH",
"231 361 OFFCURVE",
"239 323 OFFCURVE",
"242 290 CURVE SMOOTH",
"245 259 OFFCURVE",
"243 213 OFFCURVE",
"246 178 CURVE",
"170 177 OFFCURVE",
"104 178 OFFCURVE",
"79 182 CURVE SMOOTH"
);
},
{
closed = 1;
nodes = (
"760 -78 OFFCURVE",
"761 -77 OFFCURVE",
"761 -57 CURVE SMOOTH",
"761 627 LINE SMOOTH",
"761 675 OFFCURVE",
"761 706 OFFCURVE",
"765 755 CURVE SMOOTH",
"765 760 OFFCURVE",
"763 762 OFFCURVE",
"760 763 CURVE",
"756 763 OFFCURVE",
"706 764 OFFCURVE",
"695 764 CURVE SMOOTH",
"690 764 OFFCURVE",
"685 761 OFFCURVE",
"688 754 CURVE SMOOTH",
"695 741 OFFCURVE",
"698 693 OFFCURVE",
"698 642 CURVE SMOOTH",
"698 -77 LINE SMOOTH",
"698 -80 OFFCURVE",
"699 -82 OFFCURVE",
"702 -82 CURVE SMOOTH",
"709 -82 OFFCURVE",
"746 -79 OFFCURVE",
"753 -79 CURVE SMOOTH"
);
}
);
width = 900;
}
);
note = cid00445;
unicode = 3189;
},
{
glyphname = "yuYeoCompa-ko";
lastChange = "2019-11-29 11:50:09 +0000";
layers = (
{
layerId = "210D674B-AD98-4874-A618-1698A23DB8A1";
paths = (
{
closed = 1;
nodes = (
"72 366 OFFCURVE",
"70 361 OFFCURVE",
"71 358 CURVE SMOOTH",
"76 335 OFFCURVE",
"79 327 OFFCURVE",
"84 312 CURVE SMOOTH",
"88 300 OFFCURVE",
"89 299 OFFCURVE",
"104 300 CURVE SMOOTH",
"221 308 LINE",
"226 204 OFFCURVE",
"208 65 OFFCURVE",
"184 -9 CURVE SMOOTH",
"181 -18 OFFCURVE",
"186 -19 OFFCURVE",
"189 -19 CURVE SMOOTH",
"201 -19 OFFCURVE",
"219 -18 OFFCURVE",
"230 -17 CURVE SMOOTH",
"238 -16 OFFCURVE",
"244 -12 OFFCURVE",
"251 11 CURVE SMOOTH",
"272 80 OFFCURVE",
"286 211 OFFCURVE",
"286 312 CURVE",
"389 320 LINE",
"389 -13 LINE SMOOTH",
"389 -16 OFFCURVE",
"390 -18 OFFCURVE",
"393 -18 CURVE SMOOTH",
"398 -18 OFFCURVE",
"436 -15 OFFCURVE",
"443 -15 CURVE",
"448 -14 OFFCURVE",
"450 -13 OFFCURVE",
"450 7 CURVE SMOOTH",
"450 327 LINE",
"530 336 OFFCURVE",
"603 345 OFFCURVE",
"636 356 CURVE SMOOTH",
"644 359 OFFCURVE",
"650 361 OFFCURVE",
"647 373 CURVE SMOOTH",
"643 400 LINE SMOOTH",
"642 405 OFFCURVE",
"639 407 OFFCURVE",
"634 405 CURVE",
"530 378 OFFCURVE",
"391 366 OFFCURVE",
"254 361 CURVE SMOOTH",
"166 358 OFFCURVE",
"107 361 OFFCURVE",
"79 365 CURVE SMOOTH"
);
},
{
closed = 1;
nodes = (
"765 -78 OFFCURVE",
"766 -77 OFFCURVE",
"766 -57 CURVE SMOOTH",
"766 627 LINE SMOOTH",
"766 675 OFFCURVE",
"766 706 OFFCURVE",
"770 755 CURVE SMOOTH",
"770 760 OFFCURVE",
"768 762 OFFCURVE",
"765 763 CURVE",
"761 763 OFFCURVE",
"711 764 OFFCURVE",
"700 764 CURVE SMOOTH",
"695 764 OFFCURVE",
"690 761 OFFCURVE",
"693 754 CURVE SMOOTH",
"700 741 OFFCURVE",
"703 693 OFFCURVE",
"703 642 CURVE SMOOTH",
"703 268 LINE",
"648 265 OFFCURVE",
"580 265 OFFCURVE",
"549 270 CURVE SMOOTH",
"542 271 OFFCURVE",
"542 266 OFFCURVE",
"542 263 CURVE SMOOTH",
"548 223 LINE",
"551 215 OFFCURVE",
"551 212 OFFCURVE",
"566 213 CURVE SMOOTH",
"598 216 OFFCURVE",
"640 217 OFFCURVE",
"672 220 CURVE SMOOTH",
"703 221 LINE",
"703 127 LINE",
"648 124 OFFCURVE",
"574 124 OFFCURVE",
"543 129 CURVE SMOOTH",
"536 130 OFFCURVE",
"536 125 OFFCURVE",
"536 122 CURVE SMOOTH",
"542 82 LINE",
"545 74 OFFCURVE",
"545 71 OFFCURVE",
"560 72 CURVE SMOOTH",
"592 75 OFFCURVE",
"634 76 OFFCURVE",
"666 79 CURVE SMOOTH",
"703 81 LINE",
"703 -77 LINE SMOOTH",
"703 -80 OFFCURVE",
"704 -82 OFFCURVE",
"707 -82 CURVE SMOOTH",
"714 -82 OFFCURVE",
"751 -79 OFFCURVE",
"758 -79 CURVE SMOOTH"
);
}
);
width = 900;
}
);
note = cid00446;
unicode = 318A;
},
{
glyphname = "yuYeCompa-ko";
lastChange = "2019-11-29 11:50:09 +0000";
layers = (
{
layerId = "210D674B-AD98-4874-A618-1698A23DB8A1";
paths = (
{
closed = 1;
nodes = (
"644 -53 OFFCURVE",
"645 -52 OFFCURVE",
"645 -32 CURVE SMOOTH",
"645 597 LINE SMOOTH",
"645 645 OFFCURVE",
"646 669 OFFCURVE",
"646 723 CURVE SMOOTH",
"646 728 OFFCURVE",
"647 732 OFFCURVE",
"642 733 CURVE SMOOTH",
"637 733 OFFCURVE",
"592 734 OFFCURVE",
"581 734 CURVE SMOOTH",
"576 734 OFFCURVE",
"571 731 OFFCURVE",
"574 724 CURVE SMOOTH",
"581 711 OFFCURVE",
"586 683 OFFCURVE",
"586 632 CURVE SMOOTH",
"586 256 LINE",
"535 253 OFFCURVE",
"470 253 OFFCURVE",
"441 258 CURVE SMOOTH",
"434 259 OFFCURVE",
"434 254 OFFCURVE",
"434 251 CURVE SMOOTH",
"440 212 LINE",
"443 204 OFFCURVE",
"443 201 OFFCURVE",
"458 202 CURVE SMOOTH",
"489 205 OFFCURVE",
"530 206 OFFCURVE",
"561 209 CURVE SMOOTH",
"586 210 LINE",
"586 118 LINE",
"533 115 OFFCURVE",
"468 115 OFFCURVE",
"435 120 CURVE SMOOTH",
"428 121 OFFCURVE",
"428 116 OFFCURVE",
"428 113 CURVE",
"431 97 OFFCURVE",
"431 90 OFFCURVE",
"434 74 CURVE",
"437 66 OFFCURVE",
"437 63 OFFCURVE",
"452 64 CURVE SMOOTH",
"483 67 OFFCURVE",
"524 68 OFFCURVE",
"556 71 CURVE SMOOTH",
"586 72 LINE",
"586 -52 LINE SMOOTH",
"586 -55 OFFCURVE",
"587 -57 OFFCURVE",
"590 -57 CURVE SMOOTH",
"598 -57 OFFCURVE",
"629 -54 OFFCURVE",
"637 -54 CURVE SMOOTH"
);
},
{
closed = 1;
nodes = (
"52 352 OFFCURVE",
"50 347 OFFCURVE",
"51 344 CURVE SMOOTH",
"56 321 OFFCURVE",
"59 314 OFFCURVE",
"64 299 CURVE SMOOTH",
"68 287 OFFCURVE",
"69 286 OFFCURVE",
"84 287 CURVE SMOOTH",
"115 290 OFFCURVE",
"138 294 OFFCURVE",
"173 297 CURVE",
"176 198 OFFCURVE",
"159 69 OFFCURVE",
"138 -3 CURVE",
"135 -10 OFFCURVE",
"139 -11 OFFCURVE",
"142 -11 CURVE SMOOTH",
"153 -11 OFFCURVE",
"171 -10 OFFCURVE",
"182 -9 CURVE SMOOTH",
"190 -9 OFFCURVE",
"194 -6 OFFCURVE",
"201 17 CURVE SMOOTH",
"220 84 OFFCURVE",
"236 206 OFFCURVE",
"236 302 CURVE",
"315 309 LINE",
"315 -6 LINE SMOOTH",
"315 -9 OFFCURVE",
"316 -10 OFFCURVE",
"317 -10 CURVE SMOOTH",
"322 -10 OFFCURVE",
"361 -8 OFFCURVE",
"366 -8 CURVE",
"370 -7 OFFCURVE",
"372 -6 OFFCURVE",
"372 13 CURVE SMOOTH",
"372 316 LINE",
"436 323 OFFCURVE",
"493 332 OFFCURVE",
"513 337 CURVE SMOOTH",
"521 340 OFFCURVE",
"527 342 OFFCURVE",
"524 354 CURVE SMOOTH",
"519 379 LINE SMOOTH",
"518 384 OFFCURVE",
"515 386 OFFCURVE",
"510 384 CURVE SMOOTH",
"474 371 OFFCURVE",
"337 353 OFFCURVE",
"244 350 CURVE SMOOTH",
"156 346 OFFCURVE",
"87 347 OFFCURVE",
"59 351 CURVE SMOOTH"
);
},
{
closed = 1;
nodes = (
"781 -78 OFFCURVE",
"782 -77 OFFCURVE",
"782 -57 CURVE SMOOTH",
"782 627 LINE SMOOTH",
"782 675 OFFCURVE",
"781 699 OFFCURVE",
"784 753 CURVE SMOOTH",
"784 758 OFFCURVE",
"786 762 OFFCURVE",
"781 763 CURVE SMOOTH",
"776 763 OFFCURVE",
"733 764 OFFCURVE",
"722 764 CURVE SMOOTH",
"717 764 OFFCURVE",
"712 761 OFFCURVE",
"715 754 CURVE SMOOTH",
"722 741 OFFCURVE",
"722 713 OFFCURVE",
"722 662 CURVE SMOOTH",
"722 -77 LINE SMOOTH",
"722 -80 OFFCURVE",
"723 -82 OFFCURVE",
"726 -82 CURVE SMOOTH",
"733 -82 OFFCURVE",
"767 -79 OFFCURVE",
"774 -79 CURVE SMOOTH"
);
}
);
width = 900;
}
);
note = cid00447;
unicode = 318B;
},
{
glyphname = "yuICompa-ko";
lastChange = "2019-11-29 11:50:09 +0000";
layers = (
{
layerId = "210D674B-AD98-4874-A618-1698A23DB8A1";
paths = (
{
closed = 1;
nodes = (
"62 336 OFFCURVE",
"60 331 OFFCURVE",
"61 328 CURVE SMOOTH",
"66 305 OFFCURVE",
"69 297 OFFCURVE",
"74 282 CURVE SMOOTH",
"78 270 OFFCURVE",
"79 269 OFFCURVE",
"94 270 CURVE SMOOTH",
"232 278 LINE",
"235 177 OFFCURVE",
"215 41 OFFCURVE",
"194 -29 CURVE SMOOTH",
"191 -38 OFFCURVE",
"196 -39 OFFCURVE",
"199 -39 CURVE SMOOTH",
"211 -39 OFFCURVE",
"229 -38 OFFCURVE",
"240 -37 CURVE SMOOTH",
"248 -36 OFFCURVE",
"254 -32 OFFCURVE",
"261 -9 CURVE SMOOTH",
"280 56 OFFCURVE",
"296 183 OFFCURVE",
"296 282 CURVE",
"340 285 OFFCURVE",
"393 288 OFFCURVE",
"448 295 CURVE",
"448 -33 LINE SMOOTH",
"448 -36 OFFCURVE",
"449 -38 OFFCURVE",
"452 -38 CURVE SMOOTH",
"457 -38 OFFCURVE",
"495 -35 OFFCURVE",
"502 -35 CURVE",
"507 -34 OFFCURVE",
"509 -33 OFFCURVE",
"509 -13 CURVE SMOOTH",
"509 301 LINE",
"577 309 OFFCURVE",
"638 318 OFFCURVE",
"665 326 CURVE SMOOTH",
"673 329 OFFCURVE",
"679 331 OFFCURVE",
"676 343 CURVE SMOOTH",
"672 370 LINE SMOOTH",
"671 375 OFFCURVE",
"668 377 OFFCURVE",
"663 375 CURVE",
"559 348 OFFCURVE",
"400 336 OFFCURVE",
"264 331 CURVE SMOOTH",
"177 328 OFFCURVE",
"97 329 OFFCURVE",
"69 335 CURVE SMOOTH"
);
},
{
closed = 1;
nodes = (
"765 -78 OFFCURVE",
"766 -77 OFFCURVE",
"766 -57 CURVE SMOOTH",
"766 627 LINE SMOOTH",
"766 675 OFFCURVE",
"766 706 OFFCURVE",
"770 755 CURVE SMOOTH",
"770 760 OFFCURVE",
"768 762 OFFCURVE",
"765 763 CURVE",
"761 763 OFFCURVE",
"711 764 OFFCURVE",
"700 764 CURVE SMOOTH",
"695 764 OFFCURVE",
"690 761 OFFCURVE",
"693 754 CURVE SMOOTH",
"700 741 OFFCURVE",
"703 693 OFFCURVE",
"703 642 CURVE SMOOTH",
"703 -77 LINE SMOOTH",
"703 -80 OFFCURVE",
"704 -82 OFFCURVE",
"707 -82 CURVE SMOOTH",
"714 -82 OFFCURVE",
"751 -79 OFFCURVE",
"758 -79 CURVE SMOOTH"
);
}
);
width = 900;
}
);
note = cid00448;
unicode = 318C;
},
{
glyphname = "araeaCompa-ko";
lastChange = "2019-11-29 11:50:09 +0000";
layers = (
{
layerId = "210D674B-AD98-4874-A618-1698A23DB8A1";
paths = (
{
closed = 1;
nodes = (
"485 323 OFFCURVE",
"507 343 OFFCURVE",
"508 375 CURVE SMOOTH",
"508 406 OFFCURVE",
"484 428 OFFCURVE",
"452 425 CURVE SMOOTH",
"420 422 OFFCURVE",
"397 402 OFFCURVE",
"397 371 CURVE SMOOTH",
"396 339 OFFCURVE",
"421 317 OFFCURVE",
"453 320 CURVE SMOOTH"
);
}
);
width = 900;
}
);
note = cid00449;
unicode = 318D;
},
{
glyphname = "araeaeCompa-ko";
lastChange = "2019-11-29 11:50:09 +0000";
layers = (
{
layerId = "210D674B-AD98-4874-A618-1698A23DB8A1";
paths = (
{
closed = 1;
nodes = (
"334 354 OFFCURVE",
"353 374 OFFCURVE",
"354 405 CURVE SMOOTH",
"354 434 OFFCURVE",
"333 453 OFFCURVE",
"302 452 CURVE SMOOTH",
"271 451 OFFCURVE",
"251 430 OFFCURVE",
"251 401 CURVE SMOOTH",
"250 370 OFFCURVE",
"272 352 OFFCURVE",
"303 353 CURVE SMOOTH"
);
},
{
closed = 1;
nodes = (
"550 -78 OFFCURVE",
"551 -77 OFFCURVE",
"551 -57 CURVE SMOOTH",
"551 627 LINE SMOOTH",
"551 675 OFFCURVE",
"551 706 OFFCURVE",
"555 755 CURVE SMOOTH",
"555 760 OFFCURVE",
"553 762 OFFCURVE",
"550 763 CURVE",
"546 763 OFFCURVE",
"496 764 OFFCURVE",
"485 764 CURVE SMOOTH",
"480 764 OFFCURVE",
"475 761 OFFCURVE",
"478 754 CURVE SMOOTH",
"485 741 OFFCURVE",
"488 693 OFFCURVE",
"488 642 CURVE SMOOTH",
"488 -77 LINE SMOOTH",
"488 -80 OFFCURVE",
"489 -82 OFFCURVE",
"492 -82 CURVE SMOOTH",
"499 -82 OFFCURVE",
"536 -79 OFFCURVE",
"543 -79 CURVE SMOOTH"
);
}
);
width = 900;
}
);
note = cid00450;
unicode = 318E;
},
{
glyphname = "ga-ko";
lastChange = "2019-11-29 11:50:09 +0000";
layers = (
{
layerId = "210D674B-AD98-4874-A618-1698A23DB8A1";
paths = (
{
closed = 1;
nodes = (
"706 -78 OFFCURVE",
"707 -77 OFFCURVE",
"707 -57 CURVE SMOOTH",
"707 341 LINE",
"763 341 OFFCURVE",
"840 343 OFFCURVE",
"871 340 CURVE SMOOTH",
"877 340 OFFCURVE",
"880 344 OFFCURVE",
"880 351 CURVE SMOOTH",
"879 368 OFFCURVE",
"878 386 OFFCURVE",
"875 403 CURVE SMOOTH",
"874 408 OFFCURVE",
"871 410 OFFCURVE",
"865 409 CURVE SMOOTH",
"837 401 OFFCURVE",
"761 393 OFFCURVE",
"707 393 CURVE",
"707 627 LINE SMOOTH",
"707 675 OFFCURVE",
"707 706 OFFCURVE",
"711 755 CURVE SMOOTH",
"711 760 OFFCURVE",
"709 762 OFFCURVE",
"706 763 CURVE",
"702 763 OFFCURVE",
"652 764 OFFCURVE",
"641 764 CURVE SMOOTH",
"636 764 OFFCURVE",
"631 761 OFFCURVE",
"634 754 CURVE SMOOTH",
"641 741 OFFCURVE",
"644 693 OFFCURVE",
"644 642 CURVE SMOOTH",
"644 -77 LINE SMOOTH",
"644 -80 OFFCURVE",
"645 -82 OFFCURVE",
"648 -82 CURVE SMOOTH",
"655 -82 OFFCURVE",
"692 -79 OFFCURVE",
"699 -79 CURVE SMOOTH"
);
},
{
closed = 1;
nodes = (
"308 648 OFFCURVE",
"178 642 OFFCURVE",
"90 650 CURVE SMOOTH",
"83 651 OFFCURVE",
"81 646 OFFCURVE",
"82 643 CURVE SMOOTH",
"87 620 OFFCURVE",
"89 615 OFFCURVE",
"94 600 CURVE SMOOTH",
"97 592 OFFCURVE",
"98 586 OFFCURVE",
"113 587 CURVE SMOOTH",
"217 596 LINE",
"413 608 LINE SMOOTH",
"420 608 OFFCURVE",
"423 604 OFFCURVE",
"422 597 CURVE SMOOTH",
"401 426 OFFCURVE",
"218 197 OFFCURVE",
"50 109 CURVE",
"46 106 OFFCURVE",
"43 103 OFFCURVE",
"47 99 CURVE SMOOTH",
"71 77 LINE SMOOTH",
"82 68 OFFCURVE",
"92 70 OFFCURVE",
"103 77 CURVE SMOOTH",
"330 218 OFFCURVE",
"449 443 OFFCURVE",
"487 561 CURVE SMOOTH",
"510 635 LINE",
"511 641 OFFCURVE",
"509 645 OFFCURVE",
"503 648 CURVE",
"448 666 LINE SMOOTH",
"444 667 OFFCURVE",
"440 667 OFFCURVE",
"437 666 CURVE",
"441 667 OFFCURVE",
"414 660 OFFCURVE",
"397 659 CURVE SMOOTH"
);
}
);
width = 910;
}
);
note = cid01086;
unicode = AC00;
},
{
glyphname = "gag-ko";
lastChange = "2019-11-29 11:50:09 +0000";
layers = (
{
layerId = "210D674B-AD98-4874-A618-1698A23DB8A1";
paths = (
{
closed = 1;
nodes = (
"296 680 OFFCURVE",
"179 674 OFFCURVE",
"91 682 CURVE SMOOTH",
"84 683 OFFCURVE",
"82 678 OFFCURVE",
"83 675 CURVE SMOOTH",
"88 652 OFFCURVE",
"90 647 OFFCURVE",
"95 632 CURVE SMOOTH",
"98 624 OFFCURVE",
"99 618 OFFCURVE",
"114 619 CURVE SMOOTH",
"211 628 LINE",
"407 640 LINE SMOOTH",
"415 640 OFFCURVE",
"416 637 OFFCURVE",
"415 629 CURVE SMOOTH",
"394 487 OFFCURVE",
"217 313 OFFCURVE",
"55 236 CURVE",
"51 233 OFFCURVE",
"48 230 OFFCURVE",
"52 226 CURVE SMOOTH",
"74 204 LINE",
"85 195 OFFCURVE",
"95 197 OFFCURVE",
"106 204 CURVE SMOOTH",
"319 324 OFFCURVE",
"428 480 OFFCURVE",
"471 584 CURVE SMOOTH",
"484 615 OFFCURVE",
"491 633 OFFCURVE",
"500 661 CURVE SMOOTH",
"502 667 OFFCURVE",
"500 671 OFFCURVE",
"493 674 CURVE SMOOTH",
"488 676 OFFCURVE",
"451 693 OFFCURVE",
"435 698 CURVE SMOOTH",
"431 699 OFFCURVE",
"427 699 OFFCURVE",
"424 698 CURVE",
"428 699 OFFCURVE",
"401 692 OFFCURVE",
"384 691 CURVE SMOOTH"
);
},
{
closed = 1;
nodes = (
"644 -141 LINE SMOOTH",
"644 -144 OFFCURVE",
"645 -146 OFFCURVE",
"648 -146 CURVE SMOOTH",
"656 -146 OFFCURVE",
"686 -144 OFFCURVE",
"694 -144 CURVE SMOOTH",
"701 -143 OFFCURVE",
"708 -143 OFFCURVE",
"708 -127 CURVE SMOOTH",
"709 63 LINE SMOOTH",
"709 95 OFFCURVE",
"712 135 OFFCURVE",
"715 174 CURVE SMOOTH",
"715 177 OFFCURVE",
"716 182 OFFCURVE",
"709 183 CURVE SMOOTH",
"650 192 LINE SMOOTH",
"642 193 OFFCURVE",
"641 192 OFFCURVE",
"636 191 CURVE SMOOTH",
"568 175 OFFCURVE",
"268 170 OFFCURVE",
"213 178 CURVE SMOOTH",
"206 179 OFFCURVE",
"204 174 OFFCURVE",
"205 171 CURVE SMOOTH",
"215 128 LINE",
"218 120 OFFCURVE",
"219 114 OFFCURVE",
"234 115 CURVE SMOOTH",
"267 118 OFFCURVE",
"310 120 OFFCURVE",
"343 123 CURVE SMOOTH",
"400 126 OFFCURVE",
"571 132 OFFCURVE",
"632 132 CURVE SMOOTH",
"644 132 OFFCURVE",
"644 130 OFFCURVE",
"644 121 CURVE SMOOTH"
);
},
{
closed = 1;
nodes = (
"711 454 LINE",
"766 457 OFFCURVE",
"847 456 OFFCURVE",
"876 453 CURVE SMOOTH",
"882 453 OFFCURVE",
"885 457 OFFCURVE",
"885 464 CURVE SMOOTH",
"884 481 OFFCURVE",
"883 499 OFFCURVE",
"880 516 CURVE SMOOTH",
"879 521 OFFCURVE",
"876 523 OFFCURVE",
"870 522 CURVE SMOOTH",
"842 514 OFFCURVE",
"765 506 OFFCURVE",
"711 506 CURVE",
"711 627 LINE SMOOTH",
"711 675 OFFCURVE",
"711 706 OFFCURVE",
"715 755 CURVE SMOOTH",
"715 760 OFFCURVE",
"713 762 OFFCURVE",
"710 763 CURVE",
"706 763 OFFCURVE",
"656 764 OFFCURVE",
"645 764 CURVE SMOOTH",
"640 764 OFFCURVE",
"635 761 OFFCURVE",
"638 754 CURVE SMOOTH",
"645 741 OFFCURVE",
"648 693 OFFCURVE",
"648 642 CURVE SMOOTH",
"648 249 LINE SMOOTH",
"648 246 OFFCURVE",
"649 244 OFFCURVE",
"652 244 CURVE SMOOTH",
"659 244 OFFCURVE",
"696 246 OFFCURVE",
"703 246 CURVE SMOOTH",
"710 247 OFFCURVE",
"711 248 OFFCURVE",
"711 268 CURVE SMOOTH"
);
}
);
width = 910;
}
);
note = cid01087;
unicode = AC01;
},
{
glyphname = "gan-ko";
lastChange = "2019-11-29 11:50:09 +0000";
layers = (
{
layerId = "210D674B-AD98-4874-A618-1698A23DB8A1";
paths = (
{
closed = 1;
nodes = (
"296 665 OFFCURVE",
"179 659 OFFCURVE",
"91 667 CURVE SMOOTH",
"84 668 OFFCURVE",
"82 663 OFFCURVE",
"83 660 CURVE SMOOTH",
"88 637 OFFCURVE",
"90 632 OFFCURVE",
"95 617 CURVE SMOOTH",
"98 609 OFFCURVE",
"99 603 OFFCURVE",
"114 604 CURVE SMOOTH",
"211 613 LINE",
"408 625 LINE SMOOTH",
"416 625 OFFCURVE",
"417 622 OFFCURVE",
"416 614 CURVE SMOOTH",
"395 473 OFFCURVE",
"217 283 OFFCURVE",
"55 206 CURVE",
"51 203 OFFCURVE",
"48 200 OFFCURVE",
"52 196 CURVE SMOOTH",
"74 174 LINE",
"85 165 OFFCURVE",
"95 167 OFFCURVE",
"106 174 CURVE SMOOTH",
"319 294 OFFCURVE",
"429 471 OFFCURVE",
"471 571 CURVE SMOOTH",
"484 602 OFFCURVE",
"491 618 OFFCURVE",
"500 646 CURVE SMOOTH",
"502 652 OFFCURVE",
"500 656 OFFCURVE",
"493 659 CURVE SMOOTH",
"488 661 OFFCURVE",
"451 678 OFFCURVE",
"435 683 CURVE SMOOTH",
"431 684 OFFCURVE",
"427 684 OFFCURVE",
"424 683 CURVE",
"428 684 OFFCURVE",
"401 677 OFFCURVE",
"384 676 CURVE SMOOTH"
);
},
{
closed = 1;
nodes = (
"711 423 LINE",
"766 426 OFFCURVE",
"847 425 OFFCURVE",
"876 422 CURVE SMOOTH",
"882 422 OFFCURVE",
"885 426 OFFCURVE",
"885 433 CURVE SMOOTH",
"884 450 OFFCURVE",
"884 468 OFFCURVE",
"881 485 CURVE SMOOTH",
"880 490 OFFCURVE",
"877 492 OFFCURVE",
"871 491 CURVE SMOOTH",
"843 483 OFFCURVE",
"765 477 OFFCURVE",
"711 477 CURVE",
"711 627 LINE SMOOTH",
"711 675 OFFCURVE",
"711 706 OFFCURVE",
"715 755 CURVE SMOOTH",
"715 760 OFFCURVE",
"713 762 OFFCURVE",
"710 763 CURVE",
"706 763 OFFCURVE",
"656 764 OFFCURVE",
"645 764 CURVE SMOOTH",
"640 764 OFFCURVE",
"635 761 OFFCURVE",
"638 754 CURVE SMOOTH",
"645 741 OFFCURVE",
"648 693 OFFCURVE",
"648 642 CURVE SMOOTH",
"648 124 LINE SMOOTH",
"648 121 OFFCURVE",
"649 119 OFFCURVE",
"652 119 CURVE SMOOTH",
"659 119 OFFCURVE",
"696 121 OFFCURVE",
"703 121 CURVE SMOOTH",
"710 122 OFFCURVE",
"711 123 OFFCURVE",
"711 143 CURVE SMOOTH"
);
},
{
closed = 1;
nodes = (
"332 55 LINE SMOOTH",
"332 90 OFFCURVE",
"332 108 OFFCURVE",
"335 139 CURVE SMOOTH",
"335 146 OFFCURVE",
"333 149 OFFCURVE",
"330 149 CURVE SMOOTH",
"327 149 OFFCURVE",
"278 152 OFFCURVE",
"267 152 CURVE SMOOTH",
"260 152 OFFCURVE",
"258 149 OFFCURVE",
"260 142 CURVE SMOOTH",
"264 129 OFFCURVE",
"269 98 OFFCURVE",
"269 51 CURVE SMOOTH",
"269 -34 LINE SMOOTH",
"270 -91 OFFCURVE",
"291 -124 OFFCURVE",
"334 -124 CURVE SMOOTH",
"490 -124 OFFCURVE",
"628 -118 OFFCURVE",
"760 -118 CURVE SMOOTH",
"779 -118 OFFCURVE",
"779 -114 OFFCURVE",
"779 -107 CURVE",
"771 -60 LINE SMOOTH",
"770 -53 OFFCURVE",
"767 -48 OFFCURVE",
"754 -51 CURVE SMOOTH",
"722 -59 OFFCURVE",
"654 -67 OFFCURVE",
"598 -70 CURVE SMOOTH",
"518 -75 OFFCURVE",
"419 -76 OFFCURVE",
"363 -73 CURVE SMOOTH",
"343 -72 OFFCURVE",
"332 -64 OFFCURVE",
"332 -28 CURVE SMOOTH"
);
}
);
width = 910;
}
);
note = cid01088;
unicode = AC04;
},
